%TF.GenerationSoftware,KiCad,Pcbnew,10.0.5*%
%TF.CreationDate,2026-07-31T22:21:34-07:00*%
%TF.ProjectId,Beat Sync LED,42656174-2053-4796-9e63-204c45442e6b,rev?*%
%TF.SameCoordinates,Original*%
%TF.FileFunction,Legend,Top*%
%TF.FilePolarity,Positive*%
%FSLAX46Y46*%
G04 Gerber Fmt 4.6, Leading zero omitted, Abs format (unit mm)*
G04 Created by KiCad (PCBNEW 10.0.5) date 2026-07-31 22:21:34*
%MOMM*%
%LPD*%
G01*
G04 APERTURE LIST*
%ADD10C,0.150000*%
%ADD11C,0.100000*%
%ADD12C,0.120000*%
%ADD13C,0.200000*%
G04 APERTURE END LIST*
D10*
X55224819Y-35333333D02*
X55939104Y-35333333D01*
X55939104Y-35333333D02*
X56081961Y-35380952D01*
X56081961Y-35380952D02*
X56177200Y-35476190D01*
X56177200Y-35476190D02*
X56224819Y-35619047D01*
X56224819Y-35619047D02*
X56224819Y-35714285D01*
X55224819Y-34428571D02*
X55224819Y-34619047D01*
X55224819Y-34619047D02*
X55272438Y-34714285D01*
X55272438Y-34714285D02*
X55320057Y-34761904D01*
X55320057Y-34761904D02*
X55462914Y-34857142D01*
X55462914Y-34857142D02*
X55653390Y-34904761D01*
X55653390Y-34904761D02*
X56034342Y-34904761D01*
X56034342Y-34904761D02*
X56129580Y-34857142D01*
X56129580Y-34857142D02*
X56177200Y-34809523D01*
X56177200Y-34809523D02*
X56224819Y-34714285D01*
X56224819Y-34714285D02*
X56224819Y-34523809D01*
X56224819Y-34523809D02*
X56177200Y-34428571D01*
X56177200Y-34428571D02*
X56129580Y-34380952D01*
X56129580Y-34380952D02*
X56034342Y-34333333D01*
X56034342Y-34333333D02*
X55796247Y-34333333D01*
X55796247Y-34333333D02*
X55701009Y-34380952D01*
X55701009Y-34380952D02*
X55653390Y-34428571D01*
X55653390Y-34428571D02*
X55605771Y-34523809D01*
X55605771Y-34523809D02*
X55605771Y-34714285D01*
X55605771Y-34714285D02*
X55653390Y-34809523D01*
X55653390Y-34809523D02*
X55701009Y-34857142D01*
X55701009Y-34857142D02*
X55796247Y-34904761D01*
X66684819Y-93333333D02*
X67399104Y-93333333D01*
X67399104Y-93333333D02*
X67541961Y-93380952D01*
X67541961Y-93380952D02*
X67637200Y-93476190D01*
X67637200Y-93476190D02*
X67684819Y-93619047D01*
X67684819Y-93619047D02*
X67684819Y-93714285D01*
X66780057Y-92904761D02*
X66732438Y-92857142D01*
X66732438Y-92857142D02*
X66684819Y-92761904D01*
X66684819Y-92761904D02*
X66684819Y-92523809D01*
X66684819Y-92523809D02*
X66732438Y-92428571D01*
X66732438Y-92428571D02*
X66780057Y-92380952D01*
X66780057Y-92380952D02*
X66875295Y-92333333D01*
X66875295Y-92333333D02*
X66970533Y-92333333D01*
X66970533Y-92333333D02*
X67113390Y-92380952D01*
X67113390Y-92380952D02*
X67684819Y-92952380D01*
X67684819Y-92952380D02*
X67684819Y-92333333D01*
X110224819Y-35333333D02*
X110939104Y-35333333D01*
X110939104Y-35333333D02*
X111081961Y-35380952D01*
X111081961Y-35380952D02*
X111177200Y-35476190D01*
X111177200Y-35476190D02*
X111224819Y-35619047D01*
X111224819Y-35619047D02*
X111224819Y-35714285D01*
X111224819Y-34333333D02*
X111224819Y-34904761D01*
X111224819Y-34619047D02*
X110224819Y-34619047D01*
X110224819Y-34619047D02*
X110367676Y-34714285D01*
X110367676Y-34714285D02*
X110462914Y-34809523D01*
X110462914Y-34809523D02*
X110510533Y-34904761D01*
X98404819Y-58595238D02*
X97928628Y-58928571D01*
X98404819Y-59166666D02*
X97404819Y-59166666D01*
X97404819Y-59166666D02*
X97404819Y-58785714D01*
X97404819Y-58785714D02*
X97452438Y-58690476D01*
X97452438Y-58690476D02*
X97500057Y-58642857D01*
X97500057Y-58642857D02*
X97595295Y-58595238D01*
X97595295Y-58595238D02*
X97738152Y-58595238D01*
X97738152Y-58595238D02*
X97833390Y-58642857D01*
X97833390Y-58642857D02*
X97881009Y-58690476D01*
X97881009Y-58690476D02*
X97928628Y-58785714D01*
X97928628Y-58785714D02*
X97928628Y-59166666D01*
X97404819Y-58309523D02*
X98404819Y-57976190D01*
X98404819Y-57976190D02*
X97404819Y-57642857D01*
X97500057Y-57357142D02*
X97452438Y-57309523D01*
X97452438Y-57309523D02*
X97404819Y-57214285D01*
X97404819Y-57214285D02*
X97404819Y-56976190D01*
X97404819Y-56976190D02*
X97452438Y-56880952D01*
X97452438Y-56880952D02*
X97500057Y-56833333D01*
X97500057Y-56833333D02*
X97595295Y-56785714D01*
X97595295Y-56785714D02*
X97690533Y-56785714D01*
X97690533Y-56785714D02*
X97833390Y-56833333D01*
X97833390Y-56833333D02*
X98404819Y-57404761D01*
X98404819Y-57404761D02*
X98404819Y-56785714D01*
X37583333Y-61359580D02*
X37535714Y-61407200D01*
X37535714Y-61407200D02*
X37392857Y-61454819D01*
X37392857Y-61454819D02*
X37297619Y-61454819D01*
X37297619Y-61454819D02*
X37154762Y-61407200D01*
X37154762Y-61407200D02*
X37059524Y-61311961D01*
X37059524Y-61311961D02*
X37011905Y-61216723D01*
X37011905Y-61216723D02*
X36964286Y-61026247D01*
X36964286Y-61026247D02*
X36964286Y-60883390D01*
X36964286Y-60883390D02*
X37011905Y-60692914D01*
X37011905Y-60692914D02*
X37059524Y-60597676D01*
X37059524Y-60597676D02*
X37154762Y-60502438D01*
X37154762Y-60502438D02*
X37297619Y-60454819D01*
X37297619Y-60454819D02*
X37392857Y-60454819D01*
X37392857Y-60454819D02*
X37535714Y-60502438D01*
X37535714Y-60502438D02*
X37583333Y-60550057D01*
X37916667Y-60454819D02*
X38535714Y-60454819D01*
X38535714Y-60454819D02*
X38202381Y-60835771D01*
X38202381Y-60835771D02*
X38345238Y-60835771D01*
X38345238Y-60835771D02*
X38440476Y-60883390D01*
X38440476Y-60883390D02*
X38488095Y-60931009D01*
X38488095Y-60931009D02*
X38535714Y-61026247D01*
X38535714Y-61026247D02*
X38535714Y-61264342D01*
X38535714Y-61264342D02*
X38488095Y-61359580D01*
X38488095Y-61359580D02*
X38440476Y-61407200D01*
X38440476Y-61407200D02*
X38345238Y-61454819D01*
X38345238Y-61454819D02*
X38059524Y-61454819D01*
X38059524Y-61454819D02*
X37964286Y-61407200D01*
X37964286Y-61407200D02*
X37916667Y-61359580D01*
X55359580Y-83392857D02*
X55407200Y-83440476D01*
X55407200Y-83440476D02*
X55454819Y-83583333D01*
X55454819Y-83583333D02*
X55454819Y-83678571D01*
X55454819Y-83678571D02*
X55407200Y-83821428D01*
X55407200Y-83821428D02*
X55311961Y-83916666D01*
X55311961Y-83916666D02*
X55216723Y-83964285D01*
X55216723Y-83964285D02*
X55026247Y-84011904D01*
X55026247Y-84011904D02*
X54883390Y-84011904D01*
X54883390Y-84011904D02*
X54692914Y-83964285D01*
X54692914Y-83964285D02*
X54597676Y-83916666D01*
X54597676Y-83916666D02*
X54502438Y-83821428D01*
X54502438Y-83821428D02*
X54454819Y-83678571D01*
X54454819Y-83678571D02*
X54454819Y-83583333D01*
X54454819Y-83583333D02*
X54502438Y-83440476D01*
X54502438Y-83440476D02*
X54550057Y-83392857D01*
X55454819Y-82440476D02*
X55454819Y-83011904D01*
X55454819Y-82726190D02*
X54454819Y-82726190D01*
X54454819Y-82726190D02*
X54597676Y-82821428D01*
X54597676Y-82821428D02*
X54692914Y-82916666D01*
X54692914Y-82916666D02*
X54740533Y-83011904D01*
X54454819Y-81821428D02*
X54454819Y-81726190D01*
X54454819Y-81726190D02*
X54502438Y-81630952D01*
X54502438Y-81630952D02*
X54550057Y-81583333D01*
X54550057Y-81583333D02*
X54645295Y-81535714D01*
X54645295Y-81535714D02*
X54835771Y-81488095D01*
X54835771Y-81488095D02*
X55073866Y-81488095D01*
X55073866Y-81488095D02*
X55264342Y-81535714D01*
X55264342Y-81535714D02*
X55359580Y-81583333D01*
X55359580Y-81583333D02*
X55407200Y-81630952D01*
X55407200Y-81630952D02*
X55454819Y-81726190D01*
X55454819Y-81726190D02*
X55454819Y-81821428D01*
X55454819Y-81821428D02*
X55407200Y-81916666D01*
X55407200Y-81916666D02*
X55359580Y-81964285D01*
X55359580Y-81964285D02*
X55264342Y-82011904D01*
X55264342Y-82011904D02*
X55073866Y-82059523D01*
X55073866Y-82059523D02*
X54835771Y-82059523D01*
X54835771Y-82059523D02*
X54645295Y-82011904D01*
X54645295Y-82011904D02*
X54550057Y-81964285D01*
X54550057Y-81964285D02*
X54502438Y-81916666D01*
X54502438Y-81916666D02*
X54454819Y-81821428D01*
X108359580Y-57916666D02*
X108407200Y-57964285D01*
X108407200Y-57964285D02*
X108454819Y-58107142D01*
X108454819Y-58107142D02*
X108454819Y-58202380D01*
X108454819Y-58202380D02*
X108407200Y-58345237D01*
X108407200Y-58345237D02*
X108311961Y-58440475D01*
X108311961Y-58440475D02*
X108216723Y-58488094D01*
X108216723Y-58488094D02*
X108026247Y-58535713D01*
X108026247Y-58535713D02*
X107883390Y-58535713D01*
X107883390Y-58535713D02*
X107692914Y-58488094D01*
X107692914Y-58488094D02*
X107597676Y-58440475D01*
X107597676Y-58440475D02*
X107502438Y-58345237D01*
X107502438Y-58345237D02*
X107454819Y-58202380D01*
X107454819Y-58202380D02*
X107454819Y-58107142D01*
X107454819Y-58107142D02*
X107502438Y-57964285D01*
X107502438Y-57964285D02*
X107550057Y-57916666D01*
X107883390Y-57345237D02*
X107835771Y-57440475D01*
X107835771Y-57440475D02*
X107788152Y-57488094D01*
X107788152Y-57488094D02*
X107692914Y-57535713D01*
X107692914Y-57535713D02*
X107645295Y-57535713D01*
X107645295Y-57535713D02*
X107550057Y-57488094D01*
X107550057Y-57488094D02*
X107502438Y-57440475D01*
X107502438Y-57440475D02*
X107454819Y-57345237D01*
X107454819Y-57345237D02*
X107454819Y-57154761D01*
X107454819Y-57154761D02*
X107502438Y-57059523D01*
X107502438Y-57059523D02*
X107550057Y-57011904D01*
X107550057Y-57011904D02*
X107645295Y-56964285D01*
X107645295Y-56964285D02*
X107692914Y-56964285D01*
X107692914Y-56964285D02*
X107788152Y-57011904D01*
X107788152Y-57011904D02*
X107835771Y-57059523D01*
X107835771Y-57059523D02*
X107883390Y-57154761D01*
X107883390Y-57154761D02*
X107883390Y-57345237D01*
X107883390Y-57345237D02*
X107931009Y-57440475D01*
X107931009Y-57440475D02*
X107978628Y-57488094D01*
X107978628Y-57488094D02*
X108073866Y-57535713D01*
X108073866Y-57535713D02*
X108264342Y-57535713D01*
X108264342Y-57535713D02*
X108359580Y-57488094D01*
X108359580Y-57488094D02*
X108407200Y-57440475D01*
X108407200Y-57440475D02*
X108454819Y-57345237D01*
X108454819Y-57345237D02*
X108454819Y-57154761D01*
X108454819Y-57154761D02*
X108407200Y-57059523D01*
X108407200Y-57059523D02*
X108359580Y-57011904D01*
X108359580Y-57011904D02*
X108264342Y-56964285D01*
X108264342Y-56964285D02*
X108073866Y-56964285D01*
X108073866Y-56964285D02*
X107978628Y-57011904D01*
X107978628Y-57011904D02*
X107931009Y-57059523D01*
X107931009Y-57059523D02*
X107883390Y-57154761D01*
X91359580Y-72916666D02*
X91407200Y-72964285D01*
X91407200Y-72964285D02*
X91454819Y-73107142D01*
X91454819Y-73107142D02*
X91454819Y-73202380D01*
X91454819Y-73202380D02*
X91407200Y-73345237D01*
X91407200Y-73345237D02*
X91311961Y-73440475D01*
X91311961Y-73440475D02*
X91216723Y-73488094D01*
X91216723Y-73488094D02*
X91026247Y-73535713D01*
X91026247Y-73535713D02*
X90883390Y-73535713D01*
X90883390Y-73535713D02*
X90692914Y-73488094D01*
X90692914Y-73488094D02*
X90597676Y-73440475D01*
X90597676Y-73440475D02*
X90502438Y-73345237D01*
X90502438Y-73345237D02*
X90454819Y-73202380D01*
X90454819Y-73202380D02*
X90454819Y-73107142D01*
X90454819Y-73107142D02*
X90502438Y-72964285D01*
X90502438Y-72964285D02*
X90550057Y-72916666D01*
X90454819Y-72059523D02*
X90454819Y-72249999D01*
X90454819Y-72249999D02*
X90502438Y-72345237D01*
X90502438Y-72345237D02*
X90550057Y-72392856D01*
X90550057Y-72392856D02*
X90692914Y-72488094D01*
X90692914Y-72488094D02*
X90883390Y-72535713D01*
X90883390Y-72535713D02*
X91264342Y-72535713D01*
X91264342Y-72535713D02*
X91359580Y-72488094D01*
X91359580Y-72488094D02*
X91407200Y-72440475D01*
X91407200Y-72440475D02*
X91454819Y-72345237D01*
X91454819Y-72345237D02*
X91454819Y-72154761D01*
X91454819Y-72154761D02*
X91407200Y-72059523D01*
X91407200Y-72059523D02*
X91359580Y-72011904D01*
X91359580Y-72011904D02*
X91264342Y-71964285D01*
X91264342Y-71964285D02*
X91026247Y-71964285D01*
X91026247Y-71964285D02*
X90931009Y-72011904D01*
X90931009Y-72011904D02*
X90883390Y-72059523D01*
X90883390Y-72059523D02*
X90835771Y-72154761D01*
X90835771Y-72154761D02*
X90835771Y-72345237D01*
X90835771Y-72345237D02*
X90883390Y-72440475D01*
X90883390Y-72440475D02*
X90931009Y-72488094D01*
X90931009Y-72488094D02*
X91026247Y-72535713D01*
X115904819Y-58595238D02*
X115428628Y-58928571D01*
X115904819Y-59166666D02*
X114904819Y-59166666D01*
X114904819Y-59166666D02*
X114904819Y-58785714D01*
X114904819Y-58785714D02*
X114952438Y-58690476D01*
X114952438Y-58690476D02*
X115000057Y-58642857D01*
X115000057Y-58642857D02*
X115095295Y-58595238D01*
X115095295Y-58595238D02*
X115238152Y-58595238D01*
X115238152Y-58595238D02*
X115333390Y-58642857D01*
X115333390Y-58642857D02*
X115381009Y-58690476D01*
X115381009Y-58690476D02*
X115428628Y-58785714D01*
X115428628Y-58785714D02*
X115428628Y-59166666D01*
X114904819Y-58309523D02*
X115904819Y-57976190D01*
X115904819Y-57976190D02*
X114904819Y-57642857D01*
X114904819Y-56833333D02*
X114904819Y-57309523D01*
X114904819Y-57309523D02*
X115381009Y-57357142D01*
X115381009Y-57357142D02*
X115333390Y-57309523D01*
X115333390Y-57309523D02*
X115285771Y-57214285D01*
X115285771Y-57214285D02*
X115285771Y-56976190D01*
X115285771Y-56976190D02*
X115333390Y-56880952D01*
X115333390Y-56880952D02*
X115381009Y-56833333D01*
X115381009Y-56833333D02*
X115476247Y-56785714D01*
X115476247Y-56785714D02*
X115714342Y-56785714D01*
X115714342Y-56785714D02*
X115809580Y-56833333D01*
X115809580Y-56833333D02*
X115857200Y-56880952D01*
X115857200Y-56880952D02*
X115904819Y-56976190D01*
X115904819Y-56976190D02*
X115904819Y-57214285D01*
X115904819Y-57214285D02*
X115857200Y-57309523D01*
X115857200Y-57309523D02*
X115809580Y-57357142D01*
X90859580Y-57916666D02*
X90907200Y-57964285D01*
X90907200Y-57964285D02*
X90954819Y-58107142D01*
X90954819Y-58107142D02*
X90954819Y-58202380D01*
X90954819Y-58202380D02*
X90907200Y-58345237D01*
X90907200Y-58345237D02*
X90811961Y-58440475D01*
X90811961Y-58440475D02*
X90716723Y-58488094D01*
X90716723Y-58488094D02*
X90526247Y-58535713D01*
X90526247Y-58535713D02*
X90383390Y-58535713D01*
X90383390Y-58535713D02*
X90192914Y-58488094D01*
X90192914Y-58488094D02*
X90097676Y-58440475D01*
X90097676Y-58440475D02*
X90002438Y-58345237D01*
X90002438Y-58345237D02*
X89954819Y-58202380D01*
X89954819Y-58202380D02*
X89954819Y-58107142D01*
X89954819Y-58107142D02*
X90002438Y-57964285D01*
X90002438Y-57964285D02*
X90050057Y-57916666D01*
X89954819Y-57011904D02*
X89954819Y-57488094D01*
X89954819Y-57488094D02*
X90431009Y-57535713D01*
X90431009Y-57535713D02*
X90383390Y-57488094D01*
X90383390Y-57488094D02*
X90335771Y-57392856D01*
X90335771Y-57392856D02*
X90335771Y-57154761D01*
X90335771Y-57154761D02*
X90383390Y-57059523D01*
X90383390Y-57059523D02*
X90431009Y-57011904D01*
X90431009Y-57011904D02*
X90526247Y-56964285D01*
X90526247Y-56964285D02*
X90764342Y-56964285D01*
X90764342Y-56964285D02*
X90859580Y-57011904D01*
X90859580Y-57011904D02*
X90907200Y-57059523D01*
X90907200Y-57059523D02*
X90954819Y-57154761D01*
X90954819Y-57154761D02*
X90954819Y-57392856D01*
X90954819Y-57392856D02*
X90907200Y-57488094D01*
X90907200Y-57488094D02*
X90859580Y-57535713D01*
X28666666Y-26504819D02*
X28333333Y-26028628D01*
X28095238Y-26504819D02*
X28095238Y-25504819D01*
X28095238Y-25504819D02*
X28476190Y-25504819D01*
X28476190Y-25504819D02*
X28571428Y-25552438D01*
X28571428Y-25552438D02*
X28619047Y-25600057D01*
X28619047Y-25600057D02*
X28666666Y-25695295D01*
X28666666Y-25695295D02*
X28666666Y-25838152D01*
X28666666Y-25838152D02*
X28619047Y-25933390D01*
X28619047Y-25933390D02*
X28571428Y-25981009D01*
X28571428Y-25981009D02*
X28476190Y-26028628D01*
X28476190Y-26028628D02*
X28095238Y-26028628D01*
X29095238Y-25981009D02*
X29428571Y-25981009D01*
X29571428Y-26504819D02*
X29095238Y-26504819D01*
X29095238Y-26504819D02*
X29095238Y-25504819D01*
X29095238Y-25504819D02*
X29571428Y-25504819D01*
X30333333Y-25981009D02*
X30000000Y-25981009D01*
X30000000Y-26504819D02*
X30000000Y-25504819D01*
X30000000Y-25504819D02*
X30476190Y-25504819D01*
X31000000Y-25504819D02*
X31000000Y-25742914D01*
X30761905Y-25647676D02*
X31000000Y-25742914D01*
X31000000Y-25742914D02*
X31238095Y-25647676D01*
X30857143Y-25933390D02*
X31000000Y-25742914D01*
X31000000Y-25742914D02*
X31142857Y-25933390D01*
X31761905Y-25504819D02*
X31761905Y-25742914D01*
X31523810Y-25647676D02*
X31761905Y-25742914D01*
X31761905Y-25742914D02*
X32000000Y-25647676D01*
X31619048Y-25933390D02*
X31761905Y-25742914D01*
X31761905Y-25742914D02*
X31904762Y-25933390D01*
X110083333Y-50609580D02*
X110035714Y-50657200D01*
X110035714Y-50657200D02*
X109892857Y-50704819D01*
X109892857Y-50704819D02*
X109797619Y-50704819D01*
X109797619Y-50704819D02*
X109654762Y-50657200D01*
X109654762Y-50657200D02*
X109559524Y-50561961D01*
X109559524Y-50561961D02*
X109511905Y-50466723D01*
X109511905Y-50466723D02*
X109464286Y-50276247D01*
X109464286Y-50276247D02*
X109464286Y-50133390D01*
X109464286Y-50133390D02*
X109511905Y-49942914D01*
X109511905Y-49942914D02*
X109559524Y-49847676D01*
X109559524Y-49847676D02*
X109654762Y-49752438D01*
X109654762Y-49752438D02*
X109797619Y-49704819D01*
X109797619Y-49704819D02*
X109892857Y-49704819D01*
X109892857Y-49704819D02*
X110035714Y-49752438D01*
X110035714Y-49752438D02*
X110083333Y-49800057D01*
X111035714Y-50704819D02*
X110464286Y-50704819D01*
X110750000Y-50704819D02*
X110750000Y-49704819D01*
X110750000Y-49704819D02*
X110654762Y-49847676D01*
X110654762Y-49847676D02*
X110559524Y-49942914D01*
X110559524Y-49942914D02*
X110464286Y-49990533D01*
X50916666Y-98074819D02*
X50916666Y-98789104D01*
X50916666Y-98789104D02*
X50869047Y-98931961D01*
X50869047Y-98931961D02*
X50773809Y-99027200D01*
X50773809Y-99027200D02*
X50630952Y-99074819D01*
X50630952Y-99074819D02*
X50535714Y-99074819D01*
X51821428Y-98408152D02*
X51821428Y-99074819D01*
X51583333Y-98027200D02*
X51345238Y-98741485D01*
X51345238Y-98741485D02*
X51964285Y-98741485D01*
X96583333Y-47859580D02*
X96535714Y-47907200D01*
X96535714Y-47907200D02*
X96392857Y-47954819D01*
X96392857Y-47954819D02*
X96297619Y-47954819D01*
X96297619Y-47954819D02*
X96154762Y-47907200D01*
X96154762Y-47907200D02*
X96059524Y-47811961D01*
X96059524Y-47811961D02*
X96011905Y-47716723D01*
X96011905Y-47716723D02*
X95964286Y-47526247D01*
X95964286Y-47526247D02*
X95964286Y-47383390D01*
X95964286Y-47383390D02*
X96011905Y-47192914D01*
X96011905Y-47192914D02*
X96059524Y-47097676D01*
X96059524Y-47097676D02*
X96154762Y-47002438D01*
X96154762Y-47002438D02*
X96297619Y-46954819D01*
X96297619Y-46954819D02*
X96392857Y-46954819D01*
X96392857Y-46954819D02*
X96535714Y-47002438D01*
X96535714Y-47002438D02*
X96583333Y-47050057D01*
X97059524Y-47954819D02*
X97250000Y-47954819D01*
X97250000Y-47954819D02*
X97345238Y-47907200D01*
X97345238Y-47907200D02*
X97392857Y-47859580D01*
X97392857Y-47859580D02*
X97488095Y-47716723D01*
X97488095Y-47716723D02*
X97535714Y-47526247D01*
X97535714Y-47526247D02*
X97535714Y-47145295D01*
X97535714Y-47145295D02*
X97488095Y-47050057D01*
X97488095Y-47050057D02*
X97440476Y-47002438D01*
X97440476Y-47002438D02*
X97345238Y-46954819D01*
X97345238Y-46954819D02*
X97154762Y-46954819D01*
X97154762Y-46954819D02*
X97059524Y-47002438D01*
X97059524Y-47002438D02*
X97011905Y-47050057D01*
X97011905Y-47050057D02*
X96964286Y-47145295D01*
X96964286Y-47145295D02*
X96964286Y-47383390D01*
X96964286Y-47383390D02*
X97011905Y-47478628D01*
X97011905Y-47478628D02*
X97059524Y-47526247D01*
X97059524Y-47526247D02*
X97154762Y-47573866D01*
X97154762Y-47573866D02*
X97345238Y-47573866D01*
X97345238Y-47573866D02*
X97440476Y-47526247D01*
X97440476Y-47526247D02*
X97488095Y-47478628D01*
X97488095Y-47478628D02*
X97535714Y-47383390D01*
X118666666Y-26504819D02*
X118333333Y-26028628D01*
X118095238Y-26504819D02*
X118095238Y-25504819D01*
X118095238Y-25504819D02*
X118476190Y-25504819D01*
X118476190Y-25504819D02*
X118571428Y-25552438D01*
X118571428Y-25552438D02*
X118619047Y-25600057D01*
X118619047Y-25600057D02*
X118666666Y-25695295D01*
X118666666Y-25695295D02*
X118666666Y-25838152D01*
X118666666Y-25838152D02*
X118619047Y-25933390D01*
X118619047Y-25933390D02*
X118571428Y-25981009D01*
X118571428Y-25981009D02*
X118476190Y-26028628D01*
X118476190Y-26028628D02*
X118095238Y-26028628D01*
X119095238Y-25981009D02*
X119428571Y-25981009D01*
X119571428Y-26504819D02*
X119095238Y-26504819D01*
X119095238Y-26504819D02*
X119095238Y-25504819D01*
X119095238Y-25504819D02*
X119571428Y-25504819D01*
X120333333Y-25981009D02*
X120000000Y-25981009D01*
X120000000Y-26504819D02*
X120000000Y-25504819D01*
X120000000Y-25504819D02*
X120476190Y-25504819D01*
X121000000Y-25504819D02*
X121000000Y-25742914D01*
X120761905Y-25647676D02*
X121000000Y-25742914D01*
X121000000Y-25742914D02*
X121238095Y-25647676D01*
X120857143Y-25933390D02*
X121000000Y-25742914D01*
X121000000Y-25742914D02*
X121142857Y-25933390D01*
X121761905Y-25504819D02*
X121761905Y-25742914D01*
X121523810Y-25647676D02*
X121761905Y-25742914D01*
X121761905Y-25742914D02*
X122000000Y-25647676D01*
X121619048Y-25933390D02*
X121761905Y-25742914D01*
X121761905Y-25742914D02*
X121904762Y-25933390D01*
X114404819Y-82095238D02*
X113928628Y-82428571D01*
X114404819Y-82666666D02*
X113404819Y-82666666D01*
X113404819Y-82666666D02*
X113404819Y-82285714D01*
X113404819Y-82285714D02*
X113452438Y-82190476D01*
X113452438Y-82190476D02*
X113500057Y-82142857D01*
X113500057Y-82142857D02*
X113595295Y-82095238D01*
X113595295Y-82095238D02*
X113738152Y-82095238D01*
X113738152Y-82095238D02*
X113833390Y-82142857D01*
X113833390Y-82142857D02*
X113881009Y-82190476D01*
X113881009Y-82190476D02*
X113928628Y-82285714D01*
X113928628Y-82285714D02*
X113928628Y-82666666D01*
X113404819Y-81809523D02*
X114404819Y-81476190D01*
X114404819Y-81476190D02*
X113404819Y-81142857D01*
X114404819Y-80285714D02*
X114404819Y-80857142D01*
X114404819Y-80571428D02*
X113404819Y-80571428D01*
X113404819Y-80571428D02*
X113547676Y-80666666D01*
X113547676Y-80666666D02*
X113642914Y-80761904D01*
X113642914Y-80761904D02*
X113690533Y-80857142D01*
X117333333Y-73359580D02*
X117285714Y-73407200D01*
X117285714Y-73407200D02*
X117142857Y-73454819D01*
X117142857Y-73454819D02*
X117047619Y-73454819D01*
X117047619Y-73454819D02*
X116904762Y-73407200D01*
X116904762Y-73407200D02*
X116809524Y-73311961D01*
X116809524Y-73311961D02*
X116761905Y-73216723D01*
X116761905Y-73216723D02*
X116714286Y-73026247D01*
X116714286Y-73026247D02*
X116714286Y-72883390D01*
X116714286Y-72883390D02*
X116761905Y-72692914D01*
X116761905Y-72692914D02*
X116809524Y-72597676D01*
X116809524Y-72597676D02*
X116904762Y-72502438D01*
X116904762Y-72502438D02*
X117047619Y-72454819D01*
X117047619Y-72454819D02*
X117142857Y-72454819D01*
X117142857Y-72454819D02*
X117285714Y-72502438D01*
X117285714Y-72502438D02*
X117333333Y-72550057D01*
X118190476Y-72788152D02*
X118190476Y-73454819D01*
X117952381Y-72407200D02*
X117714286Y-73121485D01*
X117714286Y-73121485D02*
X118333333Y-73121485D01*
X95583333Y-81859580D02*
X95535714Y-81907200D01*
X95535714Y-81907200D02*
X95392857Y-81954819D01*
X95392857Y-81954819D02*
X95297619Y-81954819D01*
X95297619Y-81954819D02*
X95154762Y-81907200D01*
X95154762Y-81907200D02*
X95059524Y-81811961D01*
X95059524Y-81811961D02*
X95011905Y-81716723D01*
X95011905Y-81716723D02*
X94964286Y-81526247D01*
X94964286Y-81526247D02*
X94964286Y-81383390D01*
X94964286Y-81383390D02*
X95011905Y-81192914D01*
X95011905Y-81192914D02*
X95059524Y-81097676D01*
X95059524Y-81097676D02*
X95154762Y-81002438D01*
X95154762Y-81002438D02*
X95297619Y-80954819D01*
X95297619Y-80954819D02*
X95392857Y-80954819D01*
X95392857Y-80954819D02*
X95535714Y-81002438D01*
X95535714Y-81002438D02*
X95583333Y-81050057D01*
X95916667Y-80954819D02*
X96583333Y-80954819D01*
X96583333Y-80954819D02*
X96154762Y-81954819D01*
X98404819Y-73095238D02*
X97928628Y-73428571D01*
X98404819Y-73666666D02*
X97404819Y-73666666D01*
X97404819Y-73666666D02*
X97404819Y-73285714D01*
X97404819Y-73285714D02*
X97452438Y-73190476D01*
X97452438Y-73190476D02*
X97500057Y-73142857D01*
X97500057Y-73142857D02*
X97595295Y-73095238D01*
X97595295Y-73095238D02*
X97738152Y-73095238D01*
X97738152Y-73095238D02*
X97833390Y-73142857D01*
X97833390Y-73142857D02*
X97881009Y-73190476D01*
X97881009Y-73190476D02*
X97928628Y-73285714D01*
X97928628Y-73285714D02*
X97928628Y-73666666D01*
X97404819Y-72809523D02*
X98404819Y-72476190D01*
X98404819Y-72476190D02*
X97404819Y-72142857D01*
X97404819Y-71904761D02*
X97404819Y-71285714D01*
X97404819Y-71285714D02*
X97785771Y-71619047D01*
X97785771Y-71619047D02*
X97785771Y-71476190D01*
X97785771Y-71476190D02*
X97833390Y-71380952D01*
X97833390Y-71380952D02*
X97881009Y-71333333D01*
X97881009Y-71333333D02*
X97976247Y-71285714D01*
X97976247Y-71285714D02*
X98214342Y-71285714D01*
X98214342Y-71285714D02*
X98309580Y-71333333D01*
X98309580Y-71333333D02*
X98357200Y-71380952D01*
X98357200Y-71380952D02*
X98404819Y-71476190D01*
X98404819Y-71476190D02*
X98404819Y-71761904D01*
X98404819Y-71761904D02*
X98357200Y-71857142D01*
X98357200Y-71857142D02*
X98309580Y-71904761D01*
X57324819Y-64976666D02*
X56848628Y-65309999D01*
X57324819Y-65548094D02*
X56324819Y-65548094D01*
X56324819Y-65548094D02*
X56324819Y-65167142D01*
X56324819Y-65167142D02*
X56372438Y-65071904D01*
X56372438Y-65071904D02*
X56420057Y-65024285D01*
X56420057Y-65024285D02*
X56515295Y-64976666D01*
X56515295Y-64976666D02*
X56658152Y-64976666D01*
X56658152Y-64976666D02*
X56753390Y-65024285D01*
X56753390Y-65024285D02*
X56801009Y-65071904D01*
X56801009Y-65071904D02*
X56848628Y-65167142D01*
X56848628Y-65167142D02*
X56848628Y-65548094D01*
X56420057Y-64595713D02*
X56372438Y-64548094D01*
X56372438Y-64548094D02*
X56324819Y-64452856D01*
X56324819Y-64452856D02*
X56324819Y-64214761D01*
X56324819Y-64214761D02*
X56372438Y-64119523D01*
X56372438Y-64119523D02*
X56420057Y-64071904D01*
X56420057Y-64071904D02*
X56515295Y-64024285D01*
X56515295Y-64024285D02*
X56610533Y-64024285D01*
X56610533Y-64024285D02*
X56753390Y-64071904D01*
X56753390Y-64071904D02*
X57324819Y-64643332D01*
X57324819Y-64643332D02*
X57324819Y-64024285D01*
X118666666Y-91504819D02*
X118333333Y-91028628D01*
X118095238Y-91504819D02*
X118095238Y-90504819D01*
X118095238Y-90504819D02*
X118476190Y-90504819D01*
X118476190Y-90504819D02*
X118571428Y-90552438D01*
X118571428Y-90552438D02*
X118619047Y-90600057D01*
X118619047Y-90600057D02*
X118666666Y-90695295D01*
X118666666Y-90695295D02*
X118666666Y-90838152D01*
X118666666Y-90838152D02*
X118619047Y-90933390D01*
X118619047Y-90933390D02*
X118571428Y-90981009D01*
X118571428Y-90981009D02*
X118476190Y-91028628D01*
X118476190Y-91028628D02*
X118095238Y-91028628D01*
X119095238Y-90981009D02*
X119428571Y-90981009D01*
X119571428Y-91504819D02*
X119095238Y-91504819D01*
X119095238Y-91504819D02*
X119095238Y-90504819D01*
X119095238Y-90504819D02*
X119571428Y-90504819D01*
X120333333Y-90981009D02*
X120000000Y-90981009D01*
X120000000Y-91504819D02*
X120000000Y-90504819D01*
X120000000Y-90504819D02*
X120476190Y-90504819D01*
X121000000Y-90504819D02*
X121000000Y-90742914D01*
X120761905Y-90647676D02*
X121000000Y-90742914D01*
X121000000Y-90742914D02*
X121238095Y-90647676D01*
X120857143Y-90933390D02*
X121000000Y-90742914D01*
X121000000Y-90742914D02*
X121142857Y-90933390D01*
X121761905Y-90504819D02*
X121761905Y-90742914D01*
X121523810Y-90647676D02*
X121761905Y-90742914D01*
X121761905Y-90742914D02*
X122000000Y-90647676D01*
X121619048Y-90933390D02*
X121761905Y-90742914D01*
X121761905Y-90742914D02*
X121904762Y-90933390D01*
X83859580Y-84416666D02*
X83907200Y-84464285D01*
X83907200Y-84464285D02*
X83954819Y-84607142D01*
X83954819Y-84607142D02*
X83954819Y-84702380D01*
X83954819Y-84702380D02*
X83907200Y-84845237D01*
X83907200Y-84845237D02*
X83811961Y-84940475D01*
X83811961Y-84940475D02*
X83716723Y-84988094D01*
X83716723Y-84988094D02*
X83526247Y-85035713D01*
X83526247Y-85035713D02*
X83383390Y-85035713D01*
X83383390Y-85035713D02*
X83192914Y-84988094D01*
X83192914Y-84988094D02*
X83097676Y-84940475D01*
X83097676Y-84940475D02*
X83002438Y-84845237D01*
X83002438Y-84845237D02*
X82954819Y-84702380D01*
X82954819Y-84702380D02*
X82954819Y-84607142D01*
X82954819Y-84607142D02*
X83002438Y-84464285D01*
X83002438Y-84464285D02*
X83050057Y-84416666D01*
X83050057Y-84035713D02*
X83002438Y-83988094D01*
X83002438Y-83988094D02*
X82954819Y-83892856D01*
X82954819Y-83892856D02*
X82954819Y-83654761D01*
X82954819Y-83654761D02*
X83002438Y-83559523D01*
X83002438Y-83559523D02*
X83050057Y-83511904D01*
X83050057Y-83511904D02*
X83145295Y-83464285D01*
X83145295Y-83464285D02*
X83240533Y-83464285D01*
X83240533Y-83464285D02*
X83383390Y-83511904D01*
X83383390Y-83511904D02*
X83954819Y-84083332D01*
X83954819Y-84083332D02*
X83954819Y-83464285D01*
X76824819Y-84666666D02*
X76348628Y-84999999D01*
X76824819Y-85238094D02*
X75824819Y-85238094D01*
X75824819Y-85238094D02*
X75824819Y-84857142D01*
X75824819Y-84857142D02*
X75872438Y-84761904D01*
X75872438Y-84761904D02*
X75920057Y-84714285D01*
X75920057Y-84714285D02*
X76015295Y-84666666D01*
X76015295Y-84666666D02*
X76158152Y-84666666D01*
X76158152Y-84666666D02*
X76253390Y-84714285D01*
X76253390Y-84714285D02*
X76301009Y-84761904D01*
X76301009Y-84761904D02*
X76348628Y-84857142D01*
X76348628Y-84857142D02*
X76348628Y-85238094D01*
X76824819Y-83714285D02*
X76824819Y-84285713D01*
X76824819Y-83999999D02*
X75824819Y-83999999D01*
X75824819Y-83999999D02*
X75967676Y-84095237D01*
X75967676Y-84095237D02*
X76062914Y-84190475D01*
X76062914Y-84190475D02*
X76110533Y-84285713D01*
X73154819Y-54116904D02*
X73964342Y-54116904D01*
X73964342Y-54116904D02*
X74059580Y-54069285D01*
X74059580Y-54069285D02*
X74107200Y-54021666D01*
X74107200Y-54021666D02*
X74154819Y-53926428D01*
X74154819Y-53926428D02*
X74154819Y-53735952D01*
X74154819Y-53735952D02*
X74107200Y-53640714D01*
X74107200Y-53640714D02*
X74059580Y-53593095D01*
X74059580Y-53593095D02*
X73964342Y-53545476D01*
X73964342Y-53545476D02*
X73154819Y-53545476D01*
X73250057Y-53116904D02*
X73202438Y-53069285D01*
X73202438Y-53069285D02*
X73154819Y-52974047D01*
X73154819Y-52974047D02*
X73154819Y-52735952D01*
X73154819Y-52735952D02*
X73202438Y-52640714D01*
X73202438Y-52640714D02*
X73250057Y-52593095D01*
X73250057Y-52593095D02*
X73345295Y-52545476D01*
X73345295Y-52545476D02*
X73440533Y-52545476D01*
X73440533Y-52545476D02*
X73583390Y-52593095D01*
X73583390Y-52593095D02*
X74154819Y-53164523D01*
X74154819Y-53164523D02*
X74154819Y-52545476D01*
D11*
X65749528Y-35587393D02*
X65068575Y-35587393D01*
X65068575Y-35587393D02*
X65435242Y-35206441D01*
X65435242Y-35206441D02*
X65278099Y-35206441D01*
X65278099Y-35206441D02*
X65173337Y-35158822D01*
X65173337Y-35158822D02*
X65120956Y-35111203D01*
X65120956Y-35111203D02*
X65068575Y-35015965D01*
X65068575Y-35015965D02*
X65068575Y-34777870D01*
X65068575Y-34777870D02*
X65120956Y-34682632D01*
X65120956Y-34682632D02*
X65173337Y-34635013D01*
X65173337Y-34635013D02*
X65278099Y-34587393D01*
X65278099Y-34587393D02*
X65592385Y-34587393D01*
X65592385Y-34587393D02*
X65697147Y-34635013D01*
X65697147Y-34635013D02*
X65749528Y-34682632D01*
X64597147Y-34682632D02*
X64544766Y-34635013D01*
X64544766Y-34635013D02*
X64597147Y-34587393D01*
X64597147Y-34587393D02*
X64649528Y-34635013D01*
X64649528Y-34635013D02*
X64597147Y-34682632D01*
X64597147Y-34682632D02*
X64597147Y-34587393D01*
X64178099Y-35587393D02*
X63497146Y-35587393D01*
X63497146Y-35587393D02*
X63863813Y-35206441D01*
X63863813Y-35206441D02*
X63706670Y-35206441D01*
X63706670Y-35206441D02*
X63601908Y-35158822D01*
X63601908Y-35158822D02*
X63549527Y-35111203D01*
X63549527Y-35111203D02*
X63497146Y-35015965D01*
X63497146Y-35015965D02*
X63497146Y-34777870D01*
X63497146Y-34777870D02*
X63549527Y-34682632D01*
X63549527Y-34682632D02*
X63601908Y-34635013D01*
X63601908Y-34635013D02*
X63706670Y-34587393D01*
X63706670Y-34587393D02*
X64020956Y-34587393D01*
X64020956Y-34587393D02*
X64125718Y-34635013D01*
X64125718Y-34635013D02*
X64178099Y-34682632D01*
X63130480Y-35254060D02*
X62868575Y-34587393D01*
X62868575Y-34587393D02*
X62606670Y-35254060D01*
X65068575Y-38039774D02*
X65173337Y-38087393D01*
X65173337Y-38087393D02*
X65330480Y-38087393D01*
X65330480Y-38087393D02*
X65487623Y-38039774D01*
X65487623Y-38039774D02*
X65592385Y-37944536D01*
X65592385Y-37944536D02*
X65644766Y-37849298D01*
X65644766Y-37849298D02*
X65697147Y-37658822D01*
X65697147Y-37658822D02*
X65697147Y-37515965D01*
X65697147Y-37515965D02*
X65644766Y-37325489D01*
X65644766Y-37325489D02*
X65592385Y-37230251D01*
X65592385Y-37230251D02*
X65487623Y-37135013D01*
X65487623Y-37135013D02*
X65330480Y-37087393D01*
X65330480Y-37087393D02*
X65225718Y-37087393D01*
X65225718Y-37087393D02*
X65068575Y-37135013D01*
X65068575Y-37135013D02*
X65016194Y-37182632D01*
X65016194Y-37182632D02*
X65016194Y-37515965D01*
X65016194Y-37515965D02*
X65225718Y-37515965D01*
X64544766Y-37087393D02*
X64544766Y-38087393D01*
X64544766Y-38087393D02*
X63916194Y-37087393D01*
X63916194Y-37087393D02*
X63916194Y-38087393D01*
X63392385Y-37087393D02*
X63392385Y-38087393D01*
X63392385Y-38087393D02*
X63130480Y-38087393D01*
X63130480Y-38087393D02*
X62973337Y-38039774D01*
X62973337Y-38039774D02*
X62868575Y-37944536D01*
X62868575Y-37944536D02*
X62816194Y-37849298D01*
X62816194Y-37849298D02*
X62763813Y-37658822D01*
X62763813Y-37658822D02*
X62763813Y-37515965D01*
X62763813Y-37515965D02*
X62816194Y-37325489D01*
X62816194Y-37325489D02*
X62868575Y-37230251D01*
X62868575Y-37230251D02*
X62973337Y-37135013D01*
X62973337Y-37135013D02*
X63130480Y-37087393D01*
X63130480Y-37087393D02*
X63392385Y-37087393D01*
X66568575Y-43039774D02*
X66673337Y-43087393D01*
X66673337Y-43087393D02*
X66830480Y-43087393D01*
X66830480Y-43087393D02*
X66987623Y-43039774D01*
X66987623Y-43039774D02*
X67092385Y-42944536D01*
X67092385Y-42944536D02*
X67144766Y-42849298D01*
X67144766Y-42849298D02*
X67197147Y-42658822D01*
X67197147Y-42658822D02*
X67197147Y-42515965D01*
X67197147Y-42515965D02*
X67144766Y-42325489D01*
X67144766Y-42325489D02*
X67092385Y-42230251D01*
X67092385Y-42230251D02*
X66987623Y-42135013D01*
X66987623Y-42135013D02*
X66830480Y-42087393D01*
X66830480Y-42087393D02*
X66725718Y-42087393D01*
X66725718Y-42087393D02*
X66568575Y-42135013D01*
X66568575Y-42135013D02*
X66516194Y-42182632D01*
X66516194Y-42182632D02*
X66516194Y-42515965D01*
X66516194Y-42515965D02*
X66725718Y-42515965D01*
X66044766Y-42087393D02*
X66044766Y-43087393D01*
X66044766Y-43087393D02*
X65625718Y-43087393D01*
X65625718Y-43087393D02*
X65520956Y-43039774D01*
X65520956Y-43039774D02*
X65468575Y-42992155D01*
X65468575Y-42992155D02*
X65416194Y-42896917D01*
X65416194Y-42896917D02*
X65416194Y-42754060D01*
X65416194Y-42754060D02*
X65468575Y-42658822D01*
X65468575Y-42658822D02*
X65520956Y-42611203D01*
X65520956Y-42611203D02*
X65625718Y-42563584D01*
X65625718Y-42563584D02*
X66044766Y-42563584D01*
X64944766Y-42087393D02*
X64944766Y-43087393D01*
X64211432Y-43087393D02*
X64001908Y-43087393D01*
X64001908Y-43087393D02*
X63897146Y-43039774D01*
X63897146Y-43039774D02*
X63792384Y-42944536D01*
X63792384Y-42944536D02*
X63740003Y-42754060D01*
X63740003Y-42754060D02*
X63740003Y-42420727D01*
X63740003Y-42420727D02*
X63792384Y-42230251D01*
X63792384Y-42230251D02*
X63897146Y-42135013D01*
X63897146Y-42135013D02*
X64001908Y-42087393D01*
X64001908Y-42087393D02*
X64211432Y-42087393D01*
X64211432Y-42087393D02*
X64316194Y-42135013D01*
X64316194Y-42135013D02*
X64420956Y-42230251D01*
X64420956Y-42230251D02*
X64473337Y-42420727D01*
X64473337Y-42420727D02*
X64473337Y-42754060D01*
X64473337Y-42754060D02*
X64420956Y-42944536D01*
X64420956Y-42944536D02*
X64316194Y-43039774D01*
X64316194Y-43039774D02*
X64211432Y-43087393D01*
X63320956Y-42992155D02*
X63268575Y-43039774D01*
X63268575Y-43039774D02*
X63163813Y-43087393D01*
X63163813Y-43087393D02*
X62901908Y-43087393D01*
X62901908Y-43087393D02*
X62797146Y-43039774D01*
X62797146Y-43039774D02*
X62744765Y-42992155D01*
X62744765Y-42992155D02*
X62692384Y-42896917D01*
X62692384Y-42896917D02*
X62692384Y-42801679D01*
X62692384Y-42801679D02*
X62744765Y-42658822D01*
X62744765Y-42658822D02*
X63373337Y-42087393D01*
X63373337Y-42087393D02*
X62692384Y-42087393D01*
X66568575Y-45539774D02*
X66673337Y-45587393D01*
X66673337Y-45587393D02*
X66830480Y-45587393D01*
X66830480Y-45587393D02*
X66987623Y-45539774D01*
X66987623Y-45539774D02*
X67092385Y-45444536D01*
X67092385Y-45444536D02*
X67144766Y-45349298D01*
X67144766Y-45349298D02*
X67197147Y-45158822D01*
X67197147Y-45158822D02*
X67197147Y-45015965D01*
X67197147Y-45015965D02*
X67144766Y-44825489D01*
X67144766Y-44825489D02*
X67092385Y-44730251D01*
X67092385Y-44730251D02*
X66987623Y-44635013D01*
X66987623Y-44635013D02*
X66830480Y-44587393D01*
X66830480Y-44587393D02*
X66725718Y-44587393D01*
X66725718Y-44587393D02*
X66568575Y-44635013D01*
X66568575Y-44635013D02*
X66516194Y-44682632D01*
X66516194Y-44682632D02*
X66516194Y-45015965D01*
X66516194Y-45015965D02*
X66725718Y-45015965D01*
X66044766Y-44587393D02*
X66044766Y-45587393D01*
X66044766Y-45587393D02*
X65625718Y-45587393D01*
X65625718Y-45587393D02*
X65520956Y-45539774D01*
X65520956Y-45539774D02*
X65468575Y-45492155D01*
X65468575Y-45492155D02*
X65416194Y-45396917D01*
X65416194Y-45396917D02*
X65416194Y-45254060D01*
X65416194Y-45254060D02*
X65468575Y-45158822D01*
X65468575Y-45158822D02*
X65520956Y-45111203D01*
X65520956Y-45111203D02*
X65625718Y-45063584D01*
X65625718Y-45063584D02*
X66044766Y-45063584D01*
X64944766Y-44587393D02*
X64944766Y-45587393D01*
X64211432Y-45587393D02*
X64001908Y-45587393D01*
X64001908Y-45587393D02*
X63897146Y-45539774D01*
X63897146Y-45539774D02*
X63792384Y-45444536D01*
X63792384Y-45444536D02*
X63740003Y-45254060D01*
X63740003Y-45254060D02*
X63740003Y-44920727D01*
X63740003Y-44920727D02*
X63792384Y-44730251D01*
X63792384Y-44730251D02*
X63897146Y-44635013D01*
X63897146Y-44635013D02*
X64001908Y-44587393D01*
X64001908Y-44587393D02*
X64211432Y-44587393D01*
X64211432Y-44587393D02*
X64316194Y-44635013D01*
X64316194Y-44635013D02*
X64420956Y-44730251D01*
X64420956Y-44730251D02*
X64473337Y-44920727D01*
X64473337Y-44920727D02*
X64473337Y-45254060D01*
X64473337Y-45254060D02*
X64420956Y-45444536D01*
X64420956Y-45444536D02*
X64316194Y-45539774D01*
X64316194Y-45539774D02*
X64211432Y-45587393D01*
X62797146Y-45254060D02*
X62797146Y-44587393D01*
X63059051Y-45635013D02*
X63320956Y-44920727D01*
X63320956Y-44920727D02*
X62640003Y-44920727D01*
X66568575Y-53039774D02*
X66673337Y-53087393D01*
X66673337Y-53087393D02*
X66830480Y-53087393D01*
X66830480Y-53087393D02*
X66987623Y-53039774D01*
X66987623Y-53039774D02*
X67092385Y-52944536D01*
X67092385Y-52944536D02*
X67144766Y-52849298D01*
X67144766Y-52849298D02*
X67197147Y-52658822D01*
X67197147Y-52658822D02*
X67197147Y-52515965D01*
X67197147Y-52515965D02*
X67144766Y-52325489D01*
X67144766Y-52325489D02*
X67092385Y-52230251D01*
X67092385Y-52230251D02*
X66987623Y-52135013D01*
X66987623Y-52135013D02*
X66830480Y-52087393D01*
X66830480Y-52087393D02*
X66725718Y-52087393D01*
X66725718Y-52087393D02*
X66568575Y-52135013D01*
X66568575Y-52135013D02*
X66516194Y-52182632D01*
X66516194Y-52182632D02*
X66516194Y-52515965D01*
X66516194Y-52515965D02*
X66725718Y-52515965D01*
X66044766Y-52087393D02*
X66044766Y-53087393D01*
X66044766Y-53087393D02*
X65625718Y-53087393D01*
X65625718Y-53087393D02*
X65520956Y-53039774D01*
X65520956Y-53039774D02*
X65468575Y-52992155D01*
X65468575Y-52992155D02*
X65416194Y-52896917D01*
X65416194Y-52896917D02*
X65416194Y-52754060D01*
X65416194Y-52754060D02*
X65468575Y-52658822D01*
X65468575Y-52658822D02*
X65520956Y-52611203D01*
X65520956Y-52611203D02*
X65625718Y-52563584D01*
X65625718Y-52563584D02*
X66044766Y-52563584D01*
X64944766Y-52087393D02*
X64944766Y-53087393D01*
X64211432Y-53087393D02*
X64001908Y-53087393D01*
X64001908Y-53087393D02*
X63897146Y-53039774D01*
X63897146Y-53039774D02*
X63792384Y-52944536D01*
X63792384Y-52944536D02*
X63740003Y-52754060D01*
X63740003Y-52754060D02*
X63740003Y-52420727D01*
X63740003Y-52420727D02*
X63792384Y-52230251D01*
X63792384Y-52230251D02*
X63897146Y-52135013D01*
X63897146Y-52135013D02*
X64001908Y-52087393D01*
X64001908Y-52087393D02*
X64211432Y-52087393D01*
X64211432Y-52087393D02*
X64316194Y-52135013D01*
X64316194Y-52135013D02*
X64420956Y-52230251D01*
X64420956Y-52230251D02*
X64473337Y-52420727D01*
X64473337Y-52420727D02*
X64473337Y-52754060D01*
X64473337Y-52754060D02*
X64420956Y-52944536D01*
X64420956Y-52944536D02*
X64316194Y-53039774D01*
X64316194Y-53039774D02*
X64211432Y-53087393D01*
X62744765Y-53087393D02*
X63268575Y-53087393D01*
X63268575Y-53087393D02*
X63320956Y-52611203D01*
X63320956Y-52611203D02*
X63268575Y-52658822D01*
X63268575Y-52658822D02*
X63163813Y-52706441D01*
X63163813Y-52706441D02*
X62901908Y-52706441D01*
X62901908Y-52706441D02*
X62797146Y-52658822D01*
X62797146Y-52658822D02*
X62744765Y-52611203D01*
X62744765Y-52611203D02*
X62692384Y-52515965D01*
X62692384Y-52515965D02*
X62692384Y-52277870D01*
X62692384Y-52277870D02*
X62744765Y-52182632D01*
X62744765Y-52182632D02*
X62797146Y-52135013D01*
X62797146Y-52135013D02*
X62901908Y-52087393D01*
X62901908Y-52087393D02*
X63163813Y-52087393D01*
X63163813Y-52087393D02*
X63268575Y-52135013D01*
X63268575Y-52135013D02*
X63320956Y-52182632D01*
X66568575Y-63039774D02*
X66673337Y-63087393D01*
X66673337Y-63087393D02*
X66830480Y-63087393D01*
X66830480Y-63087393D02*
X66987623Y-63039774D01*
X66987623Y-63039774D02*
X67092385Y-62944536D01*
X67092385Y-62944536D02*
X67144766Y-62849298D01*
X67144766Y-62849298D02*
X67197147Y-62658822D01*
X67197147Y-62658822D02*
X67197147Y-62515965D01*
X67197147Y-62515965D02*
X67144766Y-62325489D01*
X67144766Y-62325489D02*
X67092385Y-62230251D01*
X67092385Y-62230251D02*
X66987623Y-62135013D01*
X66987623Y-62135013D02*
X66830480Y-62087393D01*
X66830480Y-62087393D02*
X66725718Y-62087393D01*
X66725718Y-62087393D02*
X66568575Y-62135013D01*
X66568575Y-62135013D02*
X66516194Y-62182632D01*
X66516194Y-62182632D02*
X66516194Y-62515965D01*
X66516194Y-62515965D02*
X66725718Y-62515965D01*
X66044766Y-62087393D02*
X66044766Y-63087393D01*
X66044766Y-63087393D02*
X65625718Y-63087393D01*
X65625718Y-63087393D02*
X65520956Y-63039774D01*
X65520956Y-63039774D02*
X65468575Y-62992155D01*
X65468575Y-62992155D02*
X65416194Y-62896917D01*
X65416194Y-62896917D02*
X65416194Y-62754060D01*
X65416194Y-62754060D02*
X65468575Y-62658822D01*
X65468575Y-62658822D02*
X65520956Y-62611203D01*
X65520956Y-62611203D02*
X65625718Y-62563584D01*
X65625718Y-62563584D02*
X66044766Y-62563584D01*
X64944766Y-62087393D02*
X64944766Y-63087393D01*
X64211432Y-63087393D02*
X64001908Y-63087393D01*
X64001908Y-63087393D02*
X63897146Y-63039774D01*
X63897146Y-63039774D02*
X63792384Y-62944536D01*
X63792384Y-62944536D02*
X63740003Y-62754060D01*
X63740003Y-62754060D02*
X63740003Y-62420727D01*
X63740003Y-62420727D02*
X63792384Y-62230251D01*
X63792384Y-62230251D02*
X63897146Y-62135013D01*
X63897146Y-62135013D02*
X64001908Y-62087393D01*
X64001908Y-62087393D02*
X64211432Y-62087393D01*
X64211432Y-62087393D02*
X64316194Y-62135013D01*
X64316194Y-62135013D02*
X64420956Y-62230251D01*
X64420956Y-62230251D02*
X64473337Y-62420727D01*
X64473337Y-62420727D02*
X64473337Y-62754060D01*
X64473337Y-62754060D02*
X64420956Y-62944536D01*
X64420956Y-62944536D02*
X64316194Y-63039774D01*
X64316194Y-63039774D02*
X64211432Y-63087393D01*
X63373337Y-63087393D02*
X62692384Y-63087393D01*
X62692384Y-63087393D02*
X63059051Y-62706441D01*
X63059051Y-62706441D02*
X62901908Y-62706441D01*
X62901908Y-62706441D02*
X62797146Y-62658822D01*
X62797146Y-62658822D02*
X62744765Y-62611203D01*
X62744765Y-62611203D02*
X62692384Y-62515965D01*
X62692384Y-62515965D02*
X62692384Y-62277870D01*
X62692384Y-62277870D02*
X62744765Y-62182632D01*
X62744765Y-62182632D02*
X62797146Y-62135013D01*
X62797146Y-62135013D02*
X62901908Y-62087393D01*
X62901908Y-62087393D02*
X63216194Y-62087393D01*
X63216194Y-62087393D02*
X63320956Y-62135013D01*
X63320956Y-62135013D02*
X63373337Y-62182632D01*
X66568575Y-66039774D02*
X66673337Y-66087393D01*
X66673337Y-66087393D02*
X66830480Y-66087393D01*
X66830480Y-66087393D02*
X66987623Y-66039774D01*
X66987623Y-66039774D02*
X67092385Y-65944536D01*
X67092385Y-65944536D02*
X67144766Y-65849298D01*
X67144766Y-65849298D02*
X67197147Y-65658822D01*
X67197147Y-65658822D02*
X67197147Y-65515965D01*
X67197147Y-65515965D02*
X67144766Y-65325489D01*
X67144766Y-65325489D02*
X67092385Y-65230251D01*
X67092385Y-65230251D02*
X66987623Y-65135013D01*
X66987623Y-65135013D02*
X66830480Y-65087393D01*
X66830480Y-65087393D02*
X66725718Y-65087393D01*
X66725718Y-65087393D02*
X66568575Y-65135013D01*
X66568575Y-65135013D02*
X66516194Y-65182632D01*
X66516194Y-65182632D02*
X66516194Y-65515965D01*
X66516194Y-65515965D02*
X66725718Y-65515965D01*
X66044766Y-65087393D02*
X66044766Y-66087393D01*
X66044766Y-66087393D02*
X65625718Y-66087393D01*
X65625718Y-66087393D02*
X65520956Y-66039774D01*
X65520956Y-66039774D02*
X65468575Y-65992155D01*
X65468575Y-65992155D02*
X65416194Y-65896917D01*
X65416194Y-65896917D02*
X65416194Y-65754060D01*
X65416194Y-65754060D02*
X65468575Y-65658822D01*
X65468575Y-65658822D02*
X65520956Y-65611203D01*
X65520956Y-65611203D02*
X65625718Y-65563584D01*
X65625718Y-65563584D02*
X66044766Y-65563584D01*
X64944766Y-65087393D02*
X64944766Y-66087393D01*
X64211432Y-66087393D02*
X64001908Y-66087393D01*
X64001908Y-66087393D02*
X63897146Y-66039774D01*
X63897146Y-66039774D02*
X63792384Y-65944536D01*
X63792384Y-65944536D02*
X63740003Y-65754060D01*
X63740003Y-65754060D02*
X63740003Y-65420727D01*
X63740003Y-65420727D02*
X63792384Y-65230251D01*
X63792384Y-65230251D02*
X63897146Y-65135013D01*
X63897146Y-65135013D02*
X64001908Y-65087393D01*
X64001908Y-65087393D02*
X64211432Y-65087393D01*
X64211432Y-65087393D02*
X64316194Y-65135013D01*
X64316194Y-65135013D02*
X64420956Y-65230251D01*
X64420956Y-65230251D02*
X64473337Y-65420727D01*
X64473337Y-65420727D02*
X64473337Y-65754060D01*
X64473337Y-65754060D02*
X64420956Y-65944536D01*
X64420956Y-65944536D02*
X64316194Y-66039774D01*
X64316194Y-66039774D02*
X64211432Y-66087393D01*
X62692384Y-65087393D02*
X63320956Y-65087393D01*
X63006670Y-65087393D02*
X63006670Y-66087393D01*
X63006670Y-66087393D02*
X63111432Y-65944536D01*
X63111432Y-65944536D02*
X63216194Y-65849298D01*
X63216194Y-65849298D02*
X63320956Y-65801679D01*
X67568575Y-40539774D02*
X67673337Y-40587393D01*
X67673337Y-40587393D02*
X67830480Y-40587393D01*
X67830480Y-40587393D02*
X67987623Y-40539774D01*
X67987623Y-40539774D02*
X68092385Y-40444536D01*
X68092385Y-40444536D02*
X68144766Y-40349298D01*
X68144766Y-40349298D02*
X68197147Y-40158822D01*
X68197147Y-40158822D02*
X68197147Y-40015965D01*
X68197147Y-40015965D02*
X68144766Y-39825489D01*
X68144766Y-39825489D02*
X68092385Y-39730251D01*
X68092385Y-39730251D02*
X67987623Y-39635013D01*
X67987623Y-39635013D02*
X67830480Y-39587393D01*
X67830480Y-39587393D02*
X67725718Y-39587393D01*
X67725718Y-39587393D02*
X67568575Y-39635013D01*
X67568575Y-39635013D02*
X67516194Y-39682632D01*
X67516194Y-39682632D02*
X67516194Y-40015965D01*
X67516194Y-40015965D02*
X67725718Y-40015965D01*
X67044766Y-39587393D02*
X67044766Y-40587393D01*
X67044766Y-40587393D02*
X66625718Y-40587393D01*
X66625718Y-40587393D02*
X66520956Y-40539774D01*
X66520956Y-40539774D02*
X66468575Y-40492155D01*
X66468575Y-40492155D02*
X66416194Y-40396917D01*
X66416194Y-40396917D02*
X66416194Y-40254060D01*
X66416194Y-40254060D02*
X66468575Y-40158822D01*
X66468575Y-40158822D02*
X66520956Y-40111203D01*
X66520956Y-40111203D02*
X66625718Y-40063584D01*
X66625718Y-40063584D02*
X67044766Y-40063584D01*
X65944766Y-39587393D02*
X65944766Y-40587393D01*
X65211432Y-40587393D02*
X65001908Y-40587393D01*
X65001908Y-40587393D02*
X64897146Y-40539774D01*
X64897146Y-40539774D02*
X64792384Y-40444536D01*
X64792384Y-40444536D02*
X64740003Y-40254060D01*
X64740003Y-40254060D02*
X64740003Y-39920727D01*
X64740003Y-39920727D02*
X64792384Y-39730251D01*
X64792384Y-39730251D02*
X64897146Y-39635013D01*
X64897146Y-39635013D02*
X65001908Y-39587393D01*
X65001908Y-39587393D02*
X65211432Y-39587393D01*
X65211432Y-39587393D02*
X65316194Y-39635013D01*
X65316194Y-39635013D02*
X65420956Y-39730251D01*
X65420956Y-39730251D02*
X65473337Y-39920727D01*
X65473337Y-39920727D02*
X65473337Y-40254060D01*
X65473337Y-40254060D02*
X65420956Y-40444536D01*
X65420956Y-40444536D02*
X65316194Y-40539774D01*
X65316194Y-40539774D02*
X65211432Y-40587393D01*
X63692384Y-39587393D02*
X64320956Y-39587393D01*
X64006670Y-39587393D02*
X64006670Y-40587393D01*
X64006670Y-40587393D02*
X64111432Y-40444536D01*
X64111432Y-40444536D02*
X64216194Y-40349298D01*
X64216194Y-40349298D02*
X64320956Y-40301679D01*
X62697146Y-40587393D02*
X63220956Y-40587393D01*
X63220956Y-40587393D02*
X63273337Y-40111203D01*
X63273337Y-40111203D02*
X63220956Y-40158822D01*
X63220956Y-40158822D02*
X63116194Y-40206441D01*
X63116194Y-40206441D02*
X62854289Y-40206441D01*
X62854289Y-40206441D02*
X62749527Y-40158822D01*
X62749527Y-40158822D02*
X62697146Y-40111203D01*
X62697146Y-40111203D02*
X62644765Y-40015965D01*
X62644765Y-40015965D02*
X62644765Y-39777870D01*
X62644765Y-39777870D02*
X62697146Y-39682632D01*
X62697146Y-39682632D02*
X62749527Y-39635013D01*
X62749527Y-39635013D02*
X62854289Y-39587393D01*
X62854289Y-39587393D02*
X63116194Y-39587393D01*
X63116194Y-39587393D02*
X63220956Y-39635013D01*
X63220956Y-39635013D02*
X63273337Y-39682632D01*
X67568575Y-48039774D02*
X67673337Y-48087393D01*
X67673337Y-48087393D02*
X67830480Y-48087393D01*
X67830480Y-48087393D02*
X67987623Y-48039774D01*
X67987623Y-48039774D02*
X68092385Y-47944536D01*
X68092385Y-47944536D02*
X68144766Y-47849298D01*
X68144766Y-47849298D02*
X68197147Y-47658822D01*
X68197147Y-47658822D02*
X68197147Y-47515965D01*
X68197147Y-47515965D02*
X68144766Y-47325489D01*
X68144766Y-47325489D02*
X68092385Y-47230251D01*
X68092385Y-47230251D02*
X67987623Y-47135013D01*
X67987623Y-47135013D02*
X67830480Y-47087393D01*
X67830480Y-47087393D02*
X67725718Y-47087393D01*
X67725718Y-47087393D02*
X67568575Y-47135013D01*
X67568575Y-47135013D02*
X67516194Y-47182632D01*
X67516194Y-47182632D02*
X67516194Y-47515965D01*
X67516194Y-47515965D02*
X67725718Y-47515965D01*
X67044766Y-47087393D02*
X67044766Y-48087393D01*
X67044766Y-48087393D02*
X66625718Y-48087393D01*
X66625718Y-48087393D02*
X66520956Y-48039774D01*
X66520956Y-48039774D02*
X66468575Y-47992155D01*
X66468575Y-47992155D02*
X66416194Y-47896917D01*
X66416194Y-47896917D02*
X66416194Y-47754060D01*
X66416194Y-47754060D02*
X66468575Y-47658822D01*
X66468575Y-47658822D02*
X66520956Y-47611203D01*
X66520956Y-47611203D02*
X66625718Y-47563584D01*
X66625718Y-47563584D02*
X67044766Y-47563584D01*
X65944766Y-47087393D02*
X65944766Y-48087393D01*
X65211432Y-48087393D02*
X65001908Y-48087393D01*
X65001908Y-48087393D02*
X64897146Y-48039774D01*
X64897146Y-48039774D02*
X64792384Y-47944536D01*
X64792384Y-47944536D02*
X64740003Y-47754060D01*
X64740003Y-47754060D02*
X64740003Y-47420727D01*
X64740003Y-47420727D02*
X64792384Y-47230251D01*
X64792384Y-47230251D02*
X64897146Y-47135013D01*
X64897146Y-47135013D02*
X65001908Y-47087393D01*
X65001908Y-47087393D02*
X65211432Y-47087393D01*
X65211432Y-47087393D02*
X65316194Y-47135013D01*
X65316194Y-47135013D02*
X65420956Y-47230251D01*
X65420956Y-47230251D02*
X65473337Y-47420727D01*
X65473337Y-47420727D02*
X65473337Y-47754060D01*
X65473337Y-47754060D02*
X65420956Y-47944536D01*
X65420956Y-47944536D02*
X65316194Y-48039774D01*
X65316194Y-48039774D02*
X65211432Y-48087393D01*
X63692384Y-47087393D02*
X64320956Y-47087393D01*
X64006670Y-47087393D02*
X64006670Y-48087393D01*
X64006670Y-48087393D02*
X64111432Y-47944536D01*
X64111432Y-47944536D02*
X64216194Y-47849298D01*
X64216194Y-47849298D02*
X64320956Y-47801679D01*
X62749527Y-48087393D02*
X62959051Y-48087393D01*
X62959051Y-48087393D02*
X63063813Y-48039774D01*
X63063813Y-48039774D02*
X63116194Y-47992155D01*
X63116194Y-47992155D02*
X63220956Y-47849298D01*
X63220956Y-47849298D02*
X63273337Y-47658822D01*
X63273337Y-47658822D02*
X63273337Y-47277870D01*
X63273337Y-47277870D02*
X63220956Y-47182632D01*
X63220956Y-47182632D02*
X63168575Y-47135013D01*
X63168575Y-47135013D02*
X63063813Y-47087393D01*
X63063813Y-47087393D02*
X62854289Y-47087393D01*
X62854289Y-47087393D02*
X62749527Y-47135013D01*
X62749527Y-47135013D02*
X62697146Y-47182632D01*
X62697146Y-47182632D02*
X62644765Y-47277870D01*
X62644765Y-47277870D02*
X62644765Y-47515965D01*
X62644765Y-47515965D02*
X62697146Y-47611203D01*
X62697146Y-47611203D02*
X62749527Y-47658822D01*
X62749527Y-47658822D02*
X62854289Y-47706441D01*
X62854289Y-47706441D02*
X63063813Y-47706441D01*
X63063813Y-47706441D02*
X63168575Y-47658822D01*
X63168575Y-47658822D02*
X63220956Y-47611203D01*
X63220956Y-47611203D02*
X63273337Y-47515965D01*
X67568575Y-50539774D02*
X67673337Y-50587393D01*
X67673337Y-50587393D02*
X67830480Y-50587393D01*
X67830480Y-50587393D02*
X67987623Y-50539774D01*
X67987623Y-50539774D02*
X68092385Y-50444536D01*
X68092385Y-50444536D02*
X68144766Y-50349298D01*
X68144766Y-50349298D02*
X68197147Y-50158822D01*
X68197147Y-50158822D02*
X68197147Y-50015965D01*
X68197147Y-50015965D02*
X68144766Y-49825489D01*
X68144766Y-49825489D02*
X68092385Y-49730251D01*
X68092385Y-49730251D02*
X67987623Y-49635013D01*
X67987623Y-49635013D02*
X67830480Y-49587393D01*
X67830480Y-49587393D02*
X67725718Y-49587393D01*
X67725718Y-49587393D02*
X67568575Y-49635013D01*
X67568575Y-49635013D02*
X67516194Y-49682632D01*
X67516194Y-49682632D02*
X67516194Y-50015965D01*
X67516194Y-50015965D02*
X67725718Y-50015965D01*
X67044766Y-49587393D02*
X67044766Y-50587393D01*
X67044766Y-50587393D02*
X66625718Y-50587393D01*
X66625718Y-50587393D02*
X66520956Y-50539774D01*
X66520956Y-50539774D02*
X66468575Y-50492155D01*
X66468575Y-50492155D02*
X66416194Y-50396917D01*
X66416194Y-50396917D02*
X66416194Y-50254060D01*
X66416194Y-50254060D02*
X66468575Y-50158822D01*
X66468575Y-50158822D02*
X66520956Y-50111203D01*
X66520956Y-50111203D02*
X66625718Y-50063584D01*
X66625718Y-50063584D02*
X67044766Y-50063584D01*
X65944766Y-49587393D02*
X65944766Y-50587393D01*
X65211432Y-50587393D02*
X65001908Y-50587393D01*
X65001908Y-50587393D02*
X64897146Y-50539774D01*
X64897146Y-50539774D02*
X64792384Y-50444536D01*
X64792384Y-50444536D02*
X64740003Y-50254060D01*
X64740003Y-50254060D02*
X64740003Y-49920727D01*
X64740003Y-49920727D02*
X64792384Y-49730251D01*
X64792384Y-49730251D02*
X64897146Y-49635013D01*
X64897146Y-49635013D02*
X65001908Y-49587393D01*
X65001908Y-49587393D02*
X65211432Y-49587393D01*
X65211432Y-49587393D02*
X65316194Y-49635013D01*
X65316194Y-49635013D02*
X65420956Y-49730251D01*
X65420956Y-49730251D02*
X65473337Y-49920727D01*
X65473337Y-49920727D02*
X65473337Y-50254060D01*
X65473337Y-50254060D02*
X65420956Y-50444536D01*
X65420956Y-50444536D02*
X65316194Y-50539774D01*
X65316194Y-50539774D02*
X65211432Y-50587393D01*
X63692384Y-49587393D02*
X64320956Y-49587393D01*
X64006670Y-49587393D02*
X64006670Y-50587393D01*
X64006670Y-50587393D02*
X64111432Y-50444536D01*
X64111432Y-50444536D02*
X64216194Y-50349298D01*
X64216194Y-50349298D02*
X64320956Y-50301679D01*
X63325718Y-50587393D02*
X62592384Y-50587393D01*
X62592384Y-50587393D02*
X63063813Y-49587393D01*
X67568575Y-55539774D02*
X67673337Y-55587393D01*
X67673337Y-55587393D02*
X67830480Y-55587393D01*
X67830480Y-55587393D02*
X67987623Y-55539774D01*
X67987623Y-55539774D02*
X68092385Y-55444536D01*
X68092385Y-55444536D02*
X68144766Y-55349298D01*
X68144766Y-55349298D02*
X68197147Y-55158822D01*
X68197147Y-55158822D02*
X68197147Y-55015965D01*
X68197147Y-55015965D02*
X68144766Y-54825489D01*
X68144766Y-54825489D02*
X68092385Y-54730251D01*
X68092385Y-54730251D02*
X67987623Y-54635013D01*
X67987623Y-54635013D02*
X67830480Y-54587393D01*
X67830480Y-54587393D02*
X67725718Y-54587393D01*
X67725718Y-54587393D02*
X67568575Y-54635013D01*
X67568575Y-54635013D02*
X67516194Y-54682632D01*
X67516194Y-54682632D02*
X67516194Y-55015965D01*
X67516194Y-55015965D02*
X67725718Y-55015965D01*
X67044766Y-54587393D02*
X67044766Y-55587393D01*
X67044766Y-55587393D02*
X66625718Y-55587393D01*
X66625718Y-55587393D02*
X66520956Y-55539774D01*
X66520956Y-55539774D02*
X66468575Y-55492155D01*
X66468575Y-55492155D02*
X66416194Y-55396917D01*
X66416194Y-55396917D02*
X66416194Y-55254060D01*
X66416194Y-55254060D02*
X66468575Y-55158822D01*
X66468575Y-55158822D02*
X66520956Y-55111203D01*
X66520956Y-55111203D02*
X66625718Y-55063584D01*
X66625718Y-55063584D02*
X67044766Y-55063584D01*
X65944766Y-54587393D02*
X65944766Y-55587393D01*
X65211432Y-55587393D02*
X65001908Y-55587393D01*
X65001908Y-55587393D02*
X64897146Y-55539774D01*
X64897146Y-55539774D02*
X64792384Y-55444536D01*
X64792384Y-55444536D02*
X64740003Y-55254060D01*
X64740003Y-55254060D02*
X64740003Y-54920727D01*
X64740003Y-54920727D02*
X64792384Y-54730251D01*
X64792384Y-54730251D02*
X64897146Y-54635013D01*
X64897146Y-54635013D02*
X65001908Y-54587393D01*
X65001908Y-54587393D02*
X65211432Y-54587393D01*
X65211432Y-54587393D02*
X65316194Y-54635013D01*
X65316194Y-54635013D02*
X65420956Y-54730251D01*
X65420956Y-54730251D02*
X65473337Y-54920727D01*
X65473337Y-54920727D02*
X65473337Y-55254060D01*
X65473337Y-55254060D02*
X65420956Y-55444536D01*
X65420956Y-55444536D02*
X65316194Y-55539774D01*
X65316194Y-55539774D02*
X65211432Y-55587393D01*
X63692384Y-54587393D02*
X64320956Y-54587393D01*
X64006670Y-54587393D02*
X64006670Y-55587393D01*
X64006670Y-55587393D02*
X64111432Y-55444536D01*
X64111432Y-55444536D02*
X64216194Y-55349298D01*
X64216194Y-55349298D02*
X64320956Y-55301679D01*
X63063813Y-55158822D02*
X63168575Y-55206441D01*
X63168575Y-55206441D02*
X63220956Y-55254060D01*
X63220956Y-55254060D02*
X63273337Y-55349298D01*
X63273337Y-55349298D02*
X63273337Y-55396917D01*
X63273337Y-55396917D02*
X63220956Y-55492155D01*
X63220956Y-55492155D02*
X63168575Y-55539774D01*
X63168575Y-55539774D02*
X63063813Y-55587393D01*
X63063813Y-55587393D02*
X62854289Y-55587393D01*
X62854289Y-55587393D02*
X62749527Y-55539774D01*
X62749527Y-55539774D02*
X62697146Y-55492155D01*
X62697146Y-55492155D02*
X62644765Y-55396917D01*
X62644765Y-55396917D02*
X62644765Y-55349298D01*
X62644765Y-55349298D02*
X62697146Y-55254060D01*
X62697146Y-55254060D02*
X62749527Y-55206441D01*
X62749527Y-55206441D02*
X62854289Y-55158822D01*
X62854289Y-55158822D02*
X63063813Y-55158822D01*
X63063813Y-55158822D02*
X63168575Y-55111203D01*
X63168575Y-55111203D02*
X63220956Y-55063584D01*
X63220956Y-55063584D02*
X63273337Y-54968346D01*
X63273337Y-54968346D02*
X63273337Y-54777870D01*
X63273337Y-54777870D02*
X63220956Y-54682632D01*
X63220956Y-54682632D02*
X63168575Y-54635013D01*
X63168575Y-54635013D02*
X63063813Y-54587393D01*
X63063813Y-54587393D02*
X62854289Y-54587393D01*
X62854289Y-54587393D02*
X62749527Y-54635013D01*
X62749527Y-54635013D02*
X62697146Y-54682632D01*
X62697146Y-54682632D02*
X62644765Y-54777870D01*
X62644765Y-54777870D02*
X62644765Y-54968346D01*
X62644765Y-54968346D02*
X62697146Y-55063584D01*
X62697146Y-55063584D02*
X62749527Y-55111203D01*
X62749527Y-55111203D02*
X62854289Y-55158822D01*
X67568575Y-58039774D02*
X67673337Y-58087393D01*
X67673337Y-58087393D02*
X67830480Y-58087393D01*
X67830480Y-58087393D02*
X67987623Y-58039774D01*
X67987623Y-58039774D02*
X68092385Y-57944536D01*
X68092385Y-57944536D02*
X68144766Y-57849298D01*
X68144766Y-57849298D02*
X68197147Y-57658822D01*
X68197147Y-57658822D02*
X68197147Y-57515965D01*
X68197147Y-57515965D02*
X68144766Y-57325489D01*
X68144766Y-57325489D02*
X68092385Y-57230251D01*
X68092385Y-57230251D02*
X67987623Y-57135013D01*
X67987623Y-57135013D02*
X67830480Y-57087393D01*
X67830480Y-57087393D02*
X67725718Y-57087393D01*
X67725718Y-57087393D02*
X67568575Y-57135013D01*
X67568575Y-57135013D02*
X67516194Y-57182632D01*
X67516194Y-57182632D02*
X67516194Y-57515965D01*
X67516194Y-57515965D02*
X67725718Y-57515965D01*
X67044766Y-57087393D02*
X67044766Y-58087393D01*
X67044766Y-58087393D02*
X66625718Y-58087393D01*
X66625718Y-58087393D02*
X66520956Y-58039774D01*
X66520956Y-58039774D02*
X66468575Y-57992155D01*
X66468575Y-57992155D02*
X66416194Y-57896917D01*
X66416194Y-57896917D02*
X66416194Y-57754060D01*
X66416194Y-57754060D02*
X66468575Y-57658822D01*
X66468575Y-57658822D02*
X66520956Y-57611203D01*
X66520956Y-57611203D02*
X66625718Y-57563584D01*
X66625718Y-57563584D02*
X67044766Y-57563584D01*
X65944766Y-57087393D02*
X65944766Y-58087393D01*
X65211432Y-58087393D02*
X65001908Y-58087393D01*
X65001908Y-58087393D02*
X64897146Y-58039774D01*
X64897146Y-58039774D02*
X64792384Y-57944536D01*
X64792384Y-57944536D02*
X64740003Y-57754060D01*
X64740003Y-57754060D02*
X64740003Y-57420727D01*
X64740003Y-57420727D02*
X64792384Y-57230251D01*
X64792384Y-57230251D02*
X64897146Y-57135013D01*
X64897146Y-57135013D02*
X65001908Y-57087393D01*
X65001908Y-57087393D02*
X65211432Y-57087393D01*
X65211432Y-57087393D02*
X65316194Y-57135013D01*
X65316194Y-57135013D02*
X65420956Y-57230251D01*
X65420956Y-57230251D02*
X65473337Y-57420727D01*
X65473337Y-57420727D02*
X65473337Y-57754060D01*
X65473337Y-57754060D02*
X65420956Y-57944536D01*
X65420956Y-57944536D02*
X65316194Y-58039774D01*
X65316194Y-58039774D02*
X65211432Y-58087393D01*
X63692384Y-57087393D02*
X64320956Y-57087393D01*
X64006670Y-57087393D02*
X64006670Y-58087393D01*
X64006670Y-58087393D02*
X64111432Y-57944536D01*
X64111432Y-57944536D02*
X64216194Y-57849298D01*
X64216194Y-57849298D02*
X64320956Y-57801679D01*
X63168575Y-57087393D02*
X62959051Y-57087393D01*
X62959051Y-57087393D02*
X62854289Y-57135013D01*
X62854289Y-57135013D02*
X62801908Y-57182632D01*
X62801908Y-57182632D02*
X62697146Y-57325489D01*
X62697146Y-57325489D02*
X62644765Y-57515965D01*
X62644765Y-57515965D02*
X62644765Y-57896917D01*
X62644765Y-57896917D02*
X62697146Y-57992155D01*
X62697146Y-57992155D02*
X62749527Y-58039774D01*
X62749527Y-58039774D02*
X62854289Y-58087393D01*
X62854289Y-58087393D02*
X63063813Y-58087393D01*
X63063813Y-58087393D02*
X63168575Y-58039774D01*
X63168575Y-58039774D02*
X63220956Y-57992155D01*
X63220956Y-57992155D02*
X63273337Y-57896917D01*
X63273337Y-57896917D02*
X63273337Y-57658822D01*
X63273337Y-57658822D02*
X63220956Y-57563584D01*
X63220956Y-57563584D02*
X63168575Y-57515965D01*
X63168575Y-57515965D02*
X63063813Y-57468346D01*
X63063813Y-57468346D02*
X62854289Y-57468346D01*
X62854289Y-57468346D02*
X62749527Y-57515965D01*
X62749527Y-57515965D02*
X62697146Y-57563584D01*
X62697146Y-57563584D02*
X62644765Y-57658822D01*
X67568575Y-60539774D02*
X67673337Y-60587393D01*
X67673337Y-60587393D02*
X67830480Y-60587393D01*
X67830480Y-60587393D02*
X67987623Y-60539774D01*
X67987623Y-60539774D02*
X68092385Y-60444536D01*
X68092385Y-60444536D02*
X68144766Y-60349298D01*
X68144766Y-60349298D02*
X68197147Y-60158822D01*
X68197147Y-60158822D02*
X68197147Y-60015965D01*
X68197147Y-60015965D02*
X68144766Y-59825489D01*
X68144766Y-59825489D02*
X68092385Y-59730251D01*
X68092385Y-59730251D02*
X67987623Y-59635013D01*
X67987623Y-59635013D02*
X67830480Y-59587393D01*
X67830480Y-59587393D02*
X67725718Y-59587393D01*
X67725718Y-59587393D02*
X67568575Y-59635013D01*
X67568575Y-59635013D02*
X67516194Y-59682632D01*
X67516194Y-59682632D02*
X67516194Y-60015965D01*
X67516194Y-60015965D02*
X67725718Y-60015965D01*
X67044766Y-59587393D02*
X67044766Y-60587393D01*
X67044766Y-60587393D02*
X66625718Y-60587393D01*
X66625718Y-60587393D02*
X66520956Y-60539774D01*
X66520956Y-60539774D02*
X66468575Y-60492155D01*
X66468575Y-60492155D02*
X66416194Y-60396917D01*
X66416194Y-60396917D02*
X66416194Y-60254060D01*
X66416194Y-60254060D02*
X66468575Y-60158822D01*
X66468575Y-60158822D02*
X66520956Y-60111203D01*
X66520956Y-60111203D02*
X66625718Y-60063584D01*
X66625718Y-60063584D02*
X67044766Y-60063584D01*
X65944766Y-59587393D02*
X65944766Y-60587393D01*
X65211432Y-60587393D02*
X65001908Y-60587393D01*
X65001908Y-60587393D02*
X64897146Y-60539774D01*
X64897146Y-60539774D02*
X64792384Y-60444536D01*
X64792384Y-60444536D02*
X64740003Y-60254060D01*
X64740003Y-60254060D02*
X64740003Y-59920727D01*
X64740003Y-59920727D02*
X64792384Y-59730251D01*
X64792384Y-59730251D02*
X64897146Y-59635013D01*
X64897146Y-59635013D02*
X65001908Y-59587393D01*
X65001908Y-59587393D02*
X65211432Y-59587393D01*
X65211432Y-59587393D02*
X65316194Y-59635013D01*
X65316194Y-59635013D02*
X65420956Y-59730251D01*
X65420956Y-59730251D02*
X65473337Y-59920727D01*
X65473337Y-59920727D02*
X65473337Y-60254060D01*
X65473337Y-60254060D02*
X65420956Y-60444536D01*
X65420956Y-60444536D02*
X65316194Y-60539774D01*
X65316194Y-60539774D02*
X65211432Y-60587393D01*
X64320956Y-60492155D02*
X64268575Y-60539774D01*
X64268575Y-60539774D02*
X64163813Y-60587393D01*
X64163813Y-60587393D02*
X63901908Y-60587393D01*
X63901908Y-60587393D02*
X63797146Y-60539774D01*
X63797146Y-60539774D02*
X63744765Y-60492155D01*
X63744765Y-60492155D02*
X63692384Y-60396917D01*
X63692384Y-60396917D02*
X63692384Y-60301679D01*
X63692384Y-60301679D02*
X63744765Y-60158822D01*
X63744765Y-60158822D02*
X64373337Y-59587393D01*
X64373337Y-59587393D02*
X63692384Y-59587393D01*
X62644765Y-59587393D02*
X63273337Y-59587393D01*
X62959051Y-59587393D02*
X62959051Y-60587393D01*
X62959051Y-60587393D02*
X63063813Y-60444536D01*
X63063813Y-60444536D02*
X63168575Y-60349298D01*
X63168575Y-60349298D02*
X63273337Y-60301679D01*
X67568575Y-68539774D02*
X67673337Y-68587393D01*
X67673337Y-68587393D02*
X67830480Y-68587393D01*
X67830480Y-68587393D02*
X67987623Y-68539774D01*
X67987623Y-68539774D02*
X68092385Y-68444536D01*
X68092385Y-68444536D02*
X68144766Y-68349298D01*
X68144766Y-68349298D02*
X68197147Y-68158822D01*
X68197147Y-68158822D02*
X68197147Y-68015965D01*
X68197147Y-68015965D02*
X68144766Y-67825489D01*
X68144766Y-67825489D02*
X68092385Y-67730251D01*
X68092385Y-67730251D02*
X67987623Y-67635013D01*
X67987623Y-67635013D02*
X67830480Y-67587393D01*
X67830480Y-67587393D02*
X67725718Y-67587393D01*
X67725718Y-67587393D02*
X67568575Y-67635013D01*
X67568575Y-67635013D02*
X67516194Y-67682632D01*
X67516194Y-67682632D02*
X67516194Y-68015965D01*
X67516194Y-68015965D02*
X67725718Y-68015965D01*
X67044766Y-67587393D02*
X67044766Y-68587393D01*
X67044766Y-68587393D02*
X66625718Y-68587393D01*
X66625718Y-68587393D02*
X66520956Y-68539774D01*
X66520956Y-68539774D02*
X66468575Y-68492155D01*
X66468575Y-68492155D02*
X66416194Y-68396917D01*
X66416194Y-68396917D02*
X66416194Y-68254060D01*
X66416194Y-68254060D02*
X66468575Y-68158822D01*
X66468575Y-68158822D02*
X66520956Y-68111203D01*
X66520956Y-68111203D02*
X66625718Y-68063584D01*
X66625718Y-68063584D02*
X67044766Y-68063584D01*
X65944766Y-67587393D02*
X65944766Y-68587393D01*
X65211432Y-68587393D02*
X65001908Y-68587393D01*
X65001908Y-68587393D02*
X64897146Y-68539774D01*
X64897146Y-68539774D02*
X64792384Y-68444536D01*
X64792384Y-68444536D02*
X64740003Y-68254060D01*
X64740003Y-68254060D02*
X64740003Y-67920727D01*
X64740003Y-67920727D02*
X64792384Y-67730251D01*
X64792384Y-67730251D02*
X64897146Y-67635013D01*
X64897146Y-67635013D02*
X65001908Y-67587393D01*
X65001908Y-67587393D02*
X65211432Y-67587393D01*
X65211432Y-67587393D02*
X65316194Y-67635013D01*
X65316194Y-67635013D02*
X65420956Y-67730251D01*
X65420956Y-67730251D02*
X65473337Y-67920727D01*
X65473337Y-67920727D02*
X65473337Y-68254060D01*
X65473337Y-68254060D02*
X65420956Y-68444536D01*
X65420956Y-68444536D02*
X65316194Y-68539774D01*
X65316194Y-68539774D02*
X65211432Y-68587393D01*
X64320956Y-68492155D02*
X64268575Y-68539774D01*
X64268575Y-68539774D02*
X64163813Y-68587393D01*
X64163813Y-68587393D02*
X63901908Y-68587393D01*
X63901908Y-68587393D02*
X63797146Y-68539774D01*
X63797146Y-68539774D02*
X63744765Y-68492155D01*
X63744765Y-68492155D02*
X63692384Y-68396917D01*
X63692384Y-68396917D02*
X63692384Y-68301679D01*
X63692384Y-68301679D02*
X63744765Y-68158822D01*
X63744765Y-68158822D02*
X64373337Y-67587393D01*
X64373337Y-67587393D02*
X63692384Y-67587393D01*
X63273337Y-68492155D02*
X63220956Y-68539774D01*
X63220956Y-68539774D02*
X63116194Y-68587393D01*
X63116194Y-68587393D02*
X62854289Y-68587393D01*
X62854289Y-68587393D02*
X62749527Y-68539774D01*
X62749527Y-68539774D02*
X62697146Y-68492155D01*
X62697146Y-68492155D02*
X62644765Y-68396917D01*
X62644765Y-68396917D02*
X62644765Y-68301679D01*
X62644765Y-68301679D02*
X62697146Y-68158822D01*
X62697146Y-68158822D02*
X63325718Y-67587393D01*
X63325718Y-67587393D02*
X62644765Y-67587393D01*
X67568575Y-71039774D02*
X67673337Y-71087393D01*
X67673337Y-71087393D02*
X67830480Y-71087393D01*
X67830480Y-71087393D02*
X67987623Y-71039774D01*
X67987623Y-71039774D02*
X68092385Y-70944536D01*
X68092385Y-70944536D02*
X68144766Y-70849298D01*
X68144766Y-70849298D02*
X68197147Y-70658822D01*
X68197147Y-70658822D02*
X68197147Y-70515965D01*
X68197147Y-70515965D02*
X68144766Y-70325489D01*
X68144766Y-70325489D02*
X68092385Y-70230251D01*
X68092385Y-70230251D02*
X67987623Y-70135013D01*
X67987623Y-70135013D02*
X67830480Y-70087393D01*
X67830480Y-70087393D02*
X67725718Y-70087393D01*
X67725718Y-70087393D02*
X67568575Y-70135013D01*
X67568575Y-70135013D02*
X67516194Y-70182632D01*
X67516194Y-70182632D02*
X67516194Y-70515965D01*
X67516194Y-70515965D02*
X67725718Y-70515965D01*
X67044766Y-70087393D02*
X67044766Y-71087393D01*
X67044766Y-71087393D02*
X66625718Y-71087393D01*
X66625718Y-71087393D02*
X66520956Y-71039774D01*
X66520956Y-71039774D02*
X66468575Y-70992155D01*
X66468575Y-70992155D02*
X66416194Y-70896917D01*
X66416194Y-70896917D02*
X66416194Y-70754060D01*
X66416194Y-70754060D02*
X66468575Y-70658822D01*
X66468575Y-70658822D02*
X66520956Y-70611203D01*
X66520956Y-70611203D02*
X66625718Y-70563584D01*
X66625718Y-70563584D02*
X67044766Y-70563584D01*
X65944766Y-70087393D02*
X65944766Y-71087393D01*
X65211432Y-71087393D02*
X65001908Y-71087393D01*
X65001908Y-71087393D02*
X64897146Y-71039774D01*
X64897146Y-71039774D02*
X64792384Y-70944536D01*
X64792384Y-70944536D02*
X64740003Y-70754060D01*
X64740003Y-70754060D02*
X64740003Y-70420727D01*
X64740003Y-70420727D02*
X64792384Y-70230251D01*
X64792384Y-70230251D02*
X64897146Y-70135013D01*
X64897146Y-70135013D02*
X65001908Y-70087393D01*
X65001908Y-70087393D02*
X65211432Y-70087393D01*
X65211432Y-70087393D02*
X65316194Y-70135013D01*
X65316194Y-70135013D02*
X65420956Y-70230251D01*
X65420956Y-70230251D02*
X65473337Y-70420727D01*
X65473337Y-70420727D02*
X65473337Y-70754060D01*
X65473337Y-70754060D02*
X65420956Y-70944536D01*
X65420956Y-70944536D02*
X65316194Y-71039774D01*
X65316194Y-71039774D02*
X65211432Y-71087393D01*
X64320956Y-70992155D02*
X64268575Y-71039774D01*
X64268575Y-71039774D02*
X64163813Y-71087393D01*
X64163813Y-71087393D02*
X63901908Y-71087393D01*
X63901908Y-71087393D02*
X63797146Y-71039774D01*
X63797146Y-71039774D02*
X63744765Y-70992155D01*
X63744765Y-70992155D02*
X63692384Y-70896917D01*
X63692384Y-70896917D02*
X63692384Y-70801679D01*
X63692384Y-70801679D02*
X63744765Y-70658822D01*
X63744765Y-70658822D02*
X64373337Y-70087393D01*
X64373337Y-70087393D02*
X63692384Y-70087393D01*
X63325718Y-71087393D02*
X62644765Y-71087393D01*
X62644765Y-71087393D02*
X63011432Y-70706441D01*
X63011432Y-70706441D02*
X62854289Y-70706441D01*
X62854289Y-70706441D02*
X62749527Y-70658822D01*
X62749527Y-70658822D02*
X62697146Y-70611203D01*
X62697146Y-70611203D02*
X62644765Y-70515965D01*
X62644765Y-70515965D02*
X62644765Y-70277870D01*
X62644765Y-70277870D02*
X62697146Y-70182632D01*
X62697146Y-70182632D02*
X62749527Y-70135013D01*
X62749527Y-70135013D02*
X62854289Y-70087393D01*
X62854289Y-70087393D02*
X63168575Y-70087393D01*
X63168575Y-70087393D02*
X63273337Y-70135013D01*
X63273337Y-70135013D02*
X63325718Y-70182632D01*
X75168575Y-28587393D02*
X75168575Y-27777870D01*
X75168575Y-27777870D02*
X75120956Y-27682632D01*
X75120956Y-27682632D02*
X75073337Y-27635013D01*
X75073337Y-27635013D02*
X74978099Y-27587393D01*
X74978099Y-27587393D02*
X74787623Y-27587393D01*
X74787623Y-27587393D02*
X74692385Y-27635013D01*
X74692385Y-27635013D02*
X74644766Y-27682632D01*
X74644766Y-27682632D02*
X74597147Y-27777870D01*
X74597147Y-27777870D02*
X74597147Y-28587393D01*
X74168575Y-27635013D02*
X74025718Y-27587393D01*
X74025718Y-27587393D02*
X73787623Y-27587393D01*
X73787623Y-27587393D02*
X73692385Y-27635013D01*
X73692385Y-27635013D02*
X73644766Y-27682632D01*
X73644766Y-27682632D02*
X73597147Y-27777870D01*
X73597147Y-27777870D02*
X73597147Y-27873108D01*
X73597147Y-27873108D02*
X73644766Y-27968346D01*
X73644766Y-27968346D02*
X73692385Y-28015965D01*
X73692385Y-28015965D02*
X73787623Y-28063584D01*
X73787623Y-28063584D02*
X73978099Y-28111203D01*
X73978099Y-28111203D02*
X74073337Y-28158822D01*
X74073337Y-28158822D02*
X74120956Y-28206441D01*
X74120956Y-28206441D02*
X74168575Y-28301679D01*
X74168575Y-28301679D02*
X74168575Y-28396917D01*
X74168575Y-28396917D02*
X74120956Y-28492155D01*
X74120956Y-28492155D02*
X74073337Y-28539774D01*
X74073337Y-28539774D02*
X73978099Y-28587393D01*
X73978099Y-28587393D02*
X73740004Y-28587393D01*
X73740004Y-28587393D02*
X73597147Y-28539774D01*
X72835242Y-28111203D02*
X72692385Y-28063584D01*
X72692385Y-28063584D02*
X72644766Y-28015965D01*
X72644766Y-28015965D02*
X72597147Y-27920727D01*
X72597147Y-27920727D02*
X72597147Y-27777870D01*
X72597147Y-27777870D02*
X72644766Y-27682632D01*
X72644766Y-27682632D02*
X72692385Y-27635013D01*
X72692385Y-27635013D02*
X72787623Y-27587393D01*
X72787623Y-27587393D02*
X73168575Y-27587393D01*
X73168575Y-27587393D02*
X73168575Y-28587393D01*
X73168575Y-28587393D02*
X72835242Y-28587393D01*
X72835242Y-28587393D02*
X72740004Y-28539774D01*
X72740004Y-28539774D02*
X72692385Y-28492155D01*
X72692385Y-28492155D02*
X72644766Y-28396917D01*
X72644766Y-28396917D02*
X72644766Y-28301679D01*
X72644766Y-28301679D02*
X72692385Y-28206441D01*
X72692385Y-28206441D02*
X72740004Y-28158822D01*
X72740004Y-28158822D02*
X72835242Y-28111203D01*
X72835242Y-28111203D02*
X73168575Y-28111203D01*
X85301909Y-35587393D02*
X84935242Y-34587393D01*
X84935242Y-34587393D02*
X84568575Y-35587393D01*
X84201909Y-34587393D02*
X84201909Y-35587393D01*
X83678099Y-34587393D02*
X83678099Y-35587393D01*
X83678099Y-35587393D02*
X83049527Y-34587393D01*
X83049527Y-34587393D02*
X83049527Y-35587393D01*
X85068575Y-38039774D02*
X85173337Y-38087393D01*
X85173337Y-38087393D02*
X85330480Y-38087393D01*
X85330480Y-38087393D02*
X85487623Y-38039774D01*
X85487623Y-38039774D02*
X85592385Y-37944536D01*
X85592385Y-37944536D02*
X85644766Y-37849298D01*
X85644766Y-37849298D02*
X85697147Y-37658822D01*
X85697147Y-37658822D02*
X85697147Y-37515965D01*
X85697147Y-37515965D02*
X85644766Y-37325489D01*
X85644766Y-37325489D02*
X85592385Y-37230251D01*
X85592385Y-37230251D02*
X85487623Y-37135013D01*
X85487623Y-37135013D02*
X85330480Y-37087393D01*
X85330480Y-37087393D02*
X85225718Y-37087393D01*
X85225718Y-37087393D02*
X85068575Y-37135013D01*
X85068575Y-37135013D02*
X85016194Y-37182632D01*
X85016194Y-37182632D02*
X85016194Y-37515965D01*
X85016194Y-37515965D02*
X85225718Y-37515965D01*
X84544766Y-37087393D02*
X84544766Y-38087393D01*
X84544766Y-38087393D02*
X83916194Y-37087393D01*
X83916194Y-37087393D02*
X83916194Y-38087393D01*
X83392385Y-37087393D02*
X83392385Y-38087393D01*
X83392385Y-38087393D02*
X83130480Y-38087393D01*
X83130480Y-38087393D02*
X82973337Y-38039774D01*
X82973337Y-38039774D02*
X82868575Y-37944536D01*
X82868575Y-37944536D02*
X82816194Y-37849298D01*
X82816194Y-37849298D02*
X82763813Y-37658822D01*
X82763813Y-37658822D02*
X82763813Y-37515965D01*
X82763813Y-37515965D02*
X82816194Y-37325489D01*
X82816194Y-37325489D02*
X82868575Y-37230251D01*
X82868575Y-37230251D02*
X82973337Y-37135013D01*
X82973337Y-37135013D02*
X83130480Y-37087393D01*
X83130480Y-37087393D02*
X83392385Y-37087393D01*
X85068575Y-40539774D02*
X85173337Y-40587393D01*
X85173337Y-40587393D02*
X85330480Y-40587393D01*
X85330480Y-40587393D02*
X85487623Y-40539774D01*
X85487623Y-40539774D02*
X85592385Y-40444536D01*
X85592385Y-40444536D02*
X85644766Y-40349298D01*
X85644766Y-40349298D02*
X85697147Y-40158822D01*
X85697147Y-40158822D02*
X85697147Y-40015965D01*
X85697147Y-40015965D02*
X85644766Y-39825489D01*
X85644766Y-39825489D02*
X85592385Y-39730251D01*
X85592385Y-39730251D02*
X85487623Y-39635013D01*
X85487623Y-39635013D02*
X85330480Y-39587393D01*
X85330480Y-39587393D02*
X85225718Y-39587393D01*
X85225718Y-39587393D02*
X85068575Y-39635013D01*
X85068575Y-39635013D02*
X85016194Y-39682632D01*
X85016194Y-39682632D02*
X85016194Y-40015965D01*
X85016194Y-40015965D02*
X85225718Y-40015965D01*
X84544766Y-39587393D02*
X84544766Y-40587393D01*
X84544766Y-40587393D02*
X84125718Y-40587393D01*
X84125718Y-40587393D02*
X84020956Y-40539774D01*
X84020956Y-40539774D02*
X83968575Y-40492155D01*
X83968575Y-40492155D02*
X83916194Y-40396917D01*
X83916194Y-40396917D02*
X83916194Y-40254060D01*
X83916194Y-40254060D02*
X83968575Y-40158822D01*
X83968575Y-40158822D02*
X84020956Y-40111203D01*
X84020956Y-40111203D02*
X84125718Y-40063584D01*
X84125718Y-40063584D02*
X84544766Y-40063584D01*
X83444766Y-39587393D02*
X83444766Y-40587393D01*
X82711432Y-40587393D02*
X82501908Y-40587393D01*
X82501908Y-40587393D02*
X82397146Y-40539774D01*
X82397146Y-40539774D02*
X82292384Y-40444536D01*
X82292384Y-40444536D02*
X82240003Y-40254060D01*
X82240003Y-40254060D02*
X82240003Y-39920727D01*
X82240003Y-39920727D02*
X82292384Y-39730251D01*
X82292384Y-39730251D02*
X82397146Y-39635013D01*
X82397146Y-39635013D02*
X82501908Y-39587393D01*
X82501908Y-39587393D02*
X82711432Y-39587393D01*
X82711432Y-39587393D02*
X82816194Y-39635013D01*
X82816194Y-39635013D02*
X82920956Y-39730251D01*
X82920956Y-39730251D02*
X82973337Y-39920727D01*
X82973337Y-39920727D02*
X82973337Y-40254060D01*
X82973337Y-40254060D02*
X82920956Y-40444536D01*
X82920956Y-40444536D02*
X82816194Y-40539774D01*
X82816194Y-40539774D02*
X82711432Y-40587393D01*
X81192384Y-39587393D02*
X81820956Y-39587393D01*
X81506670Y-39587393D02*
X81506670Y-40587393D01*
X81506670Y-40587393D02*
X81611432Y-40444536D01*
X81611432Y-40444536D02*
X81716194Y-40349298D01*
X81716194Y-40349298D02*
X81820956Y-40301679D01*
X80825718Y-40587393D02*
X80144765Y-40587393D01*
X80144765Y-40587393D02*
X80511432Y-40206441D01*
X80511432Y-40206441D02*
X80354289Y-40206441D01*
X80354289Y-40206441D02*
X80249527Y-40158822D01*
X80249527Y-40158822D02*
X80197146Y-40111203D01*
X80197146Y-40111203D02*
X80144765Y-40015965D01*
X80144765Y-40015965D02*
X80144765Y-39777870D01*
X80144765Y-39777870D02*
X80197146Y-39682632D01*
X80197146Y-39682632D02*
X80249527Y-39635013D01*
X80249527Y-39635013D02*
X80354289Y-39587393D01*
X80354289Y-39587393D02*
X80668575Y-39587393D01*
X80668575Y-39587393D02*
X80773337Y-39635013D01*
X80773337Y-39635013D02*
X80825718Y-39682632D01*
X85068575Y-43039774D02*
X85173337Y-43087393D01*
X85173337Y-43087393D02*
X85330480Y-43087393D01*
X85330480Y-43087393D02*
X85487623Y-43039774D01*
X85487623Y-43039774D02*
X85592385Y-42944536D01*
X85592385Y-42944536D02*
X85644766Y-42849298D01*
X85644766Y-42849298D02*
X85697147Y-42658822D01*
X85697147Y-42658822D02*
X85697147Y-42515965D01*
X85697147Y-42515965D02*
X85644766Y-42325489D01*
X85644766Y-42325489D02*
X85592385Y-42230251D01*
X85592385Y-42230251D02*
X85487623Y-42135013D01*
X85487623Y-42135013D02*
X85330480Y-42087393D01*
X85330480Y-42087393D02*
X85225718Y-42087393D01*
X85225718Y-42087393D02*
X85068575Y-42135013D01*
X85068575Y-42135013D02*
X85016194Y-42182632D01*
X85016194Y-42182632D02*
X85016194Y-42515965D01*
X85016194Y-42515965D02*
X85225718Y-42515965D01*
X84544766Y-42087393D02*
X84544766Y-43087393D01*
X84544766Y-43087393D02*
X84125718Y-43087393D01*
X84125718Y-43087393D02*
X84020956Y-43039774D01*
X84020956Y-43039774D02*
X83968575Y-42992155D01*
X83968575Y-42992155D02*
X83916194Y-42896917D01*
X83916194Y-42896917D02*
X83916194Y-42754060D01*
X83916194Y-42754060D02*
X83968575Y-42658822D01*
X83968575Y-42658822D02*
X84020956Y-42611203D01*
X84020956Y-42611203D02*
X84125718Y-42563584D01*
X84125718Y-42563584D02*
X84544766Y-42563584D01*
X83444766Y-42087393D02*
X83444766Y-43087393D01*
X82711432Y-43087393D02*
X82501908Y-43087393D01*
X82501908Y-43087393D02*
X82397146Y-43039774D01*
X82397146Y-43039774D02*
X82292384Y-42944536D01*
X82292384Y-42944536D02*
X82240003Y-42754060D01*
X82240003Y-42754060D02*
X82240003Y-42420727D01*
X82240003Y-42420727D02*
X82292384Y-42230251D01*
X82292384Y-42230251D02*
X82397146Y-42135013D01*
X82397146Y-42135013D02*
X82501908Y-42087393D01*
X82501908Y-42087393D02*
X82711432Y-42087393D01*
X82711432Y-42087393D02*
X82816194Y-42135013D01*
X82816194Y-42135013D02*
X82920956Y-42230251D01*
X82920956Y-42230251D02*
X82973337Y-42420727D01*
X82973337Y-42420727D02*
X82973337Y-42754060D01*
X82973337Y-42754060D02*
X82920956Y-42944536D01*
X82920956Y-42944536D02*
X82816194Y-43039774D01*
X82816194Y-43039774D02*
X82711432Y-43087393D01*
X81192384Y-42087393D02*
X81820956Y-42087393D01*
X81506670Y-42087393D02*
X81506670Y-43087393D01*
X81506670Y-43087393D02*
X81611432Y-42944536D01*
X81611432Y-42944536D02*
X81716194Y-42849298D01*
X81716194Y-42849298D02*
X81820956Y-42801679D01*
X80773337Y-42992155D02*
X80720956Y-43039774D01*
X80720956Y-43039774D02*
X80616194Y-43087393D01*
X80616194Y-43087393D02*
X80354289Y-43087393D01*
X80354289Y-43087393D02*
X80249527Y-43039774D01*
X80249527Y-43039774D02*
X80197146Y-42992155D01*
X80197146Y-42992155D02*
X80144765Y-42896917D01*
X80144765Y-42896917D02*
X80144765Y-42801679D01*
X80144765Y-42801679D02*
X80197146Y-42658822D01*
X80197146Y-42658822D02*
X80825718Y-42087393D01*
X80825718Y-42087393D02*
X80144765Y-42087393D01*
X85068575Y-45539774D02*
X85173337Y-45587393D01*
X85173337Y-45587393D02*
X85330480Y-45587393D01*
X85330480Y-45587393D02*
X85487623Y-45539774D01*
X85487623Y-45539774D02*
X85592385Y-45444536D01*
X85592385Y-45444536D02*
X85644766Y-45349298D01*
X85644766Y-45349298D02*
X85697147Y-45158822D01*
X85697147Y-45158822D02*
X85697147Y-45015965D01*
X85697147Y-45015965D02*
X85644766Y-44825489D01*
X85644766Y-44825489D02*
X85592385Y-44730251D01*
X85592385Y-44730251D02*
X85487623Y-44635013D01*
X85487623Y-44635013D02*
X85330480Y-44587393D01*
X85330480Y-44587393D02*
X85225718Y-44587393D01*
X85225718Y-44587393D02*
X85068575Y-44635013D01*
X85068575Y-44635013D02*
X85016194Y-44682632D01*
X85016194Y-44682632D02*
X85016194Y-45015965D01*
X85016194Y-45015965D02*
X85225718Y-45015965D01*
X84544766Y-44587393D02*
X84544766Y-45587393D01*
X84544766Y-45587393D02*
X84125718Y-45587393D01*
X84125718Y-45587393D02*
X84020956Y-45539774D01*
X84020956Y-45539774D02*
X83968575Y-45492155D01*
X83968575Y-45492155D02*
X83916194Y-45396917D01*
X83916194Y-45396917D02*
X83916194Y-45254060D01*
X83916194Y-45254060D02*
X83968575Y-45158822D01*
X83968575Y-45158822D02*
X84020956Y-45111203D01*
X84020956Y-45111203D02*
X84125718Y-45063584D01*
X84125718Y-45063584D02*
X84544766Y-45063584D01*
X83444766Y-44587393D02*
X83444766Y-45587393D01*
X82711432Y-45587393D02*
X82501908Y-45587393D01*
X82501908Y-45587393D02*
X82397146Y-45539774D01*
X82397146Y-45539774D02*
X82292384Y-45444536D01*
X82292384Y-45444536D02*
X82240003Y-45254060D01*
X82240003Y-45254060D02*
X82240003Y-44920727D01*
X82240003Y-44920727D02*
X82292384Y-44730251D01*
X82292384Y-44730251D02*
X82397146Y-44635013D01*
X82397146Y-44635013D02*
X82501908Y-44587393D01*
X82501908Y-44587393D02*
X82711432Y-44587393D01*
X82711432Y-44587393D02*
X82816194Y-44635013D01*
X82816194Y-44635013D02*
X82920956Y-44730251D01*
X82920956Y-44730251D02*
X82973337Y-44920727D01*
X82973337Y-44920727D02*
X82973337Y-45254060D01*
X82973337Y-45254060D02*
X82920956Y-45444536D01*
X82920956Y-45444536D02*
X82816194Y-45539774D01*
X82816194Y-45539774D02*
X82711432Y-45587393D01*
X81192384Y-44587393D02*
X81820956Y-44587393D01*
X81506670Y-44587393D02*
X81506670Y-45587393D01*
X81506670Y-45587393D02*
X81611432Y-45444536D01*
X81611432Y-45444536D02*
X81716194Y-45349298D01*
X81716194Y-45349298D02*
X81820956Y-45301679D01*
X80249527Y-45254060D02*
X80249527Y-44587393D01*
X80511432Y-45635013D02*
X80773337Y-44920727D01*
X80773337Y-44920727D02*
X80092384Y-44920727D01*
X85068575Y-48039774D02*
X85173337Y-48087393D01*
X85173337Y-48087393D02*
X85330480Y-48087393D01*
X85330480Y-48087393D02*
X85487623Y-48039774D01*
X85487623Y-48039774D02*
X85592385Y-47944536D01*
X85592385Y-47944536D02*
X85644766Y-47849298D01*
X85644766Y-47849298D02*
X85697147Y-47658822D01*
X85697147Y-47658822D02*
X85697147Y-47515965D01*
X85697147Y-47515965D02*
X85644766Y-47325489D01*
X85644766Y-47325489D02*
X85592385Y-47230251D01*
X85592385Y-47230251D02*
X85487623Y-47135013D01*
X85487623Y-47135013D02*
X85330480Y-47087393D01*
X85330480Y-47087393D02*
X85225718Y-47087393D01*
X85225718Y-47087393D02*
X85068575Y-47135013D01*
X85068575Y-47135013D02*
X85016194Y-47182632D01*
X85016194Y-47182632D02*
X85016194Y-47515965D01*
X85016194Y-47515965D02*
X85225718Y-47515965D01*
X84544766Y-47087393D02*
X84544766Y-48087393D01*
X84544766Y-48087393D02*
X84125718Y-48087393D01*
X84125718Y-48087393D02*
X84020956Y-48039774D01*
X84020956Y-48039774D02*
X83968575Y-47992155D01*
X83968575Y-47992155D02*
X83916194Y-47896917D01*
X83916194Y-47896917D02*
X83916194Y-47754060D01*
X83916194Y-47754060D02*
X83968575Y-47658822D01*
X83968575Y-47658822D02*
X84020956Y-47611203D01*
X84020956Y-47611203D02*
X84125718Y-47563584D01*
X84125718Y-47563584D02*
X84544766Y-47563584D01*
X83444766Y-47087393D02*
X83444766Y-48087393D01*
X82711432Y-48087393D02*
X82501908Y-48087393D01*
X82501908Y-48087393D02*
X82397146Y-48039774D01*
X82397146Y-48039774D02*
X82292384Y-47944536D01*
X82292384Y-47944536D02*
X82240003Y-47754060D01*
X82240003Y-47754060D02*
X82240003Y-47420727D01*
X82240003Y-47420727D02*
X82292384Y-47230251D01*
X82292384Y-47230251D02*
X82397146Y-47135013D01*
X82397146Y-47135013D02*
X82501908Y-47087393D01*
X82501908Y-47087393D02*
X82711432Y-47087393D01*
X82711432Y-47087393D02*
X82816194Y-47135013D01*
X82816194Y-47135013D02*
X82920956Y-47230251D01*
X82920956Y-47230251D02*
X82973337Y-47420727D01*
X82973337Y-47420727D02*
X82973337Y-47754060D01*
X82973337Y-47754060D02*
X82920956Y-47944536D01*
X82920956Y-47944536D02*
X82816194Y-48039774D01*
X82816194Y-48039774D02*
X82711432Y-48087393D01*
X81820956Y-47992155D02*
X81768575Y-48039774D01*
X81768575Y-48039774D02*
X81663813Y-48087393D01*
X81663813Y-48087393D02*
X81401908Y-48087393D01*
X81401908Y-48087393D02*
X81297146Y-48039774D01*
X81297146Y-48039774D02*
X81244765Y-47992155D01*
X81244765Y-47992155D02*
X81192384Y-47896917D01*
X81192384Y-47896917D02*
X81192384Y-47801679D01*
X81192384Y-47801679D02*
X81244765Y-47658822D01*
X81244765Y-47658822D02*
X81873337Y-47087393D01*
X81873337Y-47087393D02*
X81192384Y-47087393D01*
X80825718Y-48087393D02*
X80092384Y-48087393D01*
X80092384Y-48087393D02*
X80563813Y-47087393D01*
X85068575Y-50539774D02*
X85173337Y-50587393D01*
X85173337Y-50587393D02*
X85330480Y-50587393D01*
X85330480Y-50587393D02*
X85487623Y-50539774D01*
X85487623Y-50539774D02*
X85592385Y-50444536D01*
X85592385Y-50444536D02*
X85644766Y-50349298D01*
X85644766Y-50349298D02*
X85697147Y-50158822D01*
X85697147Y-50158822D02*
X85697147Y-50015965D01*
X85697147Y-50015965D02*
X85644766Y-49825489D01*
X85644766Y-49825489D02*
X85592385Y-49730251D01*
X85592385Y-49730251D02*
X85487623Y-49635013D01*
X85487623Y-49635013D02*
X85330480Y-49587393D01*
X85330480Y-49587393D02*
X85225718Y-49587393D01*
X85225718Y-49587393D02*
X85068575Y-49635013D01*
X85068575Y-49635013D02*
X85016194Y-49682632D01*
X85016194Y-49682632D02*
X85016194Y-50015965D01*
X85016194Y-50015965D02*
X85225718Y-50015965D01*
X84544766Y-49587393D02*
X84544766Y-50587393D01*
X84544766Y-50587393D02*
X84125718Y-50587393D01*
X84125718Y-50587393D02*
X84020956Y-50539774D01*
X84020956Y-50539774D02*
X83968575Y-50492155D01*
X83968575Y-50492155D02*
X83916194Y-50396917D01*
X83916194Y-50396917D02*
X83916194Y-50254060D01*
X83916194Y-50254060D02*
X83968575Y-50158822D01*
X83968575Y-50158822D02*
X84020956Y-50111203D01*
X84020956Y-50111203D02*
X84125718Y-50063584D01*
X84125718Y-50063584D02*
X84544766Y-50063584D01*
X83444766Y-49587393D02*
X83444766Y-50587393D01*
X82711432Y-50587393D02*
X82501908Y-50587393D01*
X82501908Y-50587393D02*
X82397146Y-50539774D01*
X82397146Y-50539774D02*
X82292384Y-50444536D01*
X82292384Y-50444536D02*
X82240003Y-50254060D01*
X82240003Y-50254060D02*
X82240003Y-49920727D01*
X82240003Y-49920727D02*
X82292384Y-49730251D01*
X82292384Y-49730251D02*
X82397146Y-49635013D01*
X82397146Y-49635013D02*
X82501908Y-49587393D01*
X82501908Y-49587393D02*
X82711432Y-49587393D01*
X82711432Y-49587393D02*
X82816194Y-49635013D01*
X82816194Y-49635013D02*
X82920956Y-49730251D01*
X82920956Y-49730251D02*
X82973337Y-49920727D01*
X82973337Y-49920727D02*
X82973337Y-50254060D01*
X82973337Y-50254060D02*
X82920956Y-50444536D01*
X82920956Y-50444536D02*
X82816194Y-50539774D01*
X82816194Y-50539774D02*
X82711432Y-50587393D01*
X81820956Y-50492155D02*
X81768575Y-50539774D01*
X81768575Y-50539774D02*
X81663813Y-50587393D01*
X81663813Y-50587393D02*
X81401908Y-50587393D01*
X81401908Y-50587393D02*
X81297146Y-50539774D01*
X81297146Y-50539774D02*
X81244765Y-50492155D01*
X81244765Y-50492155D02*
X81192384Y-50396917D01*
X81192384Y-50396917D02*
X81192384Y-50301679D01*
X81192384Y-50301679D02*
X81244765Y-50158822D01*
X81244765Y-50158822D02*
X81873337Y-49587393D01*
X81873337Y-49587393D02*
X81192384Y-49587393D01*
X80249527Y-50587393D02*
X80459051Y-50587393D01*
X80459051Y-50587393D02*
X80563813Y-50539774D01*
X80563813Y-50539774D02*
X80616194Y-50492155D01*
X80616194Y-50492155D02*
X80720956Y-50349298D01*
X80720956Y-50349298D02*
X80773337Y-50158822D01*
X80773337Y-50158822D02*
X80773337Y-49777870D01*
X80773337Y-49777870D02*
X80720956Y-49682632D01*
X80720956Y-49682632D02*
X80668575Y-49635013D01*
X80668575Y-49635013D02*
X80563813Y-49587393D01*
X80563813Y-49587393D02*
X80354289Y-49587393D01*
X80354289Y-49587393D02*
X80249527Y-49635013D01*
X80249527Y-49635013D02*
X80197146Y-49682632D01*
X80197146Y-49682632D02*
X80144765Y-49777870D01*
X80144765Y-49777870D02*
X80144765Y-50015965D01*
X80144765Y-50015965D02*
X80197146Y-50111203D01*
X80197146Y-50111203D02*
X80249527Y-50158822D01*
X80249527Y-50158822D02*
X80354289Y-50206441D01*
X80354289Y-50206441D02*
X80563813Y-50206441D01*
X80563813Y-50206441D02*
X80668575Y-50158822D01*
X80668575Y-50158822D02*
X80720956Y-50111203D01*
X80720956Y-50111203D02*
X80773337Y-50015965D01*
X85068575Y-53039774D02*
X85173337Y-53087393D01*
X85173337Y-53087393D02*
X85330480Y-53087393D01*
X85330480Y-53087393D02*
X85487623Y-53039774D01*
X85487623Y-53039774D02*
X85592385Y-52944536D01*
X85592385Y-52944536D02*
X85644766Y-52849298D01*
X85644766Y-52849298D02*
X85697147Y-52658822D01*
X85697147Y-52658822D02*
X85697147Y-52515965D01*
X85697147Y-52515965D02*
X85644766Y-52325489D01*
X85644766Y-52325489D02*
X85592385Y-52230251D01*
X85592385Y-52230251D02*
X85487623Y-52135013D01*
X85487623Y-52135013D02*
X85330480Y-52087393D01*
X85330480Y-52087393D02*
X85225718Y-52087393D01*
X85225718Y-52087393D02*
X85068575Y-52135013D01*
X85068575Y-52135013D02*
X85016194Y-52182632D01*
X85016194Y-52182632D02*
X85016194Y-52515965D01*
X85016194Y-52515965D02*
X85225718Y-52515965D01*
X84544766Y-52087393D02*
X84544766Y-53087393D01*
X84544766Y-53087393D02*
X84125718Y-53087393D01*
X84125718Y-53087393D02*
X84020956Y-53039774D01*
X84020956Y-53039774D02*
X83968575Y-52992155D01*
X83968575Y-52992155D02*
X83916194Y-52896917D01*
X83916194Y-52896917D02*
X83916194Y-52754060D01*
X83916194Y-52754060D02*
X83968575Y-52658822D01*
X83968575Y-52658822D02*
X84020956Y-52611203D01*
X84020956Y-52611203D02*
X84125718Y-52563584D01*
X84125718Y-52563584D02*
X84544766Y-52563584D01*
X83444766Y-52087393D02*
X83444766Y-53087393D01*
X82711432Y-53087393D02*
X82501908Y-53087393D01*
X82501908Y-53087393D02*
X82397146Y-53039774D01*
X82397146Y-53039774D02*
X82292384Y-52944536D01*
X82292384Y-52944536D02*
X82240003Y-52754060D01*
X82240003Y-52754060D02*
X82240003Y-52420727D01*
X82240003Y-52420727D02*
X82292384Y-52230251D01*
X82292384Y-52230251D02*
X82397146Y-52135013D01*
X82397146Y-52135013D02*
X82501908Y-52087393D01*
X82501908Y-52087393D02*
X82711432Y-52087393D01*
X82711432Y-52087393D02*
X82816194Y-52135013D01*
X82816194Y-52135013D02*
X82920956Y-52230251D01*
X82920956Y-52230251D02*
X82973337Y-52420727D01*
X82973337Y-52420727D02*
X82973337Y-52754060D01*
X82973337Y-52754060D02*
X82920956Y-52944536D01*
X82920956Y-52944536D02*
X82816194Y-53039774D01*
X82816194Y-53039774D02*
X82711432Y-53087393D01*
X81820956Y-52992155D02*
X81768575Y-53039774D01*
X81768575Y-53039774D02*
X81663813Y-53087393D01*
X81663813Y-53087393D02*
X81401908Y-53087393D01*
X81401908Y-53087393D02*
X81297146Y-53039774D01*
X81297146Y-53039774D02*
X81244765Y-52992155D01*
X81244765Y-52992155D02*
X81192384Y-52896917D01*
X81192384Y-52896917D02*
X81192384Y-52801679D01*
X81192384Y-52801679D02*
X81244765Y-52658822D01*
X81244765Y-52658822D02*
X81873337Y-52087393D01*
X81873337Y-52087393D02*
X81192384Y-52087393D01*
X80197146Y-53087393D02*
X80720956Y-53087393D01*
X80720956Y-53087393D02*
X80773337Y-52611203D01*
X80773337Y-52611203D02*
X80720956Y-52658822D01*
X80720956Y-52658822D02*
X80616194Y-52706441D01*
X80616194Y-52706441D02*
X80354289Y-52706441D01*
X80354289Y-52706441D02*
X80249527Y-52658822D01*
X80249527Y-52658822D02*
X80197146Y-52611203D01*
X80197146Y-52611203D02*
X80144765Y-52515965D01*
X80144765Y-52515965D02*
X80144765Y-52277870D01*
X80144765Y-52277870D02*
X80197146Y-52182632D01*
X80197146Y-52182632D02*
X80249527Y-52135013D01*
X80249527Y-52135013D02*
X80354289Y-52087393D01*
X80354289Y-52087393D02*
X80616194Y-52087393D01*
X80616194Y-52087393D02*
X80720956Y-52135013D01*
X80720956Y-52135013D02*
X80773337Y-52182632D01*
X85068575Y-55539774D02*
X85173337Y-55587393D01*
X85173337Y-55587393D02*
X85330480Y-55587393D01*
X85330480Y-55587393D02*
X85487623Y-55539774D01*
X85487623Y-55539774D02*
X85592385Y-55444536D01*
X85592385Y-55444536D02*
X85644766Y-55349298D01*
X85644766Y-55349298D02*
X85697147Y-55158822D01*
X85697147Y-55158822D02*
X85697147Y-55015965D01*
X85697147Y-55015965D02*
X85644766Y-54825489D01*
X85644766Y-54825489D02*
X85592385Y-54730251D01*
X85592385Y-54730251D02*
X85487623Y-54635013D01*
X85487623Y-54635013D02*
X85330480Y-54587393D01*
X85330480Y-54587393D02*
X85225718Y-54587393D01*
X85225718Y-54587393D02*
X85068575Y-54635013D01*
X85068575Y-54635013D02*
X85016194Y-54682632D01*
X85016194Y-54682632D02*
X85016194Y-55015965D01*
X85016194Y-55015965D02*
X85225718Y-55015965D01*
X84544766Y-54587393D02*
X84544766Y-55587393D01*
X84544766Y-55587393D02*
X84125718Y-55587393D01*
X84125718Y-55587393D02*
X84020956Y-55539774D01*
X84020956Y-55539774D02*
X83968575Y-55492155D01*
X83968575Y-55492155D02*
X83916194Y-55396917D01*
X83916194Y-55396917D02*
X83916194Y-55254060D01*
X83916194Y-55254060D02*
X83968575Y-55158822D01*
X83968575Y-55158822D02*
X84020956Y-55111203D01*
X84020956Y-55111203D02*
X84125718Y-55063584D01*
X84125718Y-55063584D02*
X84544766Y-55063584D01*
X83444766Y-54587393D02*
X83444766Y-55587393D01*
X82711432Y-55587393D02*
X82501908Y-55587393D01*
X82501908Y-55587393D02*
X82397146Y-55539774D01*
X82397146Y-55539774D02*
X82292384Y-55444536D01*
X82292384Y-55444536D02*
X82240003Y-55254060D01*
X82240003Y-55254060D02*
X82240003Y-54920727D01*
X82240003Y-54920727D02*
X82292384Y-54730251D01*
X82292384Y-54730251D02*
X82397146Y-54635013D01*
X82397146Y-54635013D02*
X82501908Y-54587393D01*
X82501908Y-54587393D02*
X82711432Y-54587393D01*
X82711432Y-54587393D02*
X82816194Y-54635013D01*
X82816194Y-54635013D02*
X82920956Y-54730251D01*
X82920956Y-54730251D02*
X82973337Y-54920727D01*
X82973337Y-54920727D02*
X82973337Y-55254060D01*
X82973337Y-55254060D02*
X82920956Y-55444536D01*
X82920956Y-55444536D02*
X82816194Y-55539774D01*
X82816194Y-55539774D02*
X82711432Y-55587393D01*
X81873337Y-55587393D02*
X81192384Y-55587393D01*
X81192384Y-55587393D02*
X81559051Y-55206441D01*
X81559051Y-55206441D02*
X81401908Y-55206441D01*
X81401908Y-55206441D02*
X81297146Y-55158822D01*
X81297146Y-55158822D02*
X81244765Y-55111203D01*
X81244765Y-55111203D02*
X81192384Y-55015965D01*
X81192384Y-55015965D02*
X81192384Y-54777870D01*
X81192384Y-54777870D02*
X81244765Y-54682632D01*
X81244765Y-54682632D02*
X81297146Y-54635013D01*
X81297146Y-54635013D02*
X81401908Y-54587393D01*
X81401908Y-54587393D02*
X81716194Y-54587393D01*
X81716194Y-54587393D02*
X81820956Y-54635013D01*
X81820956Y-54635013D02*
X81873337Y-54682632D01*
X80825718Y-55587393D02*
X80144765Y-55587393D01*
X80144765Y-55587393D02*
X80511432Y-55206441D01*
X80511432Y-55206441D02*
X80354289Y-55206441D01*
X80354289Y-55206441D02*
X80249527Y-55158822D01*
X80249527Y-55158822D02*
X80197146Y-55111203D01*
X80197146Y-55111203D02*
X80144765Y-55015965D01*
X80144765Y-55015965D02*
X80144765Y-54777870D01*
X80144765Y-54777870D02*
X80197146Y-54682632D01*
X80197146Y-54682632D02*
X80249527Y-54635013D01*
X80249527Y-54635013D02*
X80354289Y-54587393D01*
X80354289Y-54587393D02*
X80668575Y-54587393D01*
X80668575Y-54587393D02*
X80773337Y-54635013D01*
X80773337Y-54635013D02*
X80825718Y-54682632D01*
X85068575Y-58039774D02*
X85173337Y-58087393D01*
X85173337Y-58087393D02*
X85330480Y-58087393D01*
X85330480Y-58087393D02*
X85487623Y-58039774D01*
X85487623Y-58039774D02*
X85592385Y-57944536D01*
X85592385Y-57944536D02*
X85644766Y-57849298D01*
X85644766Y-57849298D02*
X85697147Y-57658822D01*
X85697147Y-57658822D02*
X85697147Y-57515965D01*
X85697147Y-57515965D02*
X85644766Y-57325489D01*
X85644766Y-57325489D02*
X85592385Y-57230251D01*
X85592385Y-57230251D02*
X85487623Y-57135013D01*
X85487623Y-57135013D02*
X85330480Y-57087393D01*
X85330480Y-57087393D02*
X85225718Y-57087393D01*
X85225718Y-57087393D02*
X85068575Y-57135013D01*
X85068575Y-57135013D02*
X85016194Y-57182632D01*
X85016194Y-57182632D02*
X85016194Y-57515965D01*
X85016194Y-57515965D02*
X85225718Y-57515965D01*
X84544766Y-57087393D02*
X84544766Y-58087393D01*
X84544766Y-58087393D02*
X84125718Y-58087393D01*
X84125718Y-58087393D02*
X84020956Y-58039774D01*
X84020956Y-58039774D02*
X83968575Y-57992155D01*
X83968575Y-57992155D02*
X83916194Y-57896917D01*
X83916194Y-57896917D02*
X83916194Y-57754060D01*
X83916194Y-57754060D02*
X83968575Y-57658822D01*
X83968575Y-57658822D02*
X84020956Y-57611203D01*
X84020956Y-57611203D02*
X84125718Y-57563584D01*
X84125718Y-57563584D02*
X84544766Y-57563584D01*
X83444766Y-57087393D02*
X83444766Y-58087393D01*
X82711432Y-58087393D02*
X82501908Y-58087393D01*
X82501908Y-58087393D02*
X82397146Y-58039774D01*
X82397146Y-58039774D02*
X82292384Y-57944536D01*
X82292384Y-57944536D02*
X82240003Y-57754060D01*
X82240003Y-57754060D02*
X82240003Y-57420727D01*
X82240003Y-57420727D02*
X82292384Y-57230251D01*
X82292384Y-57230251D02*
X82397146Y-57135013D01*
X82397146Y-57135013D02*
X82501908Y-57087393D01*
X82501908Y-57087393D02*
X82711432Y-57087393D01*
X82711432Y-57087393D02*
X82816194Y-57135013D01*
X82816194Y-57135013D02*
X82920956Y-57230251D01*
X82920956Y-57230251D02*
X82973337Y-57420727D01*
X82973337Y-57420727D02*
X82973337Y-57754060D01*
X82973337Y-57754060D02*
X82920956Y-57944536D01*
X82920956Y-57944536D02*
X82816194Y-58039774D01*
X82816194Y-58039774D02*
X82711432Y-58087393D01*
X81873337Y-58087393D02*
X81192384Y-58087393D01*
X81192384Y-58087393D02*
X81559051Y-57706441D01*
X81559051Y-57706441D02*
X81401908Y-57706441D01*
X81401908Y-57706441D02*
X81297146Y-57658822D01*
X81297146Y-57658822D02*
X81244765Y-57611203D01*
X81244765Y-57611203D02*
X81192384Y-57515965D01*
X81192384Y-57515965D02*
X81192384Y-57277870D01*
X81192384Y-57277870D02*
X81244765Y-57182632D01*
X81244765Y-57182632D02*
X81297146Y-57135013D01*
X81297146Y-57135013D02*
X81401908Y-57087393D01*
X81401908Y-57087393D02*
X81716194Y-57087393D01*
X81716194Y-57087393D02*
X81820956Y-57135013D01*
X81820956Y-57135013D02*
X81873337Y-57182632D01*
X80773337Y-57992155D02*
X80720956Y-58039774D01*
X80720956Y-58039774D02*
X80616194Y-58087393D01*
X80616194Y-58087393D02*
X80354289Y-58087393D01*
X80354289Y-58087393D02*
X80249527Y-58039774D01*
X80249527Y-58039774D02*
X80197146Y-57992155D01*
X80197146Y-57992155D02*
X80144765Y-57896917D01*
X80144765Y-57896917D02*
X80144765Y-57801679D01*
X80144765Y-57801679D02*
X80197146Y-57658822D01*
X80197146Y-57658822D02*
X80825718Y-57087393D01*
X80825718Y-57087393D02*
X80144765Y-57087393D01*
X85068575Y-60539774D02*
X85173337Y-60587393D01*
X85173337Y-60587393D02*
X85330480Y-60587393D01*
X85330480Y-60587393D02*
X85487623Y-60539774D01*
X85487623Y-60539774D02*
X85592385Y-60444536D01*
X85592385Y-60444536D02*
X85644766Y-60349298D01*
X85644766Y-60349298D02*
X85697147Y-60158822D01*
X85697147Y-60158822D02*
X85697147Y-60015965D01*
X85697147Y-60015965D02*
X85644766Y-59825489D01*
X85644766Y-59825489D02*
X85592385Y-59730251D01*
X85592385Y-59730251D02*
X85487623Y-59635013D01*
X85487623Y-59635013D02*
X85330480Y-59587393D01*
X85330480Y-59587393D02*
X85225718Y-59587393D01*
X85225718Y-59587393D02*
X85068575Y-59635013D01*
X85068575Y-59635013D02*
X85016194Y-59682632D01*
X85016194Y-59682632D02*
X85016194Y-60015965D01*
X85016194Y-60015965D02*
X85225718Y-60015965D01*
X84544766Y-59587393D02*
X84544766Y-60587393D01*
X84544766Y-60587393D02*
X84125718Y-60587393D01*
X84125718Y-60587393D02*
X84020956Y-60539774D01*
X84020956Y-60539774D02*
X83968575Y-60492155D01*
X83968575Y-60492155D02*
X83916194Y-60396917D01*
X83916194Y-60396917D02*
X83916194Y-60254060D01*
X83916194Y-60254060D02*
X83968575Y-60158822D01*
X83968575Y-60158822D02*
X84020956Y-60111203D01*
X84020956Y-60111203D02*
X84125718Y-60063584D01*
X84125718Y-60063584D02*
X84544766Y-60063584D01*
X83444766Y-59587393D02*
X83444766Y-60587393D01*
X82711432Y-60587393D02*
X82501908Y-60587393D01*
X82501908Y-60587393D02*
X82397146Y-60539774D01*
X82397146Y-60539774D02*
X82292384Y-60444536D01*
X82292384Y-60444536D02*
X82240003Y-60254060D01*
X82240003Y-60254060D02*
X82240003Y-59920727D01*
X82240003Y-59920727D02*
X82292384Y-59730251D01*
X82292384Y-59730251D02*
X82397146Y-59635013D01*
X82397146Y-59635013D02*
X82501908Y-59587393D01*
X82501908Y-59587393D02*
X82711432Y-59587393D01*
X82711432Y-59587393D02*
X82816194Y-59635013D01*
X82816194Y-59635013D02*
X82920956Y-59730251D01*
X82920956Y-59730251D02*
X82973337Y-59920727D01*
X82973337Y-59920727D02*
X82973337Y-60254060D01*
X82973337Y-60254060D02*
X82920956Y-60444536D01*
X82920956Y-60444536D02*
X82816194Y-60539774D01*
X82816194Y-60539774D02*
X82711432Y-60587393D01*
X81873337Y-60587393D02*
X81192384Y-60587393D01*
X81192384Y-60587393D02*
X81559051Y-60206441D01*
X81559051Y-60206441D02*
X81401908Y-60206441D01*
X81401908Y-60206441D02*
X81297146Y-60158822D01*
X81297146Y-60158822D02*
X81244765Y-60111203D01*
X81244765Y-60111203D02*
X81192384Y-60015965D01*
X81192384Y-60015965D02*
X81192384Y-59777870D01*
X81192384Y-59777870D02*
X81244765Y-59682632D01*
X81244765Y-59682632D02*
X81297146Y-59635013D01*
X81297146Y-59635013D02*
X81401908Y-59587393D01*
X81401908Y-59587393D02*
X81716194Y-59587393D01*
X81716194Y-59587393D02*
X81820956Y-59635013D01*
X81820956Y-59635013D02*
X81873337Y-59682632D01*
X80197146Y-60587393D02*
X80720956Y-60587393D01*
X80720956Y-60587393D02*
X80773337Y-60111203D01*
X80773337Y-60111203D02*
X80720956Y-60158822D01*
X80720956Y-60158822D02*
X80616194Y-60206441D01*
X80616194Y-60206441D02*
X80354289Y-60206441D01*
X80354289Y-60206441D02*
X80249527Y-60158822D01*
X80249527Y-60158822D02*
X80197146Y-60111203D01*
X80197146Y-60111203D02*
X80144765Y-60015965D01*
X80144765Y-60015965D02*
X80144765Y-59777870D01*
X80144765Y-59777870D02*
X80197146Y-59682632D01*
X80197146Y-59682632D02*
X80249527Y-59635013D01*
X80249527Y-59635013D02*
X80354289Y-59587393D01*
X80354289Y-59587393D02*
X80616194Y-59587393D01*
X80616194Y-59587393D02*
X80720956Y-59635013D01*
X80720956Y-59635013D02*
X80773337Y-59682632D01*
X85068575Y-63039774D02*
X85173337Y-63087393D01*
X85173337Y-63087393D02*
X85330480Y-63087393D01*
X85330480Y-63087393D02*
X85487623Y-63039774D01*
X85487623Y-63039774D02*
X85592385Y-62944536D01*
X85592385Y-62944536D02*
X85644766Y-62849298D01*
X85644766Y-62849298D02*
X85697147Y-62658822D01*
X85697147Y-62658822D02*
X85697147Y-62515965D01*
X85697147Y-62515965D02*
X85644766Y-62325489D01*
X85644766Y-62325489D02*
X85592385Y-62230251D01*
X85592385Y-62230251D02*
X85487623Y-62135013D01*
X85487623Y-62135013D02*
X85330480Y-62087393D01*
X85330480Y-62087393D02*
X85225718Y-62087393D01*
X85225718Y-62087393D02*
X85068575Y-62135013D01*
X85068575Y-62135013D02*
X85016194Y-62182632D01*
X85016194Y-62182632D02*
X85016194Y-62515965D01*
X85016194Y-62515965D02*
X85225718Y-62515965D01*
X84544766Y-62087393D02*
X84544766Y-63087393D01*
X84544766Y-63087393D02*
X84125718Y-63087393D01*
X84125718Y-63087393D02*
X84020956Y-63039774D01*
X84020956Y-63039774D02*
X83968575Y-62992155D01*
X83968575Y-62992155D02*
X83916194Y-62896917D01*
X83916194Y-62896917D02*
X83916194Y-62754060D01*
X83916194Y-62754060D02*
X83968575Y-62658822D01*
X83968575Y-62658822D02*
X84020956Y-62611203D01*
X84020956Y-62611203D02*
X84125718Y-62563584D01*
X84125718Y-62563584D02*
X84544766Y-62563584D01*
X83444766Y-62087393D02*
X83444766Y-63087393D01*
X82711432Y-63087393D02*
X82501908Y-63087393D01*
X82501908Y-63087393D02*
X82397146Y-63039774D01*
X82397146Y-63039774D02*
X82292384Y-62944536D01*
X82292384Y-62944536D02*
X82240003Y-62754060D01*
X82240003Y-62754060D02*
X82240003Y-62420727D01*
X82240003Y-62420727D02*
X82292384Y-62230251D01*
X82292384Y-62230251D02*
X82397146Y-62135013D01*
X82397146Y-62135013D02*
X82501908Y-62087393D01*
X82501908Y-62087393D02*
X82711432Y-62087393D01*
X82711432Y-62087393D02*
X82816194Y-62135013D01*
X82816194Y-62135013D02*
X82920956Y-62230251D01*
X82920956Y-62230251D02*
X82973337Y-62420727D01*
X82973337Y-62420727D02*
X82973337Y-62754060D01*
X82973337Y-62754060D02*
X82920956Y-62944536D01*
X82920956Y-62944536D02*
X82816194Y-63039774D01*
X82816194Y-63039774D02*
X82711432Y-63087393D01*
X81873337Y-63087393D02*
X81192384Y-63087393D01*
X81192384Y-63087393D02*
X81559051Y-62706441D01*
X81559051Y-62706441D02*
X81401908Y-62706441D01*
X81401908Y-62706441D02*
X81297146Y-62658822D01*
X81297146Y-62658822D02*
X81244765Y-62611203D01*
X81244765Y-62611203D02*
X81192384Y-62515965D01*
X81192384Y-62515965D02*
X81192384Y-62277870D01*
X81192384Y-62277870D02*
X81244765Y-62182632D01*
X81244765Y-62182632D02*
X81297146Y-62135013D01*
X81297146Y-62135013D02*
X81401908Y-62087393D01*
X81401908Y-62087393D02*
X81716194Y-62087393D01*
X81716194Y-62087393D02*
X81820956Y-62135013D01*
X81820956Y-62135013D02*
X81873337Y-62182632D01*
X80249527Y-62754060D02*
X80249527Y-62087393D01*
X80511432Y-63135013D02*
X80773337Y-62420727D01*
X80773337Y-62420727D02*
X80092384Y-62420727D01*
X85068575Y-65539774D02*
X85173337Y-65587393D01*
X85173337Y-65587393D02*
X85330480Y-65587393D01*
X85330480Y-65587393D02*
X85487623Y-65539774D01*
X85487623Y-65539774D02*
X85592385Y-65444536D01*
X85592385Y-65444536D02*
X85644766Y-65349298D01*
X85644766Y-65349298D02*
X85697147Y-65158822D01*
X85697147Y-65158822D02*
X85697147Y-65015965D01*
X85697147Y-65015965D02*
X85644766Y-64825489D01*
X85644766Y-64825489D02*
X85592385Y-64730251D01*
X85592385Y-64730251D02*
X85487623Y-64635013D01*
X85487623Y-64635013D02*
X85330480Y-64587393D01*
X85330480Y-64587393D02*
X85225718Y-64587393D01*
X85225718Y-64587393D02*
X85068575Y-64635013D01*
X85068575Y-64635013D02*
X85016194Y-64682632D01*
X85016194Y-64682632D02*
X85016194Y-65015965D01*
X85016194Y-65015965D02*
X85225718Y-65015965D01*
X84544766Y-64587393D02*
X84544766Y-65587393D01*
X84544766Y-65587393D02*
X84125718Y-65587393D01*
X84125718Y-65587393D02*
X84020956Y-65539774D01*
X84020956Y-65539774D02*
X83968575Y-65492155D01*
X83968575Y-65492155D02*
X83916194Y-65396917D01*
X83916194Y-65396917D02*
X83916194Y-65254060D01*
X83916194Y-65254060D02*
X83968575Y-65158822D01*
X83968575Y-65158822D02*
X84020956Y-65111203D01*
X84020956Y-65111203D02*
X84125718Y-65063584D01*
X84125718Y-65063584D02*
X84544766Y-65063584D01*
X83444766Y-64587393D02*
X83444766Y-65587393D01*
X82711432Y-65587393D02*
X82501908Y-65587393D01*
X82501908Y-65587393D02*
X82397146Y-65539774D01*
X82397146Y-65539774D02*
X82292384Y-65444536D01*
X82292384Y-65444536D02*
X82240003Y-65254060D01*
X82240003Y-65254060D02*
X82240003Y-64920727D01*
X82240003Y-64920727D02*
X82292384Y-64730251D01*
X82292384Y-64730251D02*
X82397146Y-64635013D01*
X82397146Y-64635013D02*
X82501908Y-64587393D01*
X82501908Y-64587393D02*
X82711432Y-64587393D01*
X82711432Y-64587393D02*
X82816194Y-64635013D01*
X82816194Y-64635013D02*
X82920956Y-64730251D01*
X82920956Y-64730251D02*
X82973337Y-64920727D01*
X82973337Y-64920727D02*
X82973337Y-65254060D01*
X82973337Y-65254060D02*
X82920956Y-65444536D01*
X82920956Y-65444536D02*
X82816194Y-65539774D01*
X82816194Y-65539774D02*
X82711432Y-65587393D01*
X81873337Y-65587393D02*
X81192384Y-65587393D01*
X81192384Y-65587393D02*
X81559051Y-65206441D01*
X81559051Y-65206441D02*
X81401908Y-65206441D01*
X81401908Y-65206441D02*
X81297146Y-65158822D01*
X81297146Y-65158822D02*
X81244765Y-65111203D01*
X81244765Y-65111203D02*
X81192384Y-65015965D01*
X81192384Y-65015965D02*
X81192384Y-64777870D01*
X81192384Y-64777870D02*
X81244765Y-64682632D01*
X81244765Y-64682632D02*
X81297146Y-64635013D01*
X81297146Y-64635013D02*
X81401908Y-64587393D01*
X81401908Y-64587393D02*
X81716194Y-64587393D01*
X81716194Y-64587393D02*
X81820956Y-64635013D01*
X81820956Y-64635013D02*
X81873337Y-64682632D01*
X80668575Y-64587393D02*
X80459051Y-64587393D01*
X80459051Y-64587393D02*
X80354289Y-64635013D01*
X80354289Y-64635013D02*
X80301908Y-64682632D01*
X80301908Y-64682632D02*
X80197146Y-64825489D01*
X80197146Y-64825489D02*
X80144765Y-65015965D01*
X80144765Y-65015965D02*
X80144765Y-65396917D01*
X80144765Y-65396917D02*
X80197146Y-65492155D01*
X80197146Y-65492155D02*
X80249527Y-65539774D01*
X80249527Y-65539774D02*
X80354289Y-65587393D01*
X80354289Y-65587393D02*
X80563813Y-65587393D01*
X80563813Y-65587393D02*
X80668575Y-65539774D01*
X80668575Y-65539774D02*
X80720956Y-65492155D01*
X80720956Y-65492155D02*
X80773337Y-65396917D01*
X80773337Y-65396917D02*
X80773337Y-65158822D01*
X80773337Y-65158822D02*
X80720956Y-65063584D01*
X80720956Y-65063584D02*
X80668575Y-65015965D01*
X80668575Y-65015965D02*
X80563813Y-64968346D01*
X80563813Y-64968346D02*
X80354289Y-64968346D01*
X80354289Y-64968346D02*
X80249527Y-65015965D01*
X80249527Y-65015965D02*
X80197146Y-65063584D01*
X80197146Y-65063584D02*
X80144765Y-65158822D01*
X85068575Y-68039774D02*
X85173337Y-68087393D01*
X85173337Y-68087393D02*
X85330480Y-68087393D01*
X85330480Y-68087393D02*
X85487623Y-68039774D01*
X85487623Y-68039774D02*
X85592385Y-67944536D01*
X85592385Y-67944536D02*
X85644766Y-67849298D01*
X85644766Y-67849298D02*
X85697147Y-67658822D01*
X85697147Y-67658822D02*
X85697147Y-67515965D01*
X85697147Y-67515965D02*
X85644766Y-67325489D01*
X85644766Y-67325489D02*
X85592385Y-67230251D01*
X85592385Y-67230251D02*
X85487623Y-67135013D01*
X85487623Y-67135013D02*
X85330480Y-67087393D01*
X85330480Y-67087393D02*
X85225718Y-67087393D01*
X85225718Y-67087393D02*
X85068575Y-67135013D01*
X85068575Y-67135013D02*
X85016194Y-67182632D01*
X85016194Y-67182632D02*
X85016194Y-67515965D01*
X85016194Y-67515965D02*
X85225718Y-67515965D01*
X84544766Y-67087393D02*
X84544766Y-68087393D01*
X84544766Y-68087393D02*
X84125718Y-68087393D01*
X84125718Y-68087393D02*
X84020956Y-68039774D01*
X84020956Y-68039774D02*
X83968575Y-67992155D01*
X83968575Y-67992155D02*
X83916194Y-67896917D01*
X83916194Y-67896917D02*
X83916194Y-67754060D01*
X83916194Y-67754060D02*
X83968575Y-67658822D01*
X83968575Y-67658822D02*
X84020956Y-67611203D01*
X84020956Y-67611203D02*
X84125718Y-67563584D01*
X84125718Y-67563584D02*
X84544766Y-67563584D01*
X83444766Y-67087393D02*
X83444766Y-68087393D01*
X82711432Y-68087393D02*
X82501908Y-68087393D01*
X82501908Y-68087393D02*
X82397146Y-68039774D01*
X82397146Y-68039774D02*
X82292384Y-67944536D01*
X82292384Y-67944536D02*
X82240003Y-67754060D01*
X82240003Y-67754060D02*
X82240003Y-67420727D01*
X82240003Y-67420727D02*
X82292384Y-67230251D01*
X82292384Y-67230251D02*
X82397146Y-67135013D01*
X82397146Y-67135013D02*
X82501908Y-67087393D01*
X82501908Y-67087393D02*
X82711432Y-67087393D01*
X82711432Y-67087393D02*
X82816194Y-67135013D01*
X82816194Y-67135013D02*
X82920956Y-67230251D01*
X82920956Y-67230251D02*
X82973337Y-67420727D01*
X82973337Y-67420727D02*
X82973337Y-67754060D01*
X82973337Y-67754060D02*
X82920956Y-67944536D01*
X82920956Y-67944536D02*
X82816194Y-68039774D01*
X82816194Y-68039774D02*
X82711432Y-68087393D01*
X81873337Y-68087393D02*
X81192384Y-68087393D01*
X81192384Y-68087393D02*
X81559051Y-67706441D01*
X81559051Y-67706441D02*
X81401908Y-67706441D01*
X81401908Y-67706441D02*
X81297146Y-67658822D01*
X81297146Y-67658822D02*
X81244765Y-67611203D01*
X81244765Y-67611203D02*
X81192384Y-67515965D01*
X81192384Y-67515965D02*
X81192384Y-67277870D01*
X81192384Y-67277870D02*
X81244765Y-67182632D01*
X81244765Y-67182632D02*
X81297146Y-67135013D01*
X81297146Y-67135013D02*
X81401908Y-67087393D01*
X81401908Y-67087393D02*
X81716194Y-67087393D01*
X81716194Y-67087393D02*
X81820956Y-67135013D01*
X81820956Y-67135013D02*
X81873337Y-67182632D01*
X80249527Y-68087393D02*
X80459051Y-68087393D01*
X80459051Y-68087393D02*
X80563813Y-68039774D01*
X80563813Y-68039774D02*
X80616194Y-67992155D01*
X80616194Y-67992155D02*
X80720956Y-67849298D01*
X80720956Y-67849298D02*
X80773337Y-67658822D01*
X80773337Y-67658822D02*
X80773337Y-67277870D01*
X80773337Y-67277870D02*
X80720956Y-67182632D01*
X80720956Y-67182632D02*
X80668575Y-67135013D01*
X80668575Y-67135013D02*
X80563813Y-67087393D01*
X80563813Y-67087393D02*
X80354289Y-67087393D01*
X80354289Y-67087393D02*
X80249527Y-67135013D01*
X80249527Y-67135013D02*
X80197146Y-67182632D01*
X80197146Y-67182632D02*
X80144765Y-67277870D01*
X80144765Y-67277870D02*
X80144765Y-67515965D01*
X80144765Y-67515965D02*
X80197146Y-67611203D01*
X80197146Y-67611203D02*
X80249527Y-67658822D01*
X80249527Y-67658822D02*
X80354289Y-67706441D01*
X80354289Y-67706441D02*
X80563813Y-67706441D01*
X80563813Y-67706441D02*
X80668575Y-67658822D01*
X80668575Y-67658822D02*
X80720956Y-67611203D01*
X80720956Y-67611203D02*
X80773337Y-67515965D01*
X85644766Y-70111203D02*
X85278099Y-70111203D01*
X85120956Y-69587393D02*
X85644766Y-69587393D01*
X85644766Y-69587393D02*
X85644766Y-70587393D01*
X85644766Y-70587393D02*
X85120956Y-70587393D01*
X84649528Y-69587393D02*
X84649528Y-70587393D01*
X84649528Y-70587393D02*
X84020956Y-69587393D01*
X84020956Y-69587393D02*
X84020956Y-70587393D01*
D10*
X28666666Y-91504819D02*
X28333333Y-91028628D01*
X28095238Y-91504819D02*
X28095238Y-90504819D01*
X28095238Y-90504819D02*
X28476190Y-90504819D01*
X28476190Y-90504819D02*
X28571428Y-90552438D01*
X28571428Y-90552438D02*
X28619047Y-90600057D01*
X28619047Y-90600057D02*
X28666666Y-90695295D01*
X28666666Y-90695295D02*
X28666666Y-90838152D01*
X28666666Y-90838152D02*
X28619047Y-90933390D01*
X28619047Y-90933390D02*
X28571428Y-90981009D01*
X28571428Y-90981009D02*
X28476190Y-91028628D01*
X28476190Y-91028628D02*
X28095238Y-91028628D01*
X29095238Y-90981009D02*
X29428571Y-90981009D01*
X29571428Y-91504819D02*
X29095238Y-91504819D01*
X29095238Y-91504819D02*
X29095238Y-90504819D01*
X29095238Y-90504819D02*
X29571428Y-90504819D01*
X30333333Y-90981009D02*
X30000000Y-90981009D01*
X30000000Y-91504819D02*
X30000000Y-90504819D01*
X30000000Y-90504819D02*
X30476190Y-90504819D01*
X31000000Y-90504819D02*
X31000000Y-90742914D01*
X30761905Y-90647676D02*
X31000000Y-90742914D01*
X31000000Y-90742914D02*
X31238095Y-90647676D01*
X30857143Y-90933390D02*
X31000000Y-90742914D01*
X31000000Y-90742914D02*
X31142857Y-90933390D01*
X31761905Y-90504819D02*
X31761905Y-90742914D01*
X31523810Y-90647676D02*
X31761905Y-90742914D01*
X31761905Y-90742914D02*
X32000000Y-90647676D01*
X31619048Y-90933390D02*
X31761905Y-90742914D01*
X31761905Y-90742914D02*
X31904762Y-90933390D01*
X35029819Y-78833333D02*
X35744104Y-78833333D01*
X35744104Y-78833333D02*
X35886961Y-78880952D01*
X35886961Y-78880952D02*
X35982200Y-78976190D01*
X35982200Y-78976190D02*
X36029819Y-79119047D01*
X36029819Y-79119047D02*
X36029819Y-79214285D01*
X35029819Y-77880952D02*
X35029819Y-78357142D01*
X35029819Y-78357142D02*
X35506009Y-78404761D01*
X35506009Y-78404761D02*
X35458390Y-78357142D01*
X35458390Y-78357142D02*
X35410771Y-78261904D01*
X35410771Y-78261904D02*
X35410771Y-78023809D01*
X35410771Y-78023809D02*
X35458390Y-77928571D01*
X35458390Y-77928571D02*
X35506009Y-77880952D01*
X35506009Y-77880952D02*
X35601247Y-77833333D01*
X35601247Y-77833333D02*
X35839342Y-77833333D01*
X35839342Y-77833333D02*
X35934580Y-77880952D01*
X35934580Y-77880952D02*
X35982200Y-77928571D01*
X35982200Y-77928571D02*
X36029819Y-78023809D01*
X36029819Y-78023809D02*
X36029819Y-78261904D01*
X36029819Y-78261904D02*
X35982200Y-78357142D01*
X35982200Y-78357142D02*
X35934580Y-78404761D01*
X95404761Y-88904819D02*
X95071428Y-88428628D01*
X94833333Y-88904819D02*
X94833333Y-87904819D01*
X94833333Y-87904819D02*
X95214285Y-87904819D01*
X95214285Y-87904819D02*
X95309523Y-87952438D01*
X95309523Y-87952438D02*
X95357142Y-88000057D01*
X95357142Y-88000057D02*
X95404761Y-88095295D01*
X95404761Y-88095295D02*
X95404761Y-88238152D01*
X95404761Y-88238152D02*
X95357142Y-88333390D01*
X95357142Y-88333390D02*
X95309523Y-88381009D01*
X95309523Y-88381009D02*
X95214285Y-88428628D01*
X95214285Y-88428628D02*
X94833333Y-88428628D01*
X95690476Y-87904819D02*
X96023809Y-88904819D01*
X96023809Y-88904819D02*
X96357142Y-87904819D01*
X97119047Y-88238152D02*
X97119047Y-88904819D01*
X96880952Y-87857200D02*
X96642857Y-88571485D01*
X96642857Y-88571485D02*
X97261904Y-88571485D01*
X43107142Y-75609580D02*
X43059523Y-75657200D01*
X43059523Y-75657200D02*
X42916666Y-75704819D01*
X42916666Y-75704819D02*
X42821428Y-75704819D01*
X42821428Y-75704819D02*
X42678571Y-75657200D01*
X42678571Y-75657200D02*
X42583333Y-75561961D01*
X42583333Y-75561961D02*
X42535714Y-75466723D01*
X42535714Y-75466723D02*
X42488095Y-75276247D01*
X42488095Y-75276247D02*
X42488095Y-75133390D01*
X42488095Y-75133390D02*
X42535714Y-74942914D01*
X42535714Y-74942914D02*
X42583333Y-74847676D01*
X42583333Y-74847676D02*
X42678571Y-74752438D01*
X42678571Y-74752438D02*
X42821428Y-74704819D01*
X42821428Y-74704819D02*
X42916666Y-74704819D01*
X42916666Y-74704819D02*
X43059523Y-74752438D01*
X43059523Y-74752438D02*
X43107142Y-74800057D01*
X44059523Y-75704819D02*
X43488095Y-75704819D01*
X43773809Y-75704819D02*
X43773809Y-74704819D01*
X43773809Y-74704819D02*
X43678571Y-74847676D01*
X43678571Y-74847676D02*
X43583333Y-74942914D01*
X43583333Y-74942914D02*
X43488095Y-74990533D01*
X45011904Y-75704819D02*
X44440476Y-75704819D01*
X44726190Y-75704819D02*
X44726190Y-74704819D01*
X44726190Y-74704819D02*
X44630952Y-74847676D01*
X44630952Y-74847676D02*
X44535714Y-74942914D01*
X44535714Y-74942914D02*
X44440476Y-74990533D01*
%TO.C,J6*%
D12*
X51730000Y-33670000D02*
X38970000Y-33670000D01*
X51730000Y-33670000D02*
X51730000Y-36330000D01*
X38970000Y-33670000D02*
X38970000Y-36330000D01*
X54330000Y-35000000D02*
X54330000Y-36330000D01*
X54330000Y-36330000D02*
X53000000Y-36330000D01*
X51730000Y-36330000D02*
X38970000Y-36330000D01*
%TO.C,J2*%
X71270000Y-94330000D02*
X81490000Y-94330000D01*
X71270000Y-94330000D02*
X71270000Y-91670000D01*
X81490000Y-94330000D02*
X81490000Y-91670000D01*
X68670000Y-93000000D02*
X68670000Y-91670000D01*
X68670000Y-91670000D02*
X70000000Y-91670000D01*
X71270000Y-91670000D02*
X81490000Y-91670000D01*
%TO.C,J1*%
X106730000Y-33670000D02*
X93970000Y-33670000D01*
X106730000Y-33670000D02*
X106730000Y-36330000D01*
X93970000Y-33670000D02*
X93970000Y-36330000D01*
X109330000Y-35000000D02*
X109330000Y-36330000D01*
X109330000Y-36330000D02*
X108000000Y-36330000D01*
X106730000Y-36330000D02*
X93970000Y-36330000D01*
%TO.C,U1*%
X34850000Y-41550000D02*
X34850000Y-59450000D01*
X34850000Y-59450000D02*
X36500000Y-59450000D01*
X38500000Y-59450000D02*
X40150000Y-59450000D01*
X40150000Y-41550000D02*
X34850000Y-41550000D01*
X40150000Y-59450000D02*
X40150000Y-41550000D01*
X36500000Y-59450000D02*
G75*
G02*
X38500000Y-59450000I1000000J0D01*
G01*
%TO.C,RV2*%
X98750000Y-62100000D02*
X98750000Y-63350000D01*
X98750000Y-63350000D02*
X100000000Y-63350000D01*
X101300000Y-52950000D02*
X101300000Y-53700000D01*
X101300000Y-53700000D02*
X104250000Y-53700000D01*
X101300000Y-62300000D02*
X104250000Y-62300000D01*
X101300000Y-63050000D02*
X101300000Y-62300000D01*
X104250000Y-53700000D02*
X104250000Y-58000000D01*
X104250000Y-62300000D02*
X104250000Y-58000000D01*
X99040000Y-52940000D02*
X105010000Y-52940000D01*
X105010000Y-63060000D01*
X99040000Y-63060000D01*
X99040000Y-52940000D01*
X99050000Y-52950000D02*
X99800000Y-52950000D01*
X99800000Y-54750000D01*
X99050000Y-54750000D01*
X99050000Y-52950000D01*
X99050000Y-56250000D02*
X99800000Y-56250000D01*
X99800000Y-59750000D01*
X99050000Y-59750000D01*
X99050000Y-56250000D01*
X99050000Y-61250000D02*
X99800000Y-61250000D01*
X99800000Y-63050000D01*
X99050000Y-63050000D01*
X99050000Y-61250000D01*
%TO.C,C3*%
X35130000Y-62130000D02*
X40370000Y-62130000D01*
X35130000Y-64870000D02*
X35130000Y-62130000D01*
X40370000Y-62130000D02*
X40370000Y-64870000D01*
X40370000Y-64870000D02*
X35130000Y-64870000D01*
%TO.C,C10*%
X56130000Y-80130000D02*
X58870000Y-80130000D01*
X56130000Y-85370000D02*
X56130000Y-80130000D01*
X58870000Y-80130000D02*
X58870000Y-85370000D01*
X58870000Y-85370000D02*
X56130000Y-85370000D01*
%TO.C,C8*%
X109130000Y-55130000D02*
X111870000Y-55130000D01*
X109130000Y-60370000D02*
X109130000Y-55130000D01*
X111870000Y-55130000D02*
X111870000Y-60370000D01*
X111870000Y-60370000D02*
X109130000Y-60370000D01*
%TO.C,C6*%
X92130000Y-70130000D02*
X94870000Y-70130000D01*
X92130000Y-75370000D02*
X92130000Y-70130000D01*
X94870000Y-70130000D02*
X94870000Y-75370000D01*
X94870000Y-75370000D02*
X92130000Y-75370000D01*
%TO.C,RV5*%
X116250000Y-62100000D02*
X116250000Y-63350000D01*
X116250000Y-63350000D02*
X117500000Y-63350000D01*
X118800000Y-52950000D02*
X118800000Y-53700000D01*
X118800000Y-53700000D02*
X121750000Y-53700000D01*
X118800000Y-62300000D02*
X121750000Y-62300000D01*
X118800000Y-63050000D02*
X118800000Y-62300000D01*
X121750000Y-53700000D02*
X121750000Y-58000000D01*
X121750000Y-62300000D02*
X121750000Y-58000000D01*
X116540000Y-52940000D02*
X122510000Y-52940000D01*
X122510000Y-63060000D01*
X116540000Y-63060000D01*
X116540000Y-52940000D01*
X116550000Y-52950000D02*
X117300000Y-52950000D01*
X117300000Y-54750000D01*
X116550000Y-54750000D01*
X116550000Y-52950000D01*
X116550000Y-56250000D02*
X117300000Y-56250000D01*
X117300000Y-59750000D01*
X116550000Y-59750000D01*
X116550000Y-56250000D01*
X116550000Y-61250000D02*
X117300000Y-61250000D01*
X117300000Y-63050000D01*
X116550000Y-63050000D01*
X116550000Y-61250000D01*
%TO.C,C5*%
X91630000Y-55130000D02*
X94370000Y-55130000D01*
X91630000Y-60370000D02*
X91630000Y-55130000D01*
X94370000Y-55130000D02*
X94370000Y-60370000D01*
X94370000Y-60370000D02*
X91630000Y-60370000D01*
%TO.C,C1*%
X106170000Y-45533000D02*
X106170000Y-44467000D01*
X106210000Y-45768000D02*
X106210000Y-44232000D01*
X106250000Y-45947000D02*
X106250000Y-44053000D01*
X106290000Y-46097000D02*
X106290000Y-43903000D01*
X106330000Y-46228000D02*
X106330000Y-43772000D01*
X106370000Y-46346000D02*
X106370000Y-43654000D01*
X106410000Y-46453000D02*
X106410000Y-43547000D01*
X106450000Y-46552000D02*
X106450000Y-43448000D01*
X106490000Y-46644000D02*
X106490000Y-43356000D01*
X106530000Y-46731000D02*
X106530000Y-43269000D01*
X106570000Y-46813000D02*
X106570000Y-43187000D01*
X106610000Y-46890000D02*
X106610000Y-43110000D01*
X106650000Y-46964000D02*
X106650000Y-43036000D01*
X106690000Y-47034000D02*
X106690000Y-42966000D01*
X106730000Y-47101000D02*
X106730000Y-42899000D01*
X106770000Y-47165000D02*
X106770000Y-42835000D01*
X106810000Y-47227000D02*
X106810000Y-42773000D01*
X106850000Y-47287000D02*
X106850000Y-42713000D01*
X106890000Y-47344000D02*
X106890000Y-42656000D01*
X106930000Y-47400000D02*
X106930000Y-42600000D01*
X106970000Y-47453000D02*
X106970000Y-42547000D01*
X107010000Y-47505000D02*
X107010000Y-42495000D01*
X107050000Y-47555000D02*
X107050000Y-42445000D01*
X107090000Y-47604000D02*
X107090000Y-42396000D01*
X107130000Y-47651000D02*
X107130000Y-42349000D01*
X107170000Y-47696000D02*
X107170000Y-42304000D01*
X107210000Y-47741000D02*
X107210000Y-42259000D01*
X107250000Y-47784000D02*
X107250000Y-42216000D01*
X107290000Y-47826000D02*
X107290000Y-42174000D01*
X107330000Y-47867000D02*
X107330000Y-42133000D01*
X107370000Y-47906000D02*
X107370000Y-42094000D01*
X107410000Y-47945000D02*
X107410000Y-42055000D01*
X107450000Y-47982000D02*
X107450000Y-42018000D01*
X107490000Y-43960000D02*
X107490000Y-41981000D01*
X107490000Y-48019000D02*
X107490000Y-46040000D01*
X107530000Y-43960000D02*
X107530000Y-41945000D01*
X107530000Y-48055000D02*
X107530000Y-46040000D01*
X107570000Y-43960000D02*
X107570000Y-41911000D01*
X107570000Y-48089000D02*
X107570000Y-46040000D01*
X107610000Y-43960000D02*
X107610000Y-41877000D01*
X107610000Y-48123000D02*
X107610000Y-46040000D01*
X107650000Y-43960000D02*
X107650000Y-41844000D01*
X107650000Y-48156000D02*
X107650000Y-46040000D01*
X107690000Y-43960000D02*
X107690000Y-41812000D01*
X107690000Y-48188000D02*
X107690000Y-46040000D01*
X107730000Y-43960000D02*
X107730000Y-41781000D01*
X107730000Y-48219000D02*
X107730000Y-46040000D01*
X107770000Y-43960000D02*
X107770000Y-41750000D01*
X107770000Y-48250000D02*
X107770000Y-46040000D01*
X107810000Y-43960000D02*
X107810000Y-41720000D01*
X107810000Y-48280000D02*
X107810000Y-46040000D01*
X107850000Y-43960000D02*
X107850000Y-41691000D01*
X107850000Y-48309000D02*
X107850000Y-46040000D01*
X107890000Y-43960000D02*
X107890000Y-41663000D01*
X107890000Y-48337000D02*
X107890000Y-46040000D01*
X107930000Y-43960000D02*
X107930000Y-41635000D01*
X107930000Y-48365000D02*
X107930000Y-46040000D01*
X107970000Y-43960000D02*
X107970000Y-41608000D01*
X107970000Y-48392000D02*
X107970000Y-46040000D01*
X108010000Y-43960000D02*
X108010000Y-41582000D01*
X108010000Y-48418000D02*
X108010000Y-46040000D01*
X108050000Y-43960000D02*
X108050000Y-41557000D01*
X108050000Y-48443000D02*
X108050000Y-46040000D01*
X108090000Y-43960000D02*
X108090000Y-41532000D01*
X108090000Y-48468000D02*
X108090000Y-46040000D01*
X108130000Y-43960000D02*
X108130000Y-41507000D01*
X108130000Y-48493000D02*
X108130000Y-46040000D01*
X108170000Y-43960000D02*
X108170000Y-41484000D01*
X108170000Y-48516000D02*
X108170000Y-46040000D01*
X108210000Y-43960000D02*
X108210000Y-41461000D01*
X108210000Y-48539000D02*
X108210000Y-46040000D01*
X108250000Y-43960000D02*
X108250000Y-41438000D01*
X108250000Y-48562000D02*
X108250000Y-46040000D01*
X108290000Y-43960000D02*
X108290000Y-41416000D01*
X108290000Y-48584000D02*
X108290000Y-46040000D01*
X108330000Y-43960000D02*
X108330000Y-41395000D01*
X108330000Y-48605000D02*
X108330000Y-46040000D01*
X108370000Y-43960000D02*
X108370000Y-41374000D01*
X108370000Y-48626000D02*
X108370000Y-46040000D01*
X108410000Y-43960000D02*
X108410000Y-41354000D01*
X108410000Y-48646000D02*
X108410000Y-46040000D01*
X108450000Y-43960000D02*
X108450000Y-41334000D01*
X108450000Y-48666000D02*
X108450000Y-46040000D01*
X108490000Y-43960000D02*
X108490000Y-41315000D01*
X108490000Y-48685000D02*
X108490000Y-46040000D01*
X108530000Y-43960000D02*
X108530000Y-41296000D01*
X108530000Y-48704000D02*
X108530000Y-46040000D01*
X108570000Y-43960000D02*
X108570000Y-41278000D01*
X108570000Y-48722000D02*
X108570000Y-46040000D01*
X108610000Y-43960000D02*
X108610000Y-41260000D01*
X108610000Y-48740000D02*
X108610000Y-46040000D01*
X108650000Y-43960000D02*
X108650000Y-41243000D01*
X108650000Y-48757000D02*
X108650000Y-46040000D01*
X108690000Y-43960000D02*
X108690000Y-41227000D01*
X108690000Y-48773000D02*
X108690000Y-46040000D01*
X108730000Y-43960000D02*
X108730000Y-41211000D01*
X108730000Y-48789000D02*
X108730000Y-46040000D01*
X108770000Y-43960000D02*
X108770000Y-41195000D01*
X108770000Y-48805000D02*
X108770000Y-46040000D01*
X108810000Y-43960000D02*
X108810000Y-41180000D01*
X108810000Y-48820000D02*
X108810000Y-46040000D01*
X108850000Y-43960000D02*
X108850000Y-41165000D01*
X108850000Y-48835000D02*
X108850000Y-46040000D01*
X108890000Y-43960000D02*
X108890000Y-41151000D01*
X108890000Y-48849000D02*
X108890000Y-46040000D01*
X108930000Y-43960000D02*
X108930000Y-41137000D01*
X108930000Y-48863000D02*
X108930000Y-46040000D01*
X108970000Y-43960000D02*
X108970000Y-41124000D01*
X108970000Y-48876000D02*
X108970000Y-46040000D01*
X109010000Y-43960000D02*
X109010000Y-41111000D01*
X109010000Y-48889000D02*
X109010000Y-46040000D01*
X109050000Y-43960000D02*
X109050000Y-41099000D01*
X109050000Y-48901000D02*
X109050000Y-46040000D01*
X109090000Y-43960000D02*
X109090000Y-41087000D01*
X109090000Y-48913000D02*
X109090000Y-46040000D01*
X109130000Y-43960000D02*
X109130000Y-41075000D01*
X109130000Y-48925000D02*
X109130000Y-46040000D01*
X109170000Y-43960000D02*
X109170000Y-41064000D01*
X109170000Y-48936000D02*
X109170000Y-46040000D01*
X109210000Y-43960000D02*
X109210000Y-41053000D01*
X109210000Y-48947000D02*
X109210000Y-46040000D01*
X109250000Y-43960000D02*
X109250000Y-41043000D01*
X109250000Y-48957000D02*
X109250000Y-46040000D01*
X109290000Y-43960000D02*
X109290000Y-41033000D01*
X109290000Y-48967000D02*
X109290000Y-46040000D01*
X109330000Y-43960000D02*
X109330000Y-41024000D01*
X109330000Y-48976000D02*
X109330000Y-46040000D01*
X109370000Y-43960000D02*
X109370000Y-41015000D01*
X109370000Y-48985000D02*
X109370000Y-46040000D01*
X109410000Y-43960000D02*
X109410000Y-41007000D01*
X109410000Y-48993000D02*
X109410000Y-46040000D01*
X109450000Y-43960000D02*
X109450000Y-40998000D01*
X109450000Y-49002000D02*
X109450000Y-46040000D01*
X109490000Y-43960000D02*
X109490000Y-40991000D01*
X109490000Y-49009000D02*
X109490000Y-46040000D01*
X109530000Y-43960000D02*
X109530000Y-40983000D01*
X109530000Y-49017000D02*
X109530000Y-46040000D01*
X109570000Y-49023000D02*
X109570000Y-40977000D01*
X109610000Y-49030000D02*
X109610000Y-40970000D01*
X109650000Y-49036000D02*
X109650000Y-40964000D01*
X109690000Y-49042000D02*
X109690000Y-40958000D01*
X109730000Y-49047000D02*
X109730000Y-40953000D01*
X109770000Y-49052000D02*
X109770000Y-40948000D01*
X109810000Y-49056000D02*
X109810000Y-40944000D01*
X109850000Y-49061000D02*
X109850000Y-40939000D01*
X109890000Y-49064000D02*
X109890000Y-40936000D01*
X109930000Y-49068000D02*
X109930000Y-40932000D01*
X109970000Y-49070000D02*
X109970000Y-40930000D01*
X110010000Y-49073000D02*
X110010000Y-40927000D01*
X110050000Y-49075000D02*
X110050000Y-40925000D01*
X110090000Y-49077000D02*
X110090000Y-40923000D01*
X110130000Y-49078000D02*
X110130000Y-40922000D01*
X110170000Y-49079000D02*
X110170000Y-40921000D01*
X110210000Y-49080000D02*
X110210000Y-40920000D01*
X110250000Y-49080000D02*
X110250000Y-40920000D01*
X114259698Y-47715000D02*
X114259698Y-46915000D01*
X114659698Y-47315000D02*
X113859698Y-47315000D01*
X114370000Y-45000000D02*
G75*
G02*
X106130000Y-45000000I-4120000J0D01*
G01*
X106130000Y-45000000D02*
G75*
G02*
X114370000Y-45000000I4120000J0D01*
G01*
%TO.C,J4*%
X43380000Y-89580000D02*
X55700000Y-89580000D01*
X43380000Y-97620000D02*
X43380000Y-89580000D01*
X44188000Y-93000000D02*
X43380000Y-93000000D01*
X44188000Y-94000000D02*
X43380000Y-94000000D01*
X45457000Y-91700000D02*
X43380000Y-91700000D01*
X49188000Y-93000000D02*
X47812000Y-93000000D01*
X49188000Y-94000000D02*
X47812000Y-94000000D01*
X50457000Y-91700000D02*
X46543000Y-91700000D01*
X54120000Y-91700000D02*
X51543000Y-91700000D01*
X54120000Y-93000000D02*
X52812000Y-93000000D01*
X54120000Y-94000000D02*
X52812000Y-94000000D01*
X56300000Y-89580000D02*
X59120000Y-89580000D01*
X59120000Y-89580000D02*
X59120000Y-97620000D01*
X59120000Y-91700000D02*
X57880000Y-91700000D01*
X59120000Y-93000000D02*
X57880000Y-93000000D01*
X59120000Y-94000000D02*
X57880000Y-94000000D01*
X59120000Y-97620000D02*
X43380000Y-97620000D01*
X56000000Y-89580000D02*
X55560000Y-88970000D01*
X56440000Y-88970000D01*
X56000000Y-89580000D01*
G36*
X56000000Y-89580000D02*
G01*
X55560000Y-88970000D01*
X56440000Y-88970000D01*
X56000000Y-89580000D01*
G37*
%TO.C,C9*%
X94130000Y-43630000D02*
X99370000Y-43630000D01*
X94130000Y-46370000D02*
X94130000Y-43630000D01*
X99370000Y-43630000D02*
X99370000Y-46370000D01*
X99370000Y-46370000D02*
X94130000Y-46370000D01*
%TO.C,RV1*%
X114750000Y-85600000D02*
X114750000Y-86850000D01*
X114750000Y-86850000D02*
X116000000Y-86850000D01*
X117300000Y-76450000D02*
X117300000Y-77200000D01*
X117300000Y-77200000D02*
X120250000Y-77200000D01*
X117300000Y-85800000D02*
X120250000Y-85800000D01*
X117300000Y-86550000D02*
X117300000Y-85800000D01*
X120250000Y-77200000D02*
X120250000Y-81500000D01*
X120250000Y-85800000D02*
X120250000Y-81500000D01*
X115040000Y-76440000D02*
X121010000Y-76440000D01*
X121010000Y-86560000D01*
X115040000Y-86560000D01*
X115040000Y-76440000D01*
X115050000Y-76450000D02*
X115800000Y-76450000D01*
X115800000Y-78250000D01*
X115050000Y-78250000D01*
X115050000Y-76450000D01*
X115050000Y-79750000D02*
X115800000Y-79750000D01*
X115800000Y-83250000D01*
X115050000Y-83250000D01*
X115050000Y-79750000D01*
X115050000Y-84750000D02*
X115800000Y-84750000D01*
X115800000Y-86550000D01*
X115050000Y-86550000D01*
X115050000Y-84750000D01*
%TO.C,C4*%
X114880000Y-69130000D02*
X120120000Y-69130000D01*
X114880000Y-71870000D02*
X114880000Y-69130000D01*
X120120000Y-69130000D02*
X120120000Y-71870000D01*
X120120000Y-71870000D02*
X114880000Y-71870000D01*
%TO.C,C7*%
X93130000Y-82630000D02*
X98370000Y-82630000D01*
X93130000Y-85370000D02*
X93130000Y-82630000D01*
X98370000Y-82630000D02*
X98370000Y-85370000D01*
X98370000Y-85370000D02*
X93130000Y-85370000D01*
%TO.C,RV3*%
X98750000Y-76600000D02*
X98750000Y-77850000D01*
X98750000Y-77850000D02*
X100000000Y-77850000D01*
X101300000Y-67450000D02*
X101300000Y-68200000D01*
X101300000Y-68200000D02*
X104250000Y-68200000D01*
X101300000Y-76800000D02*
X104250000Y-76800000D01*
X101300000Y-77550000D02*
X101300000Y-76800000D01*
X104250000Y-68200000D02*
X104250000Y-72500000D01*
X104250000Y-76800000D02*
X104250000Y-72500000D01*
X99040000Y-67440000D02*
X105010000Y-67440000D01*
X105010000Y-77560000D01*
X99040000Y-77560000D01*
X99040000Y-67440000D01*
X99050000Y-67450000D02*
X99800000Y-67450000D01*
X99800000Y-69250000D01*
X99050000Y-69250000D01*
X99050000Y-67450000D01*
X99050000Y-70750000D02*
X99800000Y-70750000D01*
X99800000Y-74250000D01*
X99050000Y-74250000D01*
X99050000Y-70750000D01*
X99050000Y-75750000D02*
X99800000Y-75750000D01*
X99800000Y-77550000D01*
X99050000Y-77550000D01*
X99050000Y-75750000D01*
%TO.C,R2*%
X53130000Y-61540000D02*
X53130000Y-68080000D01*
X53130000Y-68080000D02*
X53460000Y-68080000D01*
X53460000Y-61540000D02*
X53130000Y-61540000D01*
X55540000Y-61540000D02*
X55870000Y-61540000D01*
X55870000Y-61540000D02*
X55870000Y-68080000D01*
X55870000Y-68080000D02*
X55540000Y-68080000D01*
%TO.C,C2*%
X79630000Y-81630000D02*
X82370000Y-81630000D01*
X79630000Y-86870000D02*
X79630000Y-81630000D01*
X82370000Y-81630000D02*
X82370000Y-86870000D01*
X82370000Y-86870000D02*
X79630000Y-86870000D01*
%TO.C,R1*%
X72630000Y-81230000D02*
X72630000Y-87770000D01*
X72630000Y-87770000D02*
X72960000Y-87770000D01*
X72960000Y-81230000D02*
X72630000Y-81230000D01*
X75040000Y-81230000D02*
X75370000Y-81230000D01*
X75370000Y-81230000D02*
X75370000Y-87770000D01*
X75370000Y-87770000D02*
X75040000Y-87770000D01*
%TO.C,U2*%
D11*
X70162460Y-25845634D02*
X77782460Y-25845634D01*
X77782460Y-30099813D01*
X70162460Y-30099813D01*
X70162460Y-25845634D01*
D13*
X60002460Y-26859813D02*
X88302460Y-26859813D01*
X88302460Y-78359813D01*
X60002460Y-78359813D01*
X60002460Y-26859813D01*
%TO.C,J5*%
D12*
X29275000Y-72950000D02*
X29275000Y-78500000D01*
X29275000Y-84050000D02*
X29275000Y-78500000D01*
X32225000Y-72200000D02*
X32225000Y-72950000D01*
X32225000Y-72950000D02*
X29275000Y-72950000D01*
X32225000Y-84050000D02*
X29275000Y-84050000D01*
X32225000Y-84800000D02*
X32225000Y-84050000D01*
X34775000Y-71900000D02*
X33525000Y-71900000D01*
X34775000Y-73150000D02*
X34775000Y-71900000D01*
X33725000Y-72200000D02*
X34475000Y-72200000D01*
X34475000Y-74000000D01*
X33725000Y-74000000D01*
X33725000Y-72200000D01*
X33725000Y-75500000D02*
X34475000Y-75500000D01*
X34475000Y-81500000D01*
X33725000Y-81500000D01*
X33725000Y-75500000D01*
X33725000Y-83000000D02*
X34475000Y-83000000D01*
X34475000Y-84800000D01*
X33725000Y-84800000D01*
X33725000Y-83000000D01*
X28515000Y-72190000D02*
X34485000Y-72190000D01*
X34485000Y-84810000D01*
X28515000Y-84810000D01*
X28515000Y-72190000D01*
%TO.C,RV4*%
X90650000Y-89250000D02*
X90650000Y-90500000D01*
X90950000Y-91800000D02*
X91700000Y-91800000D01*
X91700000Y-91800000D02*
X91700000Y-94750000D01*
X91700000Y-94750000D02*
X96000000Y-94750000D01*
X91900000Y-89250000D02*
X90650000Y-89250000D01*
X100300000Y-91800000D02*
X100300000Y-94750000D01*
X100300000Y-94750000D02*
X96000000Y-94750000D01*
X101050000Y-91800000D02*
X100300000Y-91800000D01*
X90940000Y-89540000D02*
X101060000Y-89540000D01*
X101060000Y-95510000D01*
X90940000Y-95510000D01*
X90940000Y-89540000D01*
X90950000Y-89550000D02*
X92750000Y-89550000D01*
X92750000Y-90300000D01*
X90950000Y-90300000D01*
X90950000Y-89550000D01*
X94250000Y-89550000D02*
X97750000Y-89550000D01*
X97750000Y-90300000D01*
X94250000Y-90300000D01*
X94250000Y-89550000D01*
X99250000Y-89550000D02*
X101050000Y-89550000D01*
X101050000Y-90300000D01*
X99250000Y-90300000D01*
X99250000Y-89550000D01*
%TO.C,C11*%
X39340302Y-78185000D02*
X40140302Y-78185000D01*
X39740302Y-77785000D02*
X39740302Y-78585000D01*
X43750000Y-76420000D02*
X43750000Y-84580000D01*
X43790000Y-76420000D02*
X43790000Y-84580000D01*
X43830000Y-76421000D02*
X43830000Y-84579000D01*
X43870000Y-76422000D02*
X43870000Y-84578000D01*
X43910000Y-76423000D02*
X43910000Y-84577000D01*
X43950000Y-76425000D02*
X43950000Y-84575000D01*
X43990000Y-76427000D02*
X43990000Y-84573000D01*
X44030000Y-76430000D02*
X44030000Y-84570000D01*
X44070000Y-76432000D02*
X44070000Y-84568000D01*
X44110000Y-76436000D02*
X44110000Y-84564000D01*
X44150000Y-76439000D02*
X44150000Y-84561000D01*
X44190000Y-76444000D02*
X44190000Y-84556000D01*
X44230000Y-76448000D02*
X44230000Y-84552000D01*
X44270000Y-76453000D02*
X44270000Y-84547000D01*
X44310000Y-76458000D02*
X44310000Y-84542000D01*
X44350000Y-76464000D02*
X44350000Y-84536000D01*
X44390000Y-76470000D02*
X44390000Y-84530000D01*
X44430000Y-76477000D02*
X44430000Y-84523000D01*
X44470000Y-76483000D02*
X44470000Y-79460000D01*
X44470000Y-81540000D02*
X44470000Y-84517000D01*
X44510000Y-76491000D02*
X44510000Y-79460000D01*
X44510000Y-81540000D02*
X44510000Y-84509000D01*
X44550000Y-76498000D02*
X44550000Y-79460000D01*
X44550000Y-81540000D02*
X44550000Y-84502000D01*
X44590000Y-76507000D02*
X44590000Y-79460000D01*
X44590000Y-81540000D02*
X44590000Y-84493000D01*
X44630000Y-76515000D02*
X44630000Y-79460000D01*
X44630000Y-81540000D02*
X44630000Y-84485000D01*
X44670000Y-76524000D02*
X44670000Y-79460000D01*
X44670000Y-81540000D02*
X44670000Y-84476000D01*
X44710000Y-76533000D02*
X44710000Y-79460000D01*
X44710000Y-81540000D02*
X44710000Y-84467000D01*
X44750000Y-76543000D02*
X44750000Y-79460000D01*
X44750000Y-81540000D02*
X44750000Y-84457000D01*
X44790000Y-76553000D02*
X44790000Y-79460000D01*
X44790000Y-81540000D02*
X44790000Y-84447000D01*
X44830000Y-76564000D02*
X44830000Y-79460000D01*
X44830000Y-81540000D02*
X44830000Y-84436000D01*
X44870000Y-76575000D02*
X44870000Y-79460000D01*
X44870000Y-81540000D02*
X44870000Y-84425000D01*
X44910000Y-76587000D02*
X44910000Y-79460000D01*
X44910000Y-81540000D02*
X44910000Y-84413000D01*
X44950000Y-76599000D02*
X44950000Y-79460000D01*
X44950000Y-81540000D02*
X44950000Y-84401000D01*
X44990000Y-76611000D02*
X44990000Y-79460000D01*
X44990000Y-81540000D02*
X44990000Y-84389000D01*
X45030000Y-76624000D02*
X45030000Y-79460000D01*
X45030000Y-81540000D02*
X45030000Y-84376000D01*
X45070000Y-76637000D02*
X45070000Y-79460000D01*
X45070000Y-81540000D02*
X45070000Y-84363000D01*
X45110000Y-76651000D02*
X45110000Y-79460000D01*
X45110000Y-81540000D02*
X45110000Y-84349000D01*
X45150000Y-76665000D02*
X45150000Y-79460000D01*
X45150000Y-81540000D02*
X45150000Y-84335000D01*
X45190000Y-76680000D02*
X45190000Y-79460000D01*
X45190000Y-81540000D02*
X45190000Y-84320000D01*
X45230000Y-76695000D02*
X45230000Y-79460000D01*
X45230000Y-81540000D02*
X45230000Y-84305000D01*
X45270000Y-76711000D02*
X45270000Y-79460000D01*
X45270000Y-81540000D02*
X45270000Y-84289000D01*
X45310000Y-76727000D02*
X45310000Y-79460000D01*
X45310000Y-81540000D02*
X45310000Y-84273000D01*
X45350000Y-76743000D02*
X45350000Y-79460000D01*
X45350000Y-81540000D02*
X45350000Y-84257000D01*
X45390000Y-76760000D02*
X45390000Y-79460000D01*
X45390000Y-81540000D02*
X45390000Y-84240000D01*
X45430000Y-76778000D02*
X45430000Y-79460000D01*
X45430000Y-81540000D02*
X45430000Y-84222000D01*
X45470000Y-76796000D02*
X45470000Y-79460000D01*
X45470000Y-81540000D02*
X45470000Y-84204000D01*
X45510000Y-76815000D02*
X45510000Y-79460000D01*
X45510000Y-81540000D02*
X45510000Y-84185000D01*
X45550000Y-76834000D02*
X45550000Y-79460000D01*
X45550000Y-81540000D02*
X45550000Y-84166000D01*
X45590000Y-76854000D02*
X45590000Y-79460000D01*
X45590000Y-81540000D02*
X45590000Y-84146000D01*
X45630000Y-76874000D02*
X45630000Y-79460000D01*
X45630000Y-81540000D02*
X45630000Y-84126000D01*
X45670000Y-76895000D02*
X45670000Y-79460000D01*
X45670000Y-81540000D02*
X45670000Y-84105000D01*
X45710000Y-76916000D02*
X45710000Y-79460000D01*
X45710000Y-81540000D02*
X45710000Y-84084000D01*
X45750000Y-76938000D02*
X45750000Y-79460000D01*
X45750000Y-81540000D02*
X45750000Y-84062000D01*
X45790000Y-76961000D02*
X45790000Y-79460000D01*
X45790000Y-81540000D02*
X45790000Y-84039000D01*
X45830000Y-76984000D02*
X45830000Y-79460000D01*
X45830000Y-81540000D02*
X45830000Y-84016000D01*
X45870000Y-77007000D02*
X45870000Y-79460000D01*
X45870000Y-81540000D02*
X45870000Y-83993000D01*
X45910000Y-77032000D02*
X45910000Y-79460000D01*
X45910000Y-81540000D02*
X45910000Y-83968000D01*
X45950000Y-77057000D02*
X45950000Y-79460000D01*
X45950000Y-81540000D02*
X45950000Y-83943000D01*
X45990000Y-77082000D02*
X45990000Y-79460000D01*
X45990000Y-81540000D02*
X45990000Y-83918000D01*
X46030000Y-77108000D02*
X46030000Y-79460000D01*
X46030000Y-81540000D02*
X46030000Y-83892000D01*
X46070000Y-77135000D02*
X46070000Y-79460000D01*
X46070000Y-81540000D02*
X46070000Y-83865000D01*
X46110000Y-77163000D02*
X46110000Y-79460000D01*
X46110000Y-81540000D02*
X46110000Y-83837000D01*
X46150000Y-77191000D02*
X46150000Y-79460000D01*
X46150000Y-81540000D02*
X46150000Y-83809000D01*
X46190000Y-77220000D02*
X46190000Y-79460000D01*
X46190000Y-81540000D02*
X46190000Y-83780000D01*
X46230000Y-77250000D02*
X46230000Y-79460000D01*
X46230000Y-81540000D02*
X46230000Y-83750000D01*
X46270000Y-77281000D02*
X46270000Y-79460000D01*
X46270000Y-81540000D02*
X46270000Y-83719000D01*
X46310000Y-77312000D02*
X46310000Y-79460000D01*
X46310000Y-81540000D02*
X46310000Y-83688000D01*
X46350000Y-77344000D02*
X46350000Y-79460000D01*
X46350000Y-81540000D02*
X46350000Y-83656000D01*
X46390000Y-77377000D02*
X46390000Y-79460000D01*
X46390000Y-81540000D02*
X46390000Y-83623000D01*
X46430000Y-77411000D02*
X46430000Y-79460000D01*
X46430000Y-81540000D02*
X46430000Y-83589000D01*
X46470000Y-77445000D02*
X46470000Y-79460000D01*
X46470000Y-81540000D02*
X46470000Y-83555000D01*
X46510000Y-77481000D02*
X46510000Y-79460000D01*
X46510000Y-81540000D02*
X46510000Y-83519000D01*
X46550000Y-77518000D02*
X46550000Y-83482000D01*
X46590000Y-77555000D02*
X46590000Y-83445000D01*
X46630000Y-77594000D02*
X46630000Y-83406000D01*
X46670000Y-77633000D02*
X46670000Y-83367000D01*
X46710000Y-77674000D02*
X46710000Y-83326000D01*
X46750000Y-77716000D02*
X46750000Y-83284000D01*
X46790000Y-77759000D02*
X46790000Y-83241000D01*
X46830000Y-77804000D02*
X46830000Y-83196000D01*
X46870000Y-77849000D02*
X46870000Y-83151000D01*
X46910000Y-77896000D02*
X46910000Y-83104000D01*
X46950000Y-77945000D02*
X46950000Y-83055000D01*
X46990000Y-77995000D02*
X46990000Y-83005000D01*
X47030000Y-78047000D02*
X47030000Y-82953000D01*
X47070000Y-78100000D02*
X47070000Y-82900000D01*
X47110000Y-78156000D02*
X47110000Y-82844000D01*
X47150000Y-78213000D02*
X47150000Y-82787000D01*
X47190000Y-78273000D02*
X47190000Y-82727000D01*
X47230000Y-78335000D02*
X47230000Y-82665000D01*
X47270000Y-78399000D02*
X47270000Y-82601000D01*
X47310000Y-78466000D02*
X47310000Y-82534000D01*
X47350000Y-78536000D02*
X47350000Y-82464000D01*
X47390000Y-78610000D02*
X47390000Y-82390000D01*
X47430000Y-78687000D02*
X47430000Y-82313000D01*
X47470000Y-78769000D02*
X47470000Y-82231000D01*
X47510000Y-78856000D02*
X47510000Y-82144000D01*
X47550000Y-78948000D02*
X47550000Y-82052000D01*
X47590000Y-79047000D02*
X47590000Y-81953000D01*
X47630000Y-79154000D02*
X47630000Y-81846000D01*
X47670000Y-79272000D02*
X47670000Y-81728000D01*
X47710000Y-79403000D02*
X47710000Y-81597000D01*
X47750000Y-79553000D02*
X47750000Y-81447000D01*
X47790000Y-79732000D02*
X47790000Y-81268000D01*
X47830000Y-79967000D02*
X47830000Y-81033000D01*
X47870000Y-80500000D02*
G75*
G02*
X39630000Y-80500000I-4120000J0D01*
G01*
X39630000Y-80500000D02*
G75*
G02*
X47870000Y-80500000I4120000J0D01*
G01*
%TD*%
M02*
