%TF.GenerationSoftware,KiCad,Pcbnew,10.0.5*%
%TF.CreationDate,2026-07-31T22:21:34-07:00*%
%TF.ProjectId,Beat Sync LED,42656174-2053-4796-9e63-204c45442e6b,rev?*%
%TF.SameCoordinates,Original*%
%TF.FileFunction,Soldermask,Bot*%
%TF.FilePolarity,Negative*%
%FSLAX46Y46*%
G04 Gerber Fmt 4.6, Leading zero omitted, Abs format (unit mm)*
G04 Created by KiCad (PCBNEW 10.0.5) date 2026-07-31 22:21:34*
%MOMM*%
%LPD*%
G01*
G04 APERTURE LIST*
G04 Aperture macros list*
%AMRoundRect*
0 Rectangle with rounded corners*
0 $1 Rounding radius*
0 $2 $3 $4 $5 $6 $7 $8 $9 X,Y pos of 4 corners*
0 Add a 4 corners polygon primitive as box body*
4,1,4,$2,$3,$4,$5,$6,$7,$8,$9,$2,$3,0*
0 Add four circle primitives for the rounded corners*
1,1,$1+$1,$2,$3*
1,1,$1+$1,$4,$5*
1,1,$1+$1,$6,$7*
1,1,$1+$1,$8,$9*
0 Add four rect primitives between the rounded corners*
20,1,$1+$1,$2,$3,$4,$5,0*
20,1,$1+$1,$4,$5,$6,$7,0*
20,1,$1+$1,$6,$7,$8,$9,0*
20,1,$1+$1,$8,$9,$2,$3,0*%
G04 Aperture macros list end*
%ADD10R,1.700000X1.700000*%
%ADD11C,1.700000*%
%ADD12RoundRect,0.250000X0.550000X0.550000X-0.550000X0.550000X-0.550000X-0.550000X0.550000X-0.550000X0*%
%ADD13C,1.600000*%
%ADD14RoundRect,0.250000X0.725000X-0.600000X0.725000X0.600000X-0.725000X0.600000X-0.725000X-0.600000X0*%
%ADD15O,1.950000X1.700000*%
%ADD16C,3.000000*%
%ADD17RoundRect,0.250001X1.149999X1.149999X-1.149999X1.149999X-1.149999X-1.149999X1.149999X-1.149999X0*%
%ADD18C,2.800000*%
%ADD19O,1.900000X1.524000*%
%ADD20RoundRect,0.250000X-0.725000X0.600000X-0.725000X-0.600000X0.725000X-0.600000X0.725000X0.600000X0*%
%ADD21RoundRect,0.250000X-0.600000X-0.725000X0.600000X-0.725000X0.600000X0.725000X-0.600000X0.725000X0*%
%ADD22O,1.700000X1.950000*%
%ADD23RoundRect,0.250000X-0.550000X-0.550000X0.550000X-0.550000X0.550000X0.550000X-0.550000X0.550000X0*%
G04 APERTURE END LIST*
D10*
%TO.C,J6*%
X53000000Y-35000000D03*
D11*
X50460000Y-35000000D03*
X47920000Y-35000000D03*
X45380000Y-35000000D03*
X42840000Y-35000000D03*
X40300000Y-35000000D03*
%TD*%
D10*
%TO.C,J2*%
X70000000Y-93000000D03*
D11*
X72540000Y-93000000D03*
X75080000Y-93000000D03*
X77620000Y-93000000D03*
X80160000Y-93000000D03*
%TD*%
D10*
%TO.C,J1*%
X108000000Y-35000000D03*
D11*
X105460000Y-35000000D03*
X102920000Y-35000000D03*
X100380000Y-35000000D03*
X97840000Y-35000000D03*
X95300000Y-35000000D03*
%TD*%
D12*
%TO.C,U1*%
X41310000Y-58120000D03*
D13*
X41310000Y-55580000D03*
X41310000Y-53040000D03*
X41310000Y-50500000D03*
X41310000Y-47960000D03*
X41310000Y-45420000D03*
X41310000Y-42880000D03*
X33690000Y-42880000D03*
X33690000Y-45420000D03*
X33690000Y-47960000D03*
X33690000Y-50500000D03*
X33690000Y-53040000D03*
X33690000Y-55580000D03*
X33690000Y-58120000D03*
%TD*%
D14*
%TO.C,RV2*%
X101500000Y-60500000D03*
D15*
X101500000Y-58000000D03*
X101500000Y-55500000D03*
%TD*%
D13*
%TO.C,C3*%
X36500000Y-63500000D03*
X39000000Y-63500000D03*
%TD*%
%TO.C,C10*%
X57500000Y-84000000D03*
X57500000Y-81500000D03*
%TD*%
%TO.C,C8*%
X110500000Y-59000000D03*
X110500000Y-56500000D03*
%TD*%
%TO.C,C6*%
X93500000Y-74000000D03*
X93500000Y-71500000D03*
%TD*%
D14*
%TO.C,RV5*%
X119000000Y-60500000D03*
D15*
X119000000Y-58000000D03*
X119000000Y-55500000D03*
%TD*%
D13*
%TO.C,C5*%
X93000000Y-59000000D03*
X93000000Y-56500000D03*
%TD*%
D16*
%TO.C,REF\u002A\u002A*%
X30000000Y-30000000D03*
%TD*%
D12*
%TO.C,C1*%
X112000000Y-45000000D03*
D13*
X108500000Y-45000000D03*
%TD*%
D17*
%TO.C,J4*%
X56000000Y-93500000D03*
D18*
X51000000Y-93500000D03*
X46000000Y-93500000D03*
%TD*%
D13*
%TO.C,C9*%
X98000000Y-45000000D03*
X95500000Y-45000000D03*
%TD*%
D16*
%TO.C,REF\u002A\u002A*%
X120000000Y-30000000D03*
%TD*%
D14*
%TO.C,RV1*%
X117500000Y-84000000D03*
D15*
X117500000Y-81500000D03*
X117500000Y-79000000D03*
%TD*%
D13*
%TO.C,C4*%
X118750000Y-70500000D03*
X116250000Y-70500000D03*
%TD*%
%TO.C,C7*%
X94500000Y-84000000D03*
X97000000Y-84000000D03*
%TD*%
D14*
%TO.C,RV3*%
X101500000Y-75000000D03*
D15*
X101500000Y-72500000D03*
X101500000Y-70000000D03*
%TD*%
D13*
%TO.C,R2*%
X54500000Y-61000000D03*
X54500000Y-68620000D03*
%TD*%
D16*
%TO.C,REF\u002A\u002A*%
X120000000Y-95000000D03*
%TD*%
D13*
%TO.C,C2*%
X81000000Y-83000000D03*
X81000000Y-85500000D03*
%TD*%
%TO.C,R1*%
X74000000Y-80690000D03*
X74000000Y-88310000D03*
%TD*%
D19*
%TO.C,U2*%
X86900000Y-34940000D03*
X86900000Y-37480000D03*
X86900000Y-40020000D03*
X86900000Y-42560000D03*
X86900000Y-45100000D03*
X86900000Y-47640000D03*
X86900000Y-50180000D03*
X86900000Y-52720000D03*
X86900000Y-55260000D03*
X86900000Y-57800000D03*
X86900000Y-60340000D03*
X86900000Y-62880000D03*
X86900000Y-65420000D03*
X86900000Y-67960000D03*
X86900000Y-70500000D03*
X61500000Y-34940000D03*
X61500000Y-37480000D03*
X61500000Y-40020000D03*
X61500000Y-42560000D03*
X61500000Y-45100000D03*
X61500000Y-47640000D03*
X61500000Y-50180000D03*
X61500000Y-52720000D03*
X61500000Y-55260000D03*
X61500000Y-57800000D03*
X61500000Y-60340000D03*
X61500000Y-62880000D03*
X61500000Y-65420000D03*
X61500000Y-67960000D03*
X61500000Y-70500000D03*
%TD*%
D16*
%TO.C,REF\u002A\u002A*%
X30000000Y-95000000D03*
%TD*%
D20*
%TO.C,J5*%
X32025000Y-74750000D03*
D15*
X32025000Y-77250000D03*
X32025000Y-79750000D03*
X32025000Y-82250000D03*
%TD*%
D21*
%TO.C,RV4*%
X93500000Y-92000000D03*
D22*
X96000000Y-92000000D03*
X98500000Y-92000000D03*
%TD*%
D23*
%TO.C,C11*%
X42000000Y-80500000D03*
D13*
X45500000Y-80500000D03*
%TD*%
M02*
