M48
; DRILL file KiCad 10.0.5 date 2026-07-31T22:21:21
; FORMAT={-:-/ absolute / metric / decimal}
; #@! TF.CreationDate,2026-07-31T22:21:21-07:00
; #@! TF.GenerationSoftware,Kicad,Pcbnew,10.0.5
; #@! TF.FileFunction,Plated,1,2,PTH
FMAT,2
METRIC
; #@! TA.AperFunction,Plated,PTH,ComponentDrill
T1C0.800
; #@! TA.AperFunction,Plated,PTH,ComponentDrill
T2C0.950
; #@! TA.AperFunction,Plated,PTH,ComponentDrill
T3C1.000
; #@! TA.AperFunction,Plated,PTH,ComponentDrill
T4C1.300
%
G90
G05
T1
X33.69Y-42.88
X33.69Y-45.42
X33.69Y-47.96
X33.69Y-50.5
X33.69Y-53.04
X33.69Y-55.58
X33.69Y-58.12
X36.5Y-63.5
X39.0Y-63.5
X41.31Y-42.88
X41.31Y-45.42
X41.31Y-47.96
X41.31Y-50.5
X41.31Y-53.04
X41.31Y-55.58
X41.31Y-58.12
X42.0Y-80.5
X45.5Y-80.5
X54.5Y-61.0
X54.5Y-68.62
X57.5Y-81.5
X57.5Y-84.0
X61.5Y-34.94
X61.5Y-37.48
X61.5Y-40.02
X61.5Y-42.56
X61.5Y-45.1
X61.5Y-47.64
X61.5Y-50.18
X61.5Y-52.72
X61.5Y-55.26
X61.5Y-57.8
X61.5Y-60.34
X61.5Y-62.88
X61.5Y-65.42
X61.5Y-67.96
X61.5Y-70.5
X74.0Y-80.69
X74.0Y-88.31
X81.0Y-83.0
X81.0Y-85.5
X86.9Y-34.94
X86.9Y-37.48
X86.9Y-40.02
X86.9Y-42.56
X86.9Y-45.1
X86.9Y-47.64
X86.9Y-50.18
X86.9Y-52.72
X86.9Y-55.26
X86.9Y-57.8
X86.9Y-60.34
X86.9Y-62.88
X86.9Y-65.42
X86.9Y-67.96
X86.9Y-70.5
X93.0Y-56.5
X93.0Y-59.0
X93.5Y-71.5
X93.5Y-74.0
X94.5Y-84.0
X95.5Y-45.0
X97.0Y-84.0
X98.0Y-45.0
X108.5Y-45.0
X110.5Y-56.5
X110.5Y-59.0
X112.0Y-45.0
X116.25Y-70.5
X118.75Y-70.5
T2
X32.025Y-74.75
X32.025Y-77.25
X32.025Y-79.75
X32.025Y-82.25
X93.5Y-92.0
X96.0Y-92.0
X98.5Y-92.0
X101.5Y-55.5
X101.5Y-58.0
X101.5Y-60.5
X101.5Y-70.0
X101.5Y-72.5
X101.5Y-75.0
X117.5Y-79.0
X117.5Y-81.5
X117.5Y-84.0
X119.0Y-55.5
X119.0Y-58.0
X119.0Y-60.5
T3
X40.3Y-35.0
X42.84Y-35.0
X45.38Y-35.0
X47.92Y-35.0
X50.46Y-35.0
X53.0Y-35.0
X70.0Y-93.0
X72.54Y-93.0
X75.08Y-93.0
X77.62Y-93.0
X80.16Y-93.0
X95.3Y-35.0
X97.84Y-35.0
X100.38Y-35.0
X102.92Y-35.0
X105.46Y-35.0
X108.0Y-35.0
T4
X46.0Y-93.5
X51.0Y-93.5
X56.0Y-93.5
M30
